/* XPM */
static char *_643294035014[] = {
/* columns rows colors chars-per-pixel */
"64 64 103 2 ",
"   c #B2A175",
".  c #B3A274",
"X  c #B0A176",
"o  c #B2A176",
"O  c #B1A277",
"+  c #B3A276",
"@  c #B3A277",
"#  c #B4A375",
"$  c #B4A377",
"%  c #B5A476",
"&  c #B6A577",
"*  c #B0A178",
"=  c #B3A179",
"-  c #B1A279",
";  c #B2A378",
":  c #B2A37A",
">  c #B4A378",
",  c #B4A27A",
"<  c #B5A37B",
"1  c #B3A578",
"2  c #B3A479",
"3  c #B3A47B",
"4  c #B5A478",
"5  c #B5A479",
"6  c #B6A579",
"7  c #B7A678",
"8  c #B4A57A",
"9  c #B6A57A",
"0  c #B5A67B",
"q  c #B7A67A",
"w  c #B7A67B",
"e  c #B4A57C",
"r  c #B6A47C",
"t  c #B7A57D",
"y  c #B5A67D",
"u  c #B6A77C",
"i  c #B6A77E",
"p  c #B8A779",
"a  c #B8A77B",
"s  c #B8A77C",
"d  c #B8A67E",
"f  c #B7A87D",
"g  c #BAA97D",
"h  c #B8A97E",
"j  c #BBAA7F",
"k  c #BDAC80",
"l  c #BFAE83",
"z  c #C9B88C",
"x  c #C9B88D",
"c  c #CAB98E",
"v  c #D1C095",
"b  c #D5C498",
"n  c #D7C69A",
"m  c #DAC99D",
"M  c #DCCB9F",
"N  c #DECD9F",
"B  c #DDCCA0",
"V  c #DECDA1",
"C  c #DFCEA2",
"Z  c #DFCEA3",
"A  c #E0CFA1",
"S  c #E1D0A2",
"D  c #E1D0A4",
"F  c #E2D1A5",
"G  c #E3D2A4",
"H  c #E6D5A7",
"J  c #E5D4A8",
"K  c #E7D6A8",
"L  c #E7D6AA",
"P  c #E8D7AB",
"I  c #EBDBA8",
"U  c #EAD9AB",
"Y  c #EDDDAA",
"T  c #EEDEAB",
"R  c #ECDBAD",
"E  c #EDDDAC",
"W  c #EFDFAC",
"Q  c #EEDEAD",
"!  c #EDDCAE",
"~  c #EEDDAF",
"^  c #EFDFAE",
"/  c #EDDCB0",
"(  c #EEDDB1",
")  c #EFDEB0",
"_  c #EFDEB2",
"`  c #F0DFB1",
"'  c #F0DFB3",
"]  c #F0E0AD",
"[  c #F1E1AE",
"{  c #F0E0AF",
"}  c #F2E2AF",
"|  c #F1E1B0",
" . c #F2E2B1",
".. c #F1E0B2",
"X. c #F2E1B3",
"o. c #F3E3B2",
"O. c #F4E4B3",
"+. c #F2E1B5",
"@. c #F3E2B4",
"#. c #F4E3B5",
"$. c #F4E3B7",
"%. c #F5E4B6",
"&. c #F5E4B8",
/* pixels */
"{ { { { { { { { { { { { { { { { { { { { { { { { { { { { { { { { { { { { { { { { { { { { { { { { { { { { { { { { { { { { { { { { ",
"{ { { { { { { { { { { { { { { { { { { { { { { { { { { { { { { { { { { { { { { { { { { { { { { { { { { { { { { { { { { { { { { { ",
"{ { { { { { { { { { { { { { { { { { { { { { { { { { { { { { { { { { { { { { { { { { { { { { { { { { { { { { { { { { { { { { { { ",
"{ { { { { { { { { { { { { { { { { { { { { { { { { { { { { { { { { { { { { { { { { { { { { { { { { { { { { { { { { { { { { { { { ",
"{ { { { { { { { { { { { { { { { { { { { { { { { { { { { { { { { { { { { { { { { { { { { { { { { { { { { { { { { { { { { { { { { ",
"{ { { { { { { { { { { { { { { { { { { { { { { { { { { { { { { { { { { { { { { { { { { { { { { { { { { { { { { { { { { { { { { { ",
"{ { { { { { { { { { { { { { { { { { { { { { { { { { { { { { { { { { { { { { { { { { { { { { { { { { { { { { { { { { { { { { { { ",
"{ { { { { { { { { { { { { { { { { { { { { { { { { { { { { { { { { { { { { { { { { { { { { { { { { { { { { { { { { { { { { { { { ",
"{ { { { { { { { { { { { { { { { { { { { { { { { { { { { { { { { { { { { { { { { { { { { { { { { { { { { { { { { { { { { { { { { ",
"{ { { { { { { { { { { { { { { { { { { { { { { { { { { { { { { { { { { { { { { { { { { { { { { { { { { { { { { { { { { { { { { { ",
"{ { { { { { { { { { { { { { { { { { { { { { { { { { { { { { { { { { { { { { { { { { { { { { { { { { { { { { { { { { { { { { { { ",
"{ { { { { { { { { { { { { { { { { { { { { { { { { { { { { { { { { { { { { { { { { { { { { { { { { { { { { { { { { { { { { { { { ",
"{ { { { { { { { { { { { { { { { { { { { { { { { { { { { { { { { { { { { { { { { { { { { { { { { { { { { { { { { { { { { { { { { ",
"{ { { { { { { { { { { { { { { { { { { { { { { { { { { { { { { { { { { { { { { { { { { { { { { { { { { { { { { { { { { { { { { { ",
"{ { { { { { { { { { { { { { { { { { { { { { { { { { { { { { { { { { { { { { { { { { { { { { { { { { { { { { { { { { { { { { { { ",
"{ { { { { { { { { { { { { { { { { { { { { { { { { { { { { { { { { { { { { { { { { { { { { { { { { { { { { { { { { { { { { { { { ",
"{ { { { { { { { { { { { { { { { { { { { { { { { { { { { { { { { { { { { { { { { { { { { { { { { { { { { { { { { { { { { { { { { ",
"{ { { { { { { { { { { { { { { { { { { { { { { { { { { { { { { { { { { { { { { { { { { { { { { { { { { { { { { { { { { { { { { { ",
"{ { { { { { { { { { { { { { { { { { { { { { { { { { { { { { { { { { { { { { { { { { { { { { { { { { { { { { { { { { { { { { { { ",
"{ { { { { { { { { { { { { { { { { { { { { { { { { { { { { { { { { { { { { { { { { { { { { { { { { { { { { { { { { { { { { { { { ",
"{ { { { { { { { { { { { { { { { { { { { { { { { { { { { { { { { { { { { { { { { { { { { { { { { { { { { { { { { { { { { { { { { ",
"{ { { { { { { { { { { { { { { { { { { { { { { { { { { { { { { { { { { { { { { { { { { { { { { { { { { { { { { { { { { { { { { { ",
"{ { { { { { { { { { { { { { { { { { { { { { { { { { { { { { { { { { { { { { { { { { { { { { { { { { { { { { { { { { { { { { { { ",
"{ { { { { { { { { { { { { { { { { { { { { { { { { { { { { { { { { { { { { { { { { { { { { { { { { { { { { { { { { { { { { { { { ",
"{ { { { { { { { { { { { { { { { { { { { { { { { { { { { { { { { { { { { { { { { { { { { { { { { { { { { { { { { { { { { { { { { ",
"{ { { { { { { { { { { { { { { { { { { { { { { { { { { { { { { { { { { { { { { { { { { { { { { { { { { { { { { { { { { { { { { { ",
"{ { { { { { { { { { { { { { { { { { { { { { { { { { { { { { { { { { { { { { { { { { { { { { { { { { { { { { { { { { { { { { { { ",
"{ { { { { { { { { { { { { { { { { { { { { { { { { { { { { { { { { { { { { { { { { { { { { { { { { { { { { { { { { { { { { { { { ",
"{ { { { { { { { { { { { { { { { { { { { { { { { { { { { { { { { { { { { { { { { { { { { { { { { { { { { { { { { { { { { { { { { ",
"{ { { { { { { { { { { { { { { { { { { { { { { { { { { { { { { { { { { { { { { { { { { { { { { { { { { { { { { { { { { { { { { { ",
"{ { { { { { { { { { { { { { { { { { { { { { { { { { { { { { { { { { { { { { { { { { { { { { { { { { { { { { { { { { { { { { { { ",
"{ { { { { { { { { { { { { { { { { { { { { { { { { { { { { { { { { { { { { { { { { { { { { { { { { { { { { { { { { { { { { { { { ",
"^ ^ ^ ^ ^ ^ ^ ^ ^ ^ ^ ^ ^ ^ ^ ^ ^ ^ ^ ^ ^ ^ ^ ^ ^ ^ ^ ^ ^ ^ ^ ^ { { { { { { { { { { { { { { { { { { { { { { { { { { { { { { { { ",
"^ o.^ o.^ o.^ o.^ o.^ o.^ o.^ o.^ o.^ o.^ o.^ o.^ o.^ o.^ o.^ o.{ { { { { { { { { { { { { { { { { { { { { { { { { { { { { { { { ",
"o.^ ^ ^ o.^ ^ ^ o.^ ^ ^ o.^ ^ ^ o.^ ^ ^ o.^ ^ ^ o.^ ^ ^ o.^ ^ ^ { { { { { { { { { { { { { { { { { { { { { { { { { { { { { { { { ",
"^ ^ ^ o.^ ^ ^ o.^ ^ ^ o.^ ^ ^ o.^ ^ ^ o.^ ^ ^ o.^ ^ ^ o.^ ^ ^ o.{ { { { { { { { { { { { { { { { { { { { { { { { { { { { { { { { ",
"o.^ o.^ ^ ^ o.^ o.^ o.^ ^ ^ o.^ o.^ o.^ ^ ^ o.^ o.^ o.^ ^ ^ o.^ { { { { { { { { { { { { { { { { { { { { { { { { { { { { { { { { ",
"^ ^ ^ ^ ^ o.^ ^ ^ ^ ^ ^ ^ o.^ ^ ^ ^ ^ ^ ^ o.^ ^ ^ ^ ^ ^ ^ o.^ ^ { { { { { { { { { { { { { { { { { { { { { { { { { { { { { { { { ",
"^ ^ o.^ ^ ^ ^ ^ ^ ^ o.^ ^ ^ ^ ^ ^ ^ o.^ ^ ^ ^ ^ ^ ^ o.^ ^ ^ ^ ^ { { { { { { { { { { { { { { { { { { { { { { { { { { { { { { { { ",
"^ o.^ ^ ^ o.^ o.^ o.^ ^ ^ o.^ o.^ o.^ ^ ^ o.^ o.^ o.^ ^ ^ o.^ o.{ { { { { { { { { { { { { { { { { { { { { { { { { { { { { { { { ",
"o.^ ^ ^ o.^ o.^ ^ ^ o.^ o.^ ^ ^ o.^ ^ ^ o.^ o.^ ^ ^ o.^ o.^ ^ ^ { { { { { { { { { { { { { { { { { { { { { { { { { { { { { { { { ",
"^ ^ ^ o.^ ^ ^ ^ ^ o.^ ^ ^ ^ ^ o.^ ^ ^ o.^ ^ ^ ^ ^ o.^ ^ ^ ^ ^ o.{ { { { { { { { { { { { { { { { { { { { { { { { { { { { { { { { ",
"o.^ o.^ ^ ^ o.^ ^ ^ ^ ^ o.^ o.^ o.^ o.^ ^ ^ o.^ ^ ^ ^ ^ o.^ o.^ { { { { { { { { { { { { { { { { { { { { { { { { { { { { { { { { ",
"^ ^ ^ ^ ^ o.^ ^ ^ o.^ o.^ ^ ^ ^ ^ ^ ^ ^ ^ o.^ ^ ^ o.^ o.^ ^ ^ ^ { { { { { { { { { { { { { { { { { { { { { { { { { { { { { { { { ",
"^ ^ ^ ^ o.^ o.^ ^ ^ o.^ ^ ^ ^ ^ ^ ^ ^ ^ o.^ o.^ ^ ^ o.^ ^ ^ ^ } { { { { { { { { { { { { { { { { { { { { { { { { { { { { { { { { ",
"^ o.^ o.^ ^ ^ ^ ^ o.^ ^ ^ o.^ o.^ o.^ o.^ ^ ^ ^ ^ o.^ ^ ^ o.^ ^ { { { { { { { { { { { { { { { { { { { { { { { { { { { { { { { { ",
"o.^ ^ ^ ^ ^ o.^ ^ ^ ^ ^ o.^ ^ ^ o.^ ^ ^ ^ ^ o.^ ^ ^ ^ ^ o.^ X.^ { { { { { { { { { { { { { { { { { { { { { { { { { { { { { { { { ",
"^ ^ ^ o.^ o.^ ^ ^ o.^ o.^ ^ ^ o.^ ^ ^ o.^ o.^ ^ ^ o.^ o.^ ^ ^ ^ { { { { { { { { { { { { { { { { { { { { { { { { { { { { { { { { ",
"o.^ o.^ Q X.{ { X.{ ^ ) X.{ X.o.^ ^ ^ ^ ^ o.{ ^ ^ { { { _ ^ ^ T T } } } { } } Q T { } { { } Q Q { ` ` ` ` ` ` ` ) ) ^ ` X.` X.` ",
"^ ^ ^ ^ ) ^ { { { { ^ ^ ^ Y Y ^ X.X.^ ^ ^ ^ X.^ { ^ ^ { ^ X.} X.T { Q Q Q Q Q ^  .{ Y Y T { Q ^ ) ) ) ) ) ) ) ) @.X.X.X.) ) ` ` ",
"^ ^ _ ^ ^ ^ ) ) X.X.^ ) ) @.X.X.) ) @.) _ _ X.X.) @.%.X.) ) ) @.` Q / Q  .{ '  .Q Q #. .#. .R J G G G G G G G G A S S S K R ` @.",
"Z N Z A Z N Z N N U #.%.) U ) ^ @.@.) ^ U ^ ^ X.) ) ^ ^ ) ) @.) ' ` ` ' ` P A B G A n z j p p d . . . . . . . . 6 & & . & & 6 p ",
". 2 6 ; > > 6 > e 6 ; j c B Z B Z L _ %.%.%.@._ ) J Z Z Z G B b c c z d d e p d > 9 d p ; ; > > 6 6 6 6 6 6 6 6 > 6 2 & $ $ & > ",
"6 6 6 6 6 6 6 e $ > 6 6 6 ; > ; 6 6 6 6 . ; 2 & 6 ; . $ > 6 6 6 k , = = e , > = r d r > e e r > > $ $ $ $ $ $ $ ; . & 6 $ $ . . ",
"e 2 2 e 6 e 2 2 6 e 2 e 6 ; > e 2 e 2 2 ; 2 0 2 X 6 e e ; ; 2 f - : ; ; e e e e e e , : e f e 2 2 2 2 2 2 2 2 2 6 ; 6 e e 6 e e ",
"2 2 2 2 2 2 2 2 6 ; ; 2 2 ; ; e 2 2 2 2 6 e 2 ; ; ; 2 2 2 6 2 2 - : k , : : : ; : e e , 2 e e 2 2 2 2 2 2 2 2 2 2 2 2 2 2 ; ; ; ",
"1 1 1 1 1 1 1 1 2 ; 1 1 1 1 1 1 2 2 2 2 2 2 2 2 2 2 2 2 2 2 2 2 : : 2 2 2 2 2 2 2 2 2 2 2 2 2 2 2 2 2 2 2 2 2 2 2 2 2 2 2 2 2 2 ",
"1 1 1 1 1 1 1 1 1 ; 1 1 1 1 1 1 2 2 2 2 2 2 2 2 2 2 2 2 2 2 2 2 : ; 2 2 2 2 2 2 2 2 2 2 2 2 2 2 2 2 2 2 2 2 2 2 2 2 2 2 2 2 2 2 ",
"1 1 1 1 1 1 2 ; 1 1 1 1 1 1 1 1 2 2 2 2 2 2 2 2 2 2 2 2 2 2 2 2 2 2 2 1 1 1 1 1 1 1 2 2 1 1 1 1 2 2 2 2 2 2 2 2 2 2 2 2 2 2 2 2 ",
"1 1 1 1 1 1 2 2 1 1 1 1 1 1 1 1 2 2 2 2 2 2 2 2 2 2 2 2 2 2 2 2 2 2 1 1 1 1 1 1 1 1 2 2 1 1 1 1 2 2 2 2 2 2 2 2 2 2 2 2 2 2 2 2 ",
"2 2 2 2 2 2 2 2 2 2 2 2 2 2 2 2 2 2 2 2 2 2 2 2 2 2 2 2 2 2 2 2 2 2 2 2 2 2 2 2 2 2 2 2 2 2 2 2 2 2 2 2 2 2 2 2 2 2 2 2 2 2 2 2 ",
"2 2 2 2 2 2 2 2 2 2 2 ; 2 2 2 2 2 2 2 2 2 2 2 2 2 2 2 2 2 2 2 2 2 2 2 2 2 2 2 2 2 2 2 2 2 2 2 2 2 2 2 2 2 2 2 2 2 2 2 2 2 2 2 2 ",
"e : 2 e e : e : e : : e e 2 2 e 2 2 2 2 2 2 2 2 2 2 2 2 2 2 2 2 2 2 2 2 2 2 2 2 2 2 2 2 2 2 2 2 2 2 2 2 2 2 2 2 2 2 2 2 2 2 2 2 ",
": e e 2 : e : e : e e 2 e e e 2 2 2 2 2 2 2 2 2 2 2 2 2 2 2 2 2 2 2 2 2 2 2 2 2 2 2 2 2 2 2 2 2 2 2 2 2 2 2 2 2 2 2 2 2 2 2 2 2 "
};
