/* XPM */
static char *_643294052139[] = {
/* columns rows colors chars-per-pixel */
"64 64 125 2 ",
"   c #AF9E72",
".  c #AE9F74",
"X  c #AFA174",
"o  c #B2A173",
"O  c #B1A074",
"+  c #B2A175",
"@  c #B0A275",
"#  c #B3A274",
"$  c #B0A176",
"%  c #B1A376",
"&  c #B1A277",
"*  c #B3A276",
"=  c #B4A377",
"-  c #B2A477",
";  c #B5A476",
":  c #B6A577",
">  c #B2A378",
",  c #B3A578",
"<  c #B3A479",
"1  c #B3A47B",
"2  c #B5A478",
"3  c #B6A579",
"4  c #B4A679",
"5  c #B7A678",
"6  c #B4A57A",
"7  c #B5A77A",
"8  c #B5A67B",
"9  c #B7A67A",
"0  c #B3A47D",
"q  c #B6A77C",
"w  c #B8A77B",
"e  c #B6A87B",
"r  c #B7A97C",
"t  c #B7A87D",
"y  c #B9A87A",
"u  c #BAA97B",
"i  c #B9A87C",
"p  c #BAA97D",
"a  c #B8AA7D",
"s  c #B8A97E",
"d  c #BBAA7E",
"f  c #BEAD7F",
"g  c #BDAC80",
"h  c #BFAE82",
"j  c #BFB184",
"k  c #C0AF83",
"l  c #C1B084",
"z  c #C4B387",
"x  c #C6B587",
"c  c #C5B488",
"v  c #C6B589",
"b  c #CCBB8F",
"n  c #CDBC90",
"m  c #CEBD91",
"M  c #CCBE91",
"N  c #D2C193",
"B  c #D3C294",
"V  c #D6C597",
"C  c #D6C599",
"Z  c #D8C79B",
"A  c #D9C89A",
"S  c #DAC99B",
"D  c #D9C89C",
"F  c #DBCA9C",
"G  c #DCCB9D",
"H  c #DCCB9F",
"J  c #DACC9F",
"K  c #DDCC9E",
"L  c #DECD9F",
"P  c #DBCDA0",
"I  c #DDCCA0",
"U  c #DECDA1",
"Y  c #DCCEA1",
"T  c #DFCEA0",
"R  c #DFCEA2",
"E  c #DFD1A4",
"W  c #E0CFA1",
"Q  c #E0CFA3",
"!  c #E2D1A3",
"~  c #E1D0A4",
"^  c #E2D1A5",
"/  c #E3D2A4",
"(  c #E2D4A7",
")  c #E6D5A7",
"_  c #E5D4A8",
"`  c #E8D7A9",
"'  c #EBDBAA",
"]  c #ECDCAB",
"[  c #E9D8AC",
"{  c #EAD9AD",
"}  c #E8DAAD",
"|  c #E9DBAE",
" . c #ECDBAD",
".. c #EADCAF",
"X. c #EDDDAC",
"o. c #EEDEAD",
"O. c #EDDCAE",
"+. c #EEDDAF",
"@. c #EFDFAE",
"#. c #EBDDB0",
"$. c #EDDCB0",
"%. c #EEDDB1",
"&. c #EFDEB0",
"*. c #EDDFB2",
"=. c #F0DFB1",
"-. c #F0DFB3",
";. c #F0E0AF",
":. c #EFE1B4",
">. c #F1E1B0",
",. c #F2E2B1",
"<. c #F1E0B2",
"1. c #F2E1B3",
"2. c #F3E3B2",
"3. c #F4E4B3",
"4. c #F1E0B4",
"5. c #F2E1B5",
"6. c #F1E3B4",
"7. c #F0E2B5",
"8. c #F3E2B4",
"9. c #F1E3B6",
"0. c #F3E2B6",
"q. c #F4E3B5",
"w. c #F3E5B6",
"e. c #F6E6B5",
"r. c #F5E4B6",
/* pixels */
";.;.;.;.;.;.;.;.;.;.;.;.;.;.;.;.;.;.;.;.;.;.;.;.;.;.;.;.;.;.;.;.;.;.;.;.;.;.;.;.;.;.;.;.;.;.;.;.@.@.>.;.&.W * 3 1 1 * , , * , , ",
";.;.;.;.;.;.;.;.;.;.;.;.;.;.;.;.;.;.;.;.;.;.;.;.;.;.;.;.;.;.;.;.;.;.;.;.;.;.;.;.;.;.;.;.;.;.;.;.>.@.>.@.=.W 3 3 * 1 1 1 1 1 1 1 ",
";.;.;.;.;.;.;.;.;.;.;.;.;.;.;.;.;.;.;.;.;.;.;.;.;.;.;.;.;.;.;.;.;.;.;.;.;.;.;.;.;.;.;.;.;.;.;.;.>.@.;.@.q.G i 3 , 1 * 1 * 1 1 * ",
";.;.;.;.;.;.;.;.;.;.;.;.;.;.;.;.;.;.;.;.;.;.;.;.;.;.;.;.;.;.;.;.;.;.;.;.;.;.;.;.;.;.;.;.;.;.;.;.>.@.;.@.q.F i = , 1 , , , 1 , , ",
";.;.;.;.;.;.;.;.;.;.;.;.;.;.;.;.;.;.;.;.;.;.;.;.;.;.;.;.;.;.;.;.;.;.;.;.;.;.;.;.;.;.;.;.;.;.;.;.>.@.>.;.q.G 3 3 * 1 , , , 1 * , ",
";.;.;.;.;.;.;.;.;.;.;.;.;.;.;.;.;.;.;.;.;.;.;.;.;.;.;.;.;.;.;.;.;.;.;.;.;.;.;.;.;.;.;.;.;.;.;.;.;.@.>.;.=.! = = , 1 1 * 1 1 1 , ",
";.;.;.;.;.;.;.;.;.;.;.;.;.;.;.;.;.;.;.;.;.;.;.;.;.;.;.;.;.;.;.;.;.;.;.;.;.;.;.;.;.;.;.;.;.;.;.;.;.@.@.;.&.O.= 3 , 1 1 1 1 1 1 * ",
";.;.;.;.;.;.;.;.;.;.;.;.;.;.;.;.;.;.;.;.;.;.;.;.;.;.;.;.;.;.;.;.;.;.;.;.;.;.;.;.;.;.;.;.;.;.;.;.>.@.@.;.@.q.= = * 1 , , * 1 , , ",
";.;.;.;.;.;.;.;.;.;.;.;.;.;.;.;.;.;.;.;.;.;.;.;.;.;.;.;.;.;.;.;.;.;.;.;.;.;.;.;.;.;.;.;.;.;.;.;.@.@.>.@.=.=.= w , , 1 1 * 1 1 * ",
";.;.;.;.;.;.;.;.;.;.;.;.;.;.;.;.;.;.;.;.;.;.;.;.;.;.;.;.;.;.;.;.;.;.;.;.;.;.;.;.;.;.;.;.;.;.;.;.@.@.>.@.4.=.= 3 1 1 1 , , , , , ",
";.;.;.;.;.;.;.;.;.;.;.;.;.;.;.;.;.;.;.;.;.;.;.;.;.;.;.;.;.;.;.;.;.;.;.;.;.;.;.;.;.;.;.;.;.;.;.;.>.@.>.@.>.=.i = 1 , 1 , 1 , 1 1 ",
";.;.;.;.;.;.;.;.;.;.;.;.;.;.;.;.;.;.;.;.;.;.;.;.;.;.;.;.;.;.;.;.;.;.;.;.;.;.;.;.;.;.;.;.;.;.;.;.>.>.>.=.=.=.p = * , 1 * 1 , * 1 ",
";.;.;.;.;.;.;.;.;.;.;.;.;.;.;.;.;.;.;.;.;.;.;.;.;.;.;.;.;.;.;.;.;.;.;.;.;.;.;.;.;.;.;.;.;.;.;.;.>.>.>.@.>.=.d = 1 1 * 1 * 1 1 1 ",
";.;.;.;.;.;.;.;.;.;.;.;.;.;.;.;.;.;.;.;.;.;.;.;.;.;.;.;.;.;.;.;.;.;.;.;.;.;.;.;.;.;.;.;.;.;.;.;.>.@.>.@.4.=.g = 1 , , 1 , , , * ",
";.;.;.;.;.;.;.;.;.;.;.;.;.;.;.;.;.;.;.;.;.;.;.;.;.;.;.;.;.;.;.;.;.;.;.;.;.;.;.;.;.;.;.;.;.;.;.;.>.>.@.@.=.=.h 3 * , , , 1 , , 1 ",
";.;.;.;.;.;.;.;.;.;.;.;.;.;.;.;.;.;.;.;.;.;.;.;.;.;.;.;.;.;.;.;.;.;.;.;.;.;.;.;.;.;.;.;.;.;.;.;.@.@.>.@.>.=.k = 1 , * 1 1 , * 1 ",
";.;.;.;.;.;.;.;.;.;.;.;.;.;.;.;.;.;.;.;.;.;.;.;.;.;.;.;.;.;.;.;.;.;.;.;.;.;.;.;.;.;.;.;.;.;.;.;.2.@.>.>.>.=.v = 3 1 1 1 1 1 * , ",
";.;.;.;.;.;.;.;.;.;.;.;.;.;.;.;.;.;.;.;.;.;.;.;.;.;.;.;.;.;.;.;.;.;.;.;.;.;.;.;.;.;.;.;.;.;.;.;.>.@.@.>.@.=.n 3 1 1 0 0 1 1 , , ",
";.;.;.;.;.;.;.;.;.;.;.;.;.;.;.;.;.;.;.;.;.;.;.;.;.;.;.;.;.;.;.;.;.;.;.;.;.;.;.;.;.;.;.;.;.;.;.;.@.>.@.>.@.@.C = 1 1 0 0 1 1 , , ",
";.;.;.;.;.;.;.;.;.;.;.;.;.;.;.;.;.;.;.;.;.;.;.;.;.;.;.;.;.;.;.;.;.;.;.;.;.;.;.;.;.;.;.;.;.;.;.;.>.@.@.2.@.@.R = 1 1 0 0 1 1 1 , ",
";.;.;.;.;.;.;.;.;.;.;.;.;.;.;.;.;.;.;.;.;.;.;.;.;.;.;.;.;.;.;.;.;.;.;.;.;.;.;.;.;.;.;.;.;.;.;.;.>.@.>.>.@.@.^ = 1 1 0 0 1 , , , ",
";.;.;.;.;.;.;.;.;.;.;.;.;.;.;.;.;.;.;.;.;.;.;.;.;.;.;.;.;.;.;.;.;.;.;.;.;.;.;.;.;.;.;.;.;.;.;.;.>.@.>.@.@.@.^ = 1 1 0 0 1 * 1 , ",
";.;.;.;.;.;.;.;.;.;.;.;.;.;.;.;.;.;.;.;.;.;.;.;.;.;.;.;.;.;.;.;.;.;.;.;.;.;.;.;.;.;.;.;.;.;.;.;.>.] >.@.>.@.Q = 1 1 0 0 1 1 1 - ",
";.;.;.;.;.;.;.;.;.;.;.;.;.;.;.;.;.;.;.;.;.;.;.;.;.;.;.;.;.;.;.;.;.;.;.;.;.;.;.;.;.;.;.;.;.;.;.;.>.@.2.@.>.>.W = 1 1 0 0 1 , 3 - ",
";.;.;.;.;.;.;.;.;.;.;.;.;.;.;.;.;.;.;.;.;.;.;.;.;.;.;.;.;.;.;.;.;.;.;.;.;.;.;.;.;.;.;.;.;.;.;.;.>.@.>.>.@.q.I 3 1 1 0 0 1 * , , ",
";.;.;.;.;.;.;.;.;.;.;.;.;.;.;.;.;.;.;.;.;.;.;.;.;.;.;.;.;.;.;.;.;.;.;.;.;.;.;.;.;.;.;.;.;.;.;.;.;.>.>.>.@.>.Q = 1 1 0 0 1 1 , , ",
";.;.;.;.;.;.;.;.;.;.;.;.;.;.;.;.;.;.;.;.;.;.;.;.;.;.;.;.;.;.;.;.;.;.;.;.;.;.;.;.;.;.;.;.;.;.;.;.;.;.@.>.@.@.[ = 1 1 0 0 1 1 1 - ",
";.;.;.;.;.;.;.;.;.;.;.;.;.;.;.;.;.;.;.;.;.;.;.;.;.;.;.;.;.;.;.;.;.;.;.;.;.;.;.;.;.;.;.;.;.;.;.;.@.>.@.>.@.@.=.* 1 1 0 0 1 1 , , ",
";.;.;.;.;.;.;.;.;.;.;.;.;.;.;.;.;.;.;.;.;.;.;.;.;.;.;.;.;.;.;.;.;.;.;.;.;.;.;.;.;.;.;.;.;.;.;.;.;.>.@.>.@.;.4.= 1 1 0 0 1 , , , ",
";.;.;.;.;.;.;.;.;.;.;.;.;.;.;.;.;.;.;.;.;.;.;.;.;.;.;.;.;.;.;.;.;.;.;.;.;.;.;.;.;.;.;.;.;.;.;.;.;.;.;.;.;.;.r., 1 1 0 0 1 * 1 , ",
";.;.;.;.;.;.;.;.;.;.;.;.;.;.;.;.;.;.;.;.;.;.;.;.;.;.;.;.;.;.;.;.;.;.;.;.;.;.;.;.;.;.;.;.;.;.;.;.;.@.>.@.4.>.&.= 1 1 0 0 1 1 1 - ",
";.;.;.;.;.;.;.;.;.;.;.;.;.;.;.;.;.;.;.;.;.;.;.;.;.;.;.;.;.;.;.;.;.;.;.;.;.;.;.;.;.;.;.;.;.;.;.@.>.@.;.@.>.>.&.3 1 1 0 0 1 , 3 - ",
";.;.;.;.;.;.;.;.;.;.;.;.;.;.;.;.;.;.;.;.;.;.;.;.;.;.;.;.;.;.;.;.;.;.;.;.;.;.;.;.;.;.;.;.;.;.;.;.;.@.@.@.2.>.&.i 1 1 0 0 1 1 * , ",
";.;.;.;.;.;.;.;.;.;.;.;.;.;.;.;.;.;.;.;.;.;.;.;.;.;.;.;.;.;.;.;.;.;.;.;.;.;.;.;.;.;.;.;.;.;.;.;.>.@.@.@.>.>.-.= 1 1 0 0 1 1 1 , ",
";.;.;.;.;.;.;.;.;.;.;.;.;.;.;.;.;.;.;.;.;.;.;.;.;.;.;.;.;.;.;.;.;.;.;.;.;.;.;.;.;.;.;.;.;.;.;.;.>.@.@.@.@.@.4.= 1 1 0 0 1 1 1 - ",
";.;.;.;.;.;.;.;.;.;.;.;.;.;.;.;.;.;.;.;.;.;.;.;.;.;.;.;.;.;.;.;.;.;.;.;.;.;.;.;.;.;.;.;.;.;.;.;.;.>.@.>.@.@.q.1 1 1 0 0 1 , 3 - ",
";.;.;.;.;.;.;.;.;.;.;.;.;.;.;.;.;.;.;.;.;.;.;.;.;.;.;.;.;.;.;.;.;.;.;.;.;.;.;.;.;.;.;.;.;.;.;.;.@.>.@.>.@.>.-.3 1 1 0 0 1 , , , ",
";.;.;.;.;.;.;.;.;.;.;.;.;.;.;.;.;.;.;.;.;.;.;.;.;.;.;.;.;.;.;.;.;.;.;.;.;.;.;.;.;.;.;.;.;.;.;.;.@.;.>.>.@.>.{ 3 1 1 0 0 1 * 1 , ",
";.;.;.;.;.;.;.;.;.;.;.;.;.;.;.;.;.;.;.;.;.;.;.;.;.;.;.;.;.;.;.;.;.;.;.;.;.;.;.;.;.;.;.;.;.;.;.;.;.@.;.>.@.>.^ = 1 1 0 0 1 1 1 - ",
";.;.;.;.;.;.;.;.;.;.;.;.;.;.;.;.;.;.;.;.;.;.;.;.;.;.;.;.;.;.;.;.;.;.;.;.;.;.;.;.;.;.;.;.;.;.;.;.>.@.>.>.@.>.F 3 1 1 0 0 1 , , - ",
";.;.;.;.;.;.;.;.;.;.;.;.;.;.;.;.;.;.;.;.;.;.;.;.;.;.;.;.;.;.;.;.;.;.;.;.;.;.;.;.;.;.;.;.;.;.;.;.2.] >.@.>.>.R 3 1 1 0 0 1 1 * - ",
";.;.;.;.;.;.;.;.;.;.;.;.;.;.;.;.;.;.;.;.;.;.;.;.;.;.;.;.;.;.;.;.;.;.;.;.;.;.;.;.;.;.;.;.;.;.;.;.;.;.;.] 3.&.F 3 1 1 0 0 1 1 , 3 ",
";.;.;.;.;.;.;.;.;.;.;.;.;.;.;.;.;.;.;.;.;.;.;.;.;.;.;.;.;.;.;.;.;.;.;.;.;.;.;.;.;.;.;.;.;.;.;.;.@.2.@.] >.:.F = 1 1 0 0 1 1 , , ",
";.;.;.;.;.;.;.;.;.;.;.;.;.;.;.;.;.;.;.;.;.;.;.;.;.;.;.;.;.;.;.;.;.;.;.;.;.;.;.;.;.;.;.;.;.;.;.;.;.>.@.@.@.@.R = 1 1 0 0 1 1 , , ",
";.;.;.;.;.;.;.;.;.;.;.;.;.;.;.;.;.;.;.;.;.;.;.;.;.;.;.;.;.;.;.;.;.;.;.;.;.;.;.;.;.;.;.;.;.;.;.;.;.;.;.>.@.@.R = 1 1 0 0 1 * , , ",
";.;.;.;.;.;.;.;.;.;.;.;.;.;.;.;.;.;.;.;.;.;.;.;.;.;.;.;.;.;.;.;.;.;.;.;.;.;.;.;.;.;.;.;.;.;.;.;.;.@.;.2.@.;.Z * 1 1 0 0 1 1 , , ",
";.;.;.;.;.;.;.;.;.;.;.;.;.;.;.;.;.;.;.;.;.;.;.;.;.;.;.;.;.;.;.;.;.;.;.;.;.;.;.;.;.;.;.;.;.;.;.;.@.@.;.>.@.>.n ; 1 1 1 0 1 1 1 - ",
";.;.;.;.;.;.;.;.;.;.;.;.;.;.;.;.;.;.;.;.;.;.;.;.;.;.;.;.;.;.;.;.;.;.;.;.;.;.;.;.;.;.;.;.;.;.;.;.@.>.>.@.4.>.v = 1 1 1 1 1 1 , , ",
"=.=.=.=.=.=.=.>.=.=.=.=.=.=.=.=.@.@.>.@.@.@.@.>.2.>.>.>.@.@.;.>.;.;.@.;.>.;.@.@.;.;.;.;.;.;.;.;.4.4.:.3.} 9.e X , 0 1 * , 1 1 * ",
"2.>.-.=.=.-.4.4.q.>.=.=.=.=.=.=.2.@.@.@.@.>.>.@.@.@.>.@.;.=.;.;.@.;.>.@.@.@.@.@.;.@.;.>.2.;.] ;.@.#.} :.9.E , 7 , , 1 0 , 1 , , ",
"O.O.=.=.=.=.O.O.O.O.&.=.=.=.=.=.@.@.>.>.2.2.@.@.@.@.@.>.>.>.@.@.e.>.@.@.2.2.2.@.;.2.;.' ] 2.;.@.:.9.9.:.| j X - , , , , 1 1 1 1 ",
"=.q.=.=.>.-.=.>.-.q.q.=.=.O.=.=.=.@.] ] @.@.>.@.@.@.>.>.>.2.>.=.@.;.;.;.@.@.@.>.] 2.2.;.;.2.@.! E P E P M - e , , , , , 1 , , * ",
"k g p 3 i p h h z n Z Q _ [ $.=.=.4.q.=.&.@.@.=.>.=.=.O.=.=.=.=.=.=.=.=.>.q.=.=.>.) T L V x u ; 7 X e 7 X X e X 1 1 * 1 * 1 1 * ",
"w w 3 = = 3 3 q 3 w = * O O g c n N A W R L L R G I W / ` O.=.>.>.` G G A B v u f w # ; ; * o = 7 X - , , e X e * , , 1 , , , , ",
"* 1 1 q q , 1 X * 1 q q q , 1 * w 3 w 3 = = = 3 3 = = = 3 w w w O = = = 3 = 3 3 O 3 3 = = u 3 * - , e e 7 X X 0 , , , 1 1 , 1 1 ",
"1 * * X 1 * 1 * 1 1 1 1 , , * 1 3 = = = = = 3 = = 3 = 3 w 3 = = = = w w = = = w 3 3 3 ; 1 ; ; 1 , X 7 X , , g X 1 1 , * 1 , * 1 ",
", , 1 , , , 1 1 * , 1 1 * 1 1 1 1 1 * 1 1 1 , , * 1 , * * 1 , , = = , , 1 , , 1 1 1 * 1 1 * , 1 , , , , 1 , 1 1 1 * , 1 1 , 1 1 ",
"1 * 1 , 1 * 1 , 1 , , , , , , * , , , , , * * 1 , 1 , 1 , 1 1 * , 0 * 1 1 * 1 1 1 , , , , , , * , , , , 1 , * 1 , , , * * , * 1 ",
"1 1 1 * 1 * * , 1 , 1 * 1 , , 1 1 * , * , * , 1 , 1 1 1 , 1 1 1 1 * , 1 , * * , * , , * 1 * , 1 , 1 * , * , , , 1 , , 1 * 1 , 0 ",
", * 1 1 , , 1 1 * , 1 1 1 , * 1 1 1 , 1 1 1 , 1 1 1 , , * 1 , , 1 1 , 1 , 1 1 , 1 1 , 1 1 1 , 1 * 1 1 1 1 , * 1 1 * 1 1 , 1 0 , ",
", * , , 1 1 1 , 1 , 1 1 1 , 1 1 1 1 * 1 1 1 * 1 * 1 1 * , , 1 * , * 1 , 1 * , , 1 * , 1 1 1 , * , 1 1 * 1 1 * 1 1 1 * 1 , 1 1 1 ",
"1 1 1 1 , , * , 1 , * 1 * , , * 1 , , , * , , 1 , , , , * 1 1 1 , 1 1 , 1 1 1 1 1 , , 1 * 1 , 1 , 1 , , 1 , , , * , , 1 0 0 1 1 ",
"* 1 1 * 1 * * 1 * , , , , , , 1 * , , * , , , 1 1 , 1 1 , 1 1 1 1 1 1 * * 1 * , * , , , , , , 1 1 1 1 1 * , , * , , 1 1 1 1 1 1 ",
", 1 , , 1 , , 1 1 , * 1 1 * 1 1 1 1 , 1 1 1 , * 1 , * 1 , * 1 , , * 1 , , 1 1 , 1 1 1 * 1 1 , * 1 , , * 1 1 , 1 1 1 1 1 1 1 1 1 "
};
