/* XPM */
static char *_643294064275[] = {
/* columns rows colors chars-per-pixel */
"64 64 132 2 ",
"   c #AD9F72",
".  c #AEA073",
"X  c #AFA174",
"o  c #B2A173",
"O  c #B1A074",
"+  c #B2A175",
"@  c #B0A275",
"#  c #B3A274",
"$  c #B0A176",
"%  c #B1A376",
"&  c #B1A277",
"*  c #B3A276",
"=  c #B4A375",
"-  c #B4A377",
";  c #B3A576",
":  c #B2A477",
">  c #B5A476",
",  c #B6A577",
"<  c #B3A578",
"1  c #B3A479",
"2  c #B3A47B",
"3  c #B5A478",
"4  c #B6A579",
"5  c #B5A778",
"6  c #B4A679",
"7  c #B7A678",
"8  c #B4A57A",
"9  c #B5A77A",
"0  c #B7A67A",
"q  c #B8A779",
"w  c #B8A77B",
"e  c #B6A87B",
"r  c #B7A97C",
"t  c #B7A87D",
"y  c #B9A87A",
"u  c #BAA97B",
"i  c #B9A87C",
"p  c #BAA97D",
"a  c #B8AA7D",
"s  c #BBAA7E",
"d  c #BCAB7D",
"f  c #BDAC7E",
"g  c #BDAC80",
"h  c #BFAE82",
"j  c #C0AF81",
"k  c #C1B082",
"l  c #C2B183",
"z  c #C1B386",
"x  c #C4B387",
"c  c #C6B587",
"v  c #C7B786",
"b  c #C7B688",
"n  c #C7B68A",
"m  c #CBBA8C",
"M  c #CDBD8C",
"N  c #CEBE8D",
"B  c #CEBD8F",
"V  c #CCBE91",
"C  c #CFC192",
"Z  c #D2C291",
"A  c #D2C193",
"S  c #D6C695",
"D  c #D6C597",
"F  c #D5C498",
"G  c #D8C79B",
"H  c #D7C99C",
"J  c #D9C998",
"K  c #DAC99B",
"L  c #DBCB9A",
"P  c #DCCC9B",
"I  c #DBCA9C",
"U  c #DCCB9D",
"Y  c #DCCB9F",
"T  c #DDCD9C",
"R  c #DECE9D",
"E  c #DDCC9E",
"W  c #DECD9F",
"Q  c #DFCF9E",
"!  c #E0D09F",
"~  c #DECDA1",
"^  c #DFCEA0",
"/  c #DFD1A2",
"(  c #E0CFA1",
")  c #E0CFA3",
"_  c #E1D1A0",
"`  c #E2D2A1",
"'  c #E2D1A3",
"]  c #E4D3A5",
"[  c #E7D7A6",
"{  c #E8D8A7",
"}  c #E9D9A8",
"|  c #EADAA9",
" . c #E9D8AA",
".. c #EAD9AB",
"X. c #EBDBAA",
"o. c #ECDCA9",
"O. c #EDDDAA",
"+. c #ECDCAB",
"@. c #EEDEAB",
"#. c #E9DBAC",
"$. c #ECDBAD",
"%. c #EADCAF",
"&. c #EDDDAC",
"*. c #EFDFAC",
"=. c #EEDEAD",
"-. c #EDDCAE",
";. c #EEDDAF",
":. c #ECDEAF",
">. c #EFDFAE",
",. c #EDDFB0",
"<. c #EFDEB0",
"1. c #F0DFB1",
"2. c #F0E0AD",
"3. c #F1E1AE",
"4. c #F0E0AF",
"5. c #F2E2AF",
"6. c #EEE0B1",
"7. c #EFE1B2",
"8. c #EEE0B3",
"9. c #F1E1B0",
"0. c #F3E3B0",
"q. c #F2E2B1",
"w. c #F1E0B2",
"e. c #F2E1B3",
"r. c #F0E2B3",
"t. c #F3E3B2",
"y. c #F4E4B1",
"u. c #F1E3B4",
"i. c #F3E2B4",
"p. c #F4E3B5",
"a. c #F2E4B5",
"s. c #F5E4B6",
/* pixels */
"1 1 1 1 1 1 1 1 4 * ( ;.4.y.;.4.4.4.4.4.4.4.4.4.4.4.4.4.4.4.4.4.4.4.4.4.4.4.4.4.4.4.4.4.4.4.4.4.4.4.4.4.4.4.4.4.4.4.4.4.4.4.4.4.",
"1 1 1 1 1 1 1 1 4 4 ^ w.;.4.*.4.4.4.4.4.4.4.4.4.4.4.4.4.4.4.4.4.4.4.4.4.4.4.4.4.4.4.4.4.4.4.4.4.4.4.4.4.4.4.4.4.4.4.4.4.4.4.4.4.",
"1 1 1 1 1 1 1 1 4 i E p.*.4.;.0.4.4.4.4.4.4.4.4.4.4.4.4.4.4.4.4.4.4.4.4.4.4.4.4.4.4.4.4.4.4.4.4.4.4.4.4.4.4.4.4.4.4.4.4.4.4.4.4.",
"1 1 1 1 1 1 1 1 4 4 I s.*.w.*.w.4.4.4.4.4.4.4.4.4.4.4.4.4.4.4.4.4.4.4.4.4.4.4.4.4.4.4.4.4.4.4.4.4.4.4.4.4.4.4.4.4.4.4.4.4.4.4.4.",
"1 1 1 1 1 1 1 1 4 4 I i.*.0.*.w.4.4.4.4.4.4.4.4.4.4.4.4.4.4.4.4.4.4.4.4.4.4.4.4.4.4.4.4.4.4.4.4.4.4.4.4.4.4.4.4.4.4.4.4.4.4.4.4.",
"1 1 1 1 1 1 1 1 3 1 ' 7.7.w.*.*.4.4.4.4.4.4.4.4.4.4.4.4.4.4.4.4.4.4.4.4.4.4.4.4.4.4.4.4.4.4.4.4.4.4.4.4.4.4.4.4.4.4.4.4.4.4.4.4.",
"1 1 1 1 1 1 1 1 3 * ;.*.0.*.*.7.4.4.4.4.4.4.4.4.4.4.4.4.4.4.4.4.4.4.4.4.4.4.4.4.4.4.4.4.4.4.4.4.4.4.4.4.4.4.4.4.4.4.4.4.4.4.4.4.",
"1 1 1 1 1 1 1 1 3 3 s.;.w.*.;.w.4.4.4.4.4.4.4.4.4.4.4.4.4.4.4.4.4.4.4.4.4.4.4.4.4.4.4.4.4.4.4.4.4.4.4.4.4.4.4.4.4.4.4.4.4.4.4.4.",
"1 1 1 1 1 1 1 1 4 4 <.w.;.0.*.w.4.4.4.4.4.4.4.4.4.4.4.4.4.4.4.4.4.4.4.4.4.4.4.4.4.4.4.4.4.4.4.4.4.4.4.4.4.4.4.4.4.4.4.4.4.4.4.4.",
"1 1 1 1 1 1 1 1 4 3 <.i.;.4.*.*.4.4.4.4.4.4.4.4.4.4.4.4.4.4.4.4.4.4.4.4.4.4.4.4.4.4.4.4.4.4.4.4.4.4.4.4.4.4.4.4.4.4.4.4.4.4.4.4.",
"1 1 1 1 1 1 1 1 3 4 <.w.*.w.7.4.4.4.4.4.4.4.4.4.4.4.4.4.4.4.4.4.4.4.4.4.4.4.4.4.4.4.4.4.4.4.4.4.4.4.4.4.4.4.4.4.4.4.4.4.4.4.4.4.",
"1 1 1 1 1 1 1 1 3 i <.w.*.0.4.w.4.4.4.4.4.4.4.4.4.4.4.4.4.4.4.4.4.4.4.4.4.4.4.4.4.4.4.4.4.4.4.4.4.4.4.4.4.4.4.4.4.4.4.4.4.4.4.4.",
"1 1 1 1 1 1 1 1 4 i ;.w.*.w.4.4.4.4.4.4.4.4.4.4.4.4.4.4.4.4.4.4.4.4.4.4.4.4.4.4.4.4.4.4.4.4.4.4.4.4.4.4.4.4.4.4.4.4.4.4.4.4.4.4.",
"1 1 1 1 1 1 1 1 > f w.w.7.4.4.4.4.4.4.4.4.4.4.4.4.4.4.4.4.4.4.4.4.4.4.4.4.4.4.4.4.4.4.4.4.4.4.4.4.4.4.4.4.4.4.4.4.4.4.4.4.4.4.4.",
"1 1 1 1 1 1 1 1 4 h 7.w.4.4.0.4.4.4.4.4.4.4.4.4.4.4.4.4.4.4.4.4.4.4.4.4.4.4.4.4.4.4.4.4.4.4.4.4.4.4.4.4.4.4.4.4.4.4.4.4.4.4.4.4.",
"1 1 1 1 1 1 1 1 4 j w.w.*.4.4.4.4.4.4.4.4.4.4.4.4.4.4.4.4.4.4.4.4.4.4.4.4.4.4.4.4.4.4.4.4.4.4.4.4.4.4.4.4.4.4.4.4.4.4.4.4.4.4.4.",
"1 1 2 2 2 2 1 1 4 c *.w.4.w.<.w.4.4.4.4.4.4.4.4.4.4.4.4.4.4.4.4.4.4.4.4.4.4.4.4.4.4.4.4.4.4.4.4.4.4.4.4.4.4.4.4.4.4.4.4.4.4.4.4.",
"1 1 2 2 2 2 1 1 > M w.*.5.4.<.w.4.4.4.4.4.4.4.4.4.4.4.4.4.4.4.4.4.4.4.4.4.4.4.4.4.4.4.4.4.4.4.4.4.4.4.4.4.4.4.4.4.4.4.4.4.4.4.4.",
"1 1 1 2 2 2 1 1 > S 4.4.4.7.w.1.4.4.4.4.4.4.4.4.4.4.4.4.4.4.4.4.4.4.4.4.4.4.4.4.4.4.4.4.4.4.4.4.4.4.4.4.4.4.4.4.4.4.4.4.4.4.4.4.",
"1 1 2 2 2 1 1 1 > R ;.@.0.*.7.<.4.4.4.4.4.4.4.4.4.4.4.4.4.4.4.4.4.4.4.4.4.4.4.4.4.4.4.4.4.4.4.4.4.4.4.4.4.4.4.4.4.4.4.4.4.4.4.4.",
"1 1 2 2 2 2 1 1 * _ *.@.4.4.<.w.4.4.4.4.4.4.4.4.4.4.4.4.4.4.4.4.4.4.4.4.4.4.4.4.4.4.4.4.4.4.4.4.4.4.4.4.4.4.4.4.4.4.4.4.4.4.4.4.",
"1 1 2 2 2 2 1 1 > ` 7.@.4.w.<.w.4.4.4.4.4.4.4.4.4.4.4.4.4.4.4.4.4.4.4.4.4.4.4.4.4.4.4.4.4.4.4.4.4.4.4.4.4.4.4.4.4.4.4.4.4.4.4.4.",
"1 1 2 2 2 2 1 ; > ! 4.4.4.5.$.w.4.4.4.4.4.4.4.4.4.4.4.4.4.4.4.4.4.4.4.4.4.4.4.4.4.4.4.4.4.4.4.4.4.4.4.4.4.4.4.4.4.4.4.4.4.4.4.4.",
"1 1 2 2 2 1 1 1 > ! 4.5.;.y.;.w.4.4.4.4.4.4.4.4.4.4.4.4.4.4.4.4.4.4.4.4.4.4.4.4.4.4.4.4.4.4.4.4.4.4.4.4.4.4.4.4.4.4.4.4.4.4.4.4.",
"1 1 2 2 2 2 1 6 ; P 0.*.w.4.4.w.4.4.4.4.4.4.4.4.4.4.4.4.4.4.4.4.4.4.4.4.4.4.4.4.4.4.4.4.4.4.4.4.4.4.4.4.4.4.4.4.4.4.4.4.4.4.4.4.",
"1 1 2 2 2 2 1 1 1 _ w.*.4.4.w.w.4.4.4.4.4.4.4.4.4.4.4.4.4.4.4.4.4.4.4.4.4.4.4.4.4.4.4.4.4.4.4.4.4.4.4.4.4.4.4.4.4.4.4.4.4.4.4.4.",
"1 1 2 2 2 2 1 6 ; | w.O.y.4.1.1.4.4.4.4.4.4.4.4.4.4.4.4.4.4.4.4.4.4.4.4.4.4.4.4.4.4.4.4.4.4.4.4.4.4.4.4.4.4.4.4.4.4.4.4.4.4.4.4.",
"1 1 2 2 2 1 1 1 ; w.*.O.4.<.w.<.4.4.4.4.4.4.4.4.4.4.4.4.4.4.4.4.4.4.4.4.4.4.4.4.4.4.4.4.4.4.4.4.4.4.4.4.4.4.4.4.4.4.4.4.4.4.4.4.",
"1 1 2 2 2 2 1 ; * 0.4.O.5.4.w.1.4.4.4.4.4.4.4.4.4.4.4.4.4.4.4.4.4.4.4.4.4.4.4.4.4.4.4.4.4.4.4.4.4.4.4.4.4.4.4.4.4.4.4.4.4.4.4.4.",
"1 1 2 2 2 2 1 6 4 0.4.4.4.4.<.7.4.4.4.4.4.4.4.4.4.4.4.4.4.4.4.4.4.4.4.4.4.4.4.4.4.4.4.4.4.4.4.4.4.4.4.4.4.4.4.4.4.4.4.4.4.4.4.4.",
"1 1 2 2 2 2 1 1 3 ;.*.5.*.4.7.w.4.4.4.4.4.4.4.4.4.4.4.4.4.4.4.4.4.4.4.4.4.4.4.4.4.4.4.4.4.4.4.4.4.4.4.4.4.4.4.4.4.4.4.4.4.4.4.4.",
"1 1 2 2 2 2 1 6 4 ;.w.5.*.w.;.w.4.4.4.4.4.4.4.4.4.4.4.4.4.4.4.4.4.4.4.4.4.4.4.4.4.4.4.4.4.4.4.4.4.4.4.4.4.4.4.4.4.4.4.4.4.4.4.4.",
"1 1 2 2 2 2 1 < u *.5.5.;.w.;.<.4.4.4.4.4.4.4.4.4.4.4.4.4.4.4.4.4.4.4.4.4.4.4.4.4.4.4.4.4.4.4.4.4.4.4.4.4.4.4.4.4.4.4.4.4.4.4.4.",
"1 1 2 2 2 1 1 < > 4.4.4.*.*.;.w.4.4.4.4.4.4.4.4.4.4.4.4.4.4.4.4.4.4.4.4.4.4.4.4.4.4.4.4.4.4.4.4.4.4.4.4.4.4.4.4.4.4.4.4.4.4.4.4.",
"1 1 2 2 2 2 1 < 1 w.4.4.*.7.w.w.4.4.4.4.4.4.4.4.4.4.4.4.4.4.4.4.4.4.4.4.4.4.4.4.4.4.4.4.4.4.4.4.4.4.4.4.4.4.4.4.4.4.4.4.4.4.4.4.",
"1 1 2 2 2 2 1 < > 0.4.O.w.*.w.<.4.4.4.4.4.4.4.4.4.4.4.4.4.4.4.4.4.4.4.4.4.4.4.4.4.4.4.4.4.4.4.4.4.4.4.4.4.4.4.4.4.4.4.4.4.4.4.4.",
"1 1 2 2 2 2 1 1 4 *.w.@.0.*.w.<.4.4.4.4.4.4.4.4.4.4.4.4.4.4.4.4.4.4.4.4.4.4.4.4.4.4.4.4.4.4.4.4.4.4.4.4.4.4.4.4.4.4.4.4.4.4.4.4.",
"1 1 2 2 2 2 1 1 4 ..w.@.w.7.w.<.4.4.4.4.4.4.4.4.4.4.4.4.4.4.4.4.4.4.4.4.4.4.4.4.4.4.4.4.4.4.4.4.4.4.4.4.4.4.4.4.4.4.4.4.4.4.4.4.",
"1 1 2 2 2 2 1 1 4 _ 5.O.0.*.<.w.4.4.4.4.4.4.4.4.4.4.4.4.4.4.4.4.4.4.4.4.4.4.4.4.4.4.4.4.4.4.4.4.4.4.4.4.4.4.4.4.4.4.4.4.4.4.4.4.",
"1 1 2 2 2 1 1 1 ; T 0.*.4.w.<.w.4.4.4.4.4.4.4.4.4.4.4.4.4.4.4.4.4.4.4.4.4.4.4.4.4.4.4.4.4.4.4.4.4.4.4.4.4.4.4.4.4.4.4.4.4.4.4.4.",
"1 1 2 2 2 2 1 6 4 R *.y.*.w...i.4.4.4.4.4.4.4.4.4.4.4.4.4.4.4.4.4.4.4.4.4.4.4.4.4.4.4.4.4.4.4.4.4.4.4.4.4.4.4.4.4.4.4.4.4.4.4.4.",
"1 1 2 2 2 2 1 1 4 P ;.5.*.4.<.w.4.4.4.4.4.4.4.4.4.4.4.4.4.4.4.4.4.4.4.4.4.4.4.4.4.4.4.4.4.4.4.4.4.4.4.4.4.4.4.4.4.4.4.4.4.4.4.4.",
"1 1 2 2 2 2 1 < > E 4.4.+.7.i.<.4.4.4.4.4.4.4.4.4.4.4.4.4.4.4.4.4.4.4.4.4.4.4.4.4.4.4.4.4.4.4.4.4.4.4.4.4.4.4.4.4.4.4.4.4.4.4.4.",
"1 1 2 2 2 1 1 < = R 4.*.*.*.w.<.4.4.4.4.4.4.4.4.4.4.4.4.4.4.4.4.4.4.4.4.4.4.4.4.4.4.4.4.4.4.4.4.4.4.4.4.4.4.4.4.4.4.4.4.4.4.4.4.",
"1 1 2 2 2 2 1 6 = ^ 4.@.4.4.<.w.4.4.4.4.4.4.4.4.4.4.4.4.4.4.4.4.4.4.4.4.4.4.4.4.4.4.4.4.4.4.4.4.4.4.4.4.4.4.4.4.4.4.4.4.4.4.4.4.",
"1 1 2 2 2 2 1 1 > J 4.@.y.4.<.w.4.4.4.4.4.4.4.4.4.4.4.4.4.4.4.4.4.4.4.4.4.4.4.4.4.4.4.4.4.4.4.4.4.4.4.4.4.4.4.4.4.4.4.4.4.4.4.4.",
"1 1 2 2 2 2 1 < > B 4.2.w.4.<.<.4.4.4.4.4.4.4.4.4.4.4.4.4.4.4.4.4.4.4.4.4.4.4.4.4.4.4.4.4.4.4.4.4.4.4.4.4.4.4.4.4.4.4.4.4.4.4.4.",
"1 1 2 2 2 1 1 1 4 v 4.4.4.4.w.<.4.4.4.4.4.4.4.4.4.4.4.4.4.4.4.4.4.4.4.4.4.4.4.4.4.4.4.4.4.4.4.4.4.4.4.4.4.4.4.4.4.4.4.4.4.4.4.4.",
"2 2 1 1 1 1 1 1 6 e 7.#.7.6.6.7.;.4.1.w.w.w.w.1.w.1.1.1.w.<.w.w.w.w.w.w.1.1.w.w.;.;.<.w.w.w.w.w.;.4.4.4.*.*.w.*.7.*.*.*.*.*.7.w.",
"2 2 1 1 1 1 1 1 X < / 6.6.6.7.#.4.w.1.;.1.1.;.4.1.1.1.w.w.w.<.w.<.w.w.4.1.1.1.7.w.w.w.w.;.<.<.w.4.y.4.4.w.7.*.w.4.w.w.w.0.7.4.4.",
"2 2 1 1 1 1 1 1 e ; h 6.7.7.7.7.4.w.4.4.4.4.4.4.w.*.4.w.y.w.4.4.4.4.4.4.;.4.4.0.4.*.4.4.4.4.4.4.4.4.4.4.0.0.0.0.4.4.*.*.*.*.4.*.",
"2 2 1 1 1 1 1 1 6 6 X H %.7.%.a.4.4.4.@.;.;.4.y.;.@.*.4.4.4.4.4.y.y.4.4.4.;.4.4.4.w.0.4.5.w.4.4.4.4.@.;.*.w.;.;.4.w.4.0.0.w.*.w.",
"2 2 1 1 1 1 1 1 < a . X C 8.7.6.@.*.4.4.4.5.4.O.5.5.2.2.2.@.@.@.@.@.O.5.y.5.y.4.4.4.O.@.O.4.4.4.@.;.1.w.p.;. .' ^ ( E E ^ ^ E ^ ",
"2 2 1 1 1 1 1 1 6 . 6 r 6 a C 7.@.4.4.@.@.O.4.4.4.4.<.<.4.2.5.5.w.4.4.2.4.O.*.@.0.5.0.5.y.4.2.@..._ F m l f u w > > 4 4 4 > 4 > ",
"1 1 1 1 1 1 1 1 6 : 6 6 X 6 6 < n A / { ;.4.w.*.4.*.7.4.4.4.1.<.w.w.4.4.w.w.w.4...[ _ R A c d > = 3 4 4 4 4 * * 4 > 3 3 ; 4 > 4 ",
"1 1 1 1 1 1 1 1 & r X 6 < a X 6 = > > o o q a e f l n V D L Y Y ^ ^ _ E F B c f i 4 4 o 4 > w e 4 3 3 * = * = 4 * 4 3 3 3 4 > 1 ",
"1 1 1 1 1 1 1 1 1 1 1 1 1 1 1 1 1 6 1 1 1 < 1 6 1 1 1 6 1 1 1 1 1 1 1 1 1 1 1 1 1 1 1 1 1 1 1 1 1 1 1 1 1 1 1 1 1 1 1 1 1 1 1 1 ",
"1 1 1 1 1 1 1 1 1 1 1 1 1 1 1 1 1 1 1 1 1 1 1 1 1 1 1 1 1 1 1 1 1 1 1 1 1 1 1 1 1 1 1 1 1 1 1 1 1 1 1 1 1 1 1 1 1 1 1 1 1 1 1 1 ",
"1 1 1 1 1 1 1 1 1 1 1 1 1 1 1 1 2 2 2 2 1 2 2 2 1 2 2 2 1 2 2 2 1 2 2 2 2 2 1 2 2 2 2 2 1 2 2 2 1 1 1 1 1 1 1 1 1 1 1 1 1 1 1 1 ",
"1 1 1 1 1 1 1 1 1 1 1 1 1 1 1 1 2 2 2 2 2 2 2 2 2 2 2 2 2 2 2 2 2 2 2 2 2 2 2 2 2 2 2 2 2 2 2 2 1 1 1 1 1 1 1 1 1 1 1 1 1 1 1 1 ",
"1 1 1 1 1 1 1 1 1 1 1 1 1 1 1 1 2 2 2 2 2 2 2 2 2 2 2 2 2 2 2 2 2 2 2 2 2 2 2 2 2 2 2 2 2 2 2 2 1 1 1 1 1 1 1 1 1 1 1 1 1 1 1 1 ",
"1 1 1 1 1 1 1 1 1 1 1 1 1 1 1 1 2 2 2 2 2 2 2 2 2 2 2 2 2 2 2 2 2 2 2 2 2 2 2 2 2 2 2 2 2 2 2 1 1 1 1 1 1 1 1 1 1 1 1 1 1 1 1 1 ",
"1 1 1 1 1 1 1 1 1 1 2 2 2 2 2 2 1 1 1 1 1 1 1 1 1 1 1 1 1 1 1 1 1 1 1 1 1 1 1 1 1 1 1 1 1 1 1 1 1 1 1 1 1 1 1 1 1 1 1 1 1 1 1 1 ",
"1 1 1 1 1 1 1 1 1 1 2 2 2 2 2 2 1 1 1 1 1 1 1 1 1 1 1 1 1 1 1 1 1 1 1 1 1 1 1 1 1 1 1 1 1 1 1 1 1 1 1 1 1 1 1 1 1 1 1 1 1 1 1 1 "
};
