/* XPM */
static char *_643294198957[] = {
/* columns rows colors chars-per-pixel */
"64 64 119 2 ",
"   c #3A1700",
".  c #361C00",
"X  c #3B1E00",
"o  c #372100",
"O  c #3D2302",
"+  c #3E2901",
"@  c #3E2308",
"#  c #401F00",
"$  c #412403",
"%  c #422A05",
"&  c #492D07",
"*  c #422608",
"=  c #442A0A",
"-  c #4A2D0A",
";  c #463009",
":  c #4B330C",
">  c #4F380F",
",  c #52340E",
"<  c #4F3912",
"1  c #543511",
"2  c #543A14",
"3  c #5D3B16",
"4  c #5E3D19",
"5  c #603E19",
"6  c #574119",
"7  c #5C421B",
"8  c #63431F",
"9  c #5F4520",
"0  c #624B23",
"q  c #6A4C26",
"w  c #654F28",
"e  c #6C4C29",
"r  c #66532B",
"t  c #6D522C",
"y  c #73552D",
"u  c #7A562F",
"i  c #75592E",
"p  c #79592F",
"a  c #6F5531",
"s  c #6B5830",
"d  c #755631",
"f  c #7B5632",
"g  c #765B32",
"h  c #7B5A33",
"j  c #755F38",
"k  c #7E5D38",
"l  c #7B6135",
"z  c #7B6239",
"x  c #815B35",
"c  c #825C39",
"v  c #806337",
"b  c #81643B",
"n  c #846A3E",
"m  c #846C44",
"M  c #8C7144",
"N  c #8B744D",
"B  c #8E784F",
"V  c #92764E",
"C  c #93784D",
"Z  c #967A52",
"A  c #987F57",
"S  c #938056",
"D  c #9B865B",
"F  c #A0855A",
"G  c #A18A62",
"H  c #A69061",
"J  c #A89064",
"K  c #AB946D",
"L  c #B0976F",
"P  c #B89B6F",
"I  c #AF9970",
"U  c #B59D75",
"Y  c #B99E72",
"T  c #BEA376",
"R  c #BBA37B",
"E  c #BEA87F",
"W  c #C0A578",
"Q  c #C4A97C",
"!  c #C4AC83",
"~  c #C3B086",
"^  c #C8B585",
"/  c #CCB58C",
"(  c #CEB88E",
")  c #D2B78C",
"_  c #D1BB8C",
"`  c #CEB791",
"'  c #CEBB93",
"]  c #D2BB93",
"[  c #D8BF96",
"{  c #D5BD99",
"}  c #D4C196",
"|  c #DAC197",
" . c #DDC69C",
".. c #DFC89C",
"X. c #E2C99C",
"o. c #DEC6A0",
"O. c #DFC9A0",
"+. c #E3CBA1",
"@. c #E7D6A6",
"#. c #EDD4A7",
"$. c #EBD5AB",
"%. c #E7D9AA",
"&. c #EDDCAC",
"*. c #F2DEAE",
"=. c #EFD7B1",
"-. c #EFDDB1",
";. c #F1DEB2",
":. c #F6DFB8",
">. c #EEE0AF",
",. c #F0E0AF",
"<. c #EEE0B1",
"1. c #F3E1B3",
"2. c #F9E3B5",
"3. c #F6E8B7",
"4. c #F7E4B9",
"5. c #F9E4B9",
"6. c #FAEAB9",
"7. c #FCE4C0",
"8. c #FFEAC4",
/* pixels */
"*.,.,.,.*.,.,.,.&.,.*.2.$.4.;.:.:.*.;.&.1.>.,.,.,.,.,.,.-.<.>.>.>.>.&.,.1.,.,.,.,.1.>.1.>.,.,.,.1.&.;.*.1.;.-.<.<.<.,.&.,.,.,.>.",
",.*.,.,.>.,.,.,.,.>.1.,.;.1.5.$.;.;.$.1.>.,.,.,.,.,.,.,.1.<.>.>.1.>.>.1.>.,.,.,.,.,.&.,.,.,.,.>.&.&.5.&.<.<.-.1.1.>.,.,.,.,.>.>.",
",.,.,.,.,.,.,.,.,.&.,.,.1.K o 0 @.;.3.&.,.>.,.,.*.,.,.,.<.<.>.>.>.,.,.,.,.>.,.1.*.,.,.,.,.,.1.*.1.1.$.} S } -.1.&.>.,.,.,.,.,.,.",
",.,.,.,.,.,.,.>.&.3.,.,.r + o % + 5.$.1.1.>.,.,.1.*.,.;.<.<.>.>.,.,.,.,.,.*.>.>.>.>.1.,.,.,.>.>.&.<.> o + + ~ -.1.>.,.,.,.,.,.,.",
",.,.,.,.,.,.,.1.1.&.=.4.o o + + + D 1.&.&.,.&.>.*.*.1.;.-.<.>.>.1.,.1.,.,.,.,.1.1.>.,.,.1.,.,.<.-.% + o + O w -.,.*.,.*.,.,.,.,.",
",.,.,.,.,.,.,.,.<.-.-.-.% % + o + ; 1.1.,.,.>.>.,.*.&.1.1.,.>.>.>.,.&.,.1.&.,.>.,.&.,.,.>.,.,.*.^ ; O + o o ; -.*.,.*.,.,.,.,.,.",
"&.*.,.,.,.,.,.,.1.-.4.-.+ . + + % o *.&.,.>.>.>.,.;.;.-.>.,.>.>.>.,.,.,.1.,.,.,.1.>.,.,.&.,.>.;.I + o + + + % =.*.*.,.*.,.&.,.,.",
",.,.,.,.,.,.,.,.-.1.;.;.+ + o o $ o @.&.,.,.>.1.;.1.*.1.>.,.>.>.,.,.>.*.>.,.>.,.,.,.,.,.>.1.1.&.R O O O @ o + -.*.*.*.,.,.,.,.,.",
",.,.,.,.,.,.,.,.1.;.:.;.X O O O O o ] $.1.>.<.>.-.1.1.;.,.,.>.>.,.1.>.*.1.>.>.>.,.&.,.,.,.,.,.1./ * % o X + O ;.*.*.,.*.,.*.,.,.",
",.,.,.,.,.,.,.,.1.;.:.;.O O $ o X + ) *.1.>.>.>.<.-.*.,.,.,.,.>.,.,.,.>.,.,.*.,.,.1.>.1.,.,.1.-.+.O O O O + o ;.*.:.*.*.*.,.,.,.",
",.,.,.,.,.,.,.,.;.1.;.;.o O O O o % ! ;.1.&.<.>.1.&.,.*.,.,.,.,.,.,.,.,.,.,.>.1.,.,.,.,.,.,.&.1.;.X X $ O + O :.:.*.*.1.,.,.,.,.",
",.,.,.,.,.,.*.*.1.-.;.;.O + @ O X + U ;.&.&.1.>.-.1.*.,.*.,.,.,.1.&.1.,.,.,.,.,.1.,.,.,.>.1.>.*.:.O O * o + o ;.;.;.*.,.,.,.,.,.",
",.,.,.,.,.,.,.&.;.;.;.;.$ O O O O + G ;.1.>.<.>.<.;.;.1.*.,.,.,.>.>.,.,.,.,.>.&.>.>.>.,.,.,.,.;.;.O $ o O + + :.-.1.,.,.,.<.<.<.",
",.,.,.,.,.,.,.,.*.*.=.;.$ + X O O o N -.;.1.<.&.;.<.1.&.,.*.,.,.,.,.>.1.,.,.1.,.>.*.>.1.,.,.>.;.:.X O + $ o o ;.;.;.,.,.,.>.<.<.",
",.,.,.,.,.,.,.,.*.*.;.:.$ + @ $ $ @ m -.1.-.1.>.1.-.;.-.*.,.&.1.,.,.1.,.,.,.*.,.,.1.&.,.1.>.,.1.:.O O O + o + O.;.;.,.1.<.&.<.<.",
",.,.,.,.,.,.,.,.*.1.*.:.% $ X O @ o z -.1.-.>.,.-.<.*.1.;.,.1.-.,.,.>.&.1.>.>.,.,.,.,.,.>.*.,.;.;.O $ o X + + / ;.;.,.,.>.>.<.<.",
",.,.;.>.,.,.,.,.&.1.;.:.& o + O o + s -.4.-.1.&.&.1.-.1.1.-.-.1.,.,.,.>.,.,.>.&.1.<.-.-.;.<.-.=.=.$ O = . + O / -.;.,.>.,.,.,.,.",
"*.,.<.;.,.,.,.,.;.;.:.;.: + O O * . r =.-.<.*.%.*.-.;.<.:.<.<.-.,.,.,.1.,.,.1.1.>.<.1.4.1.<.1.:.:.% X O $ $ $ / ;.>.,.>.,.,.,.,.",
",.*.<.<.,.&.,.,.1.&.:.;.7 + o O o = 6 ;.1.*.2.2.;.;.;.;.-.;.:.-.,.,.;.;.1.;.;.*.1.1.-.=.=.<.;.;.;.o $ o $ O . ` ;.,.,.>.,.,.,.,.",
"*.,.;.*.,.1.,.,.;.;.:.;.m O O + o + 2 4.5.;.#.1.:.;.;.;.;.;.-.4.;.;.;.;.;.-.:.;.-.:.4.4.=.;.;.:.7.X X = X O + / :.*.,.>.,.,.,.,.",
"&.1.1.-.1.,.,.,.;.;.:.;.U o + O % o > 5.$.*.#./ ) / / / / / ( / ] / ( / / ) / / ` ` / ! ! R G N a $ O X $ + O R *.,.,.>.,.,.,.,.",
"1.<.-.1.>.>.,.,.*.;.*.$./ X O O o o - . % $ o + o O + o O o + O O O O + O O + o o + + @ o + O X O X O = X O + G *.,.,.>.,.,.,.,.",
"-.<.>.&.,.,.,.1.*.1.;.;.] o O O $ O X O o $ X $ O O O $ + O O + O O O O O O O o X O @ $ O O o O O $ $ o # % X z ;.1.,.>.,.,.,.,.",
"<.;.1.,.,.>.*.>.;.;.:.:.` + + o X $ $ $ + O O @ X @ X O O O O X O O O O O O O O * + o O O O $ $ O O o * $ X O 6 ;.*.,.>.,.,.,.>.",
";.&.1.>.,.,.,.,.,.,.,.2.+.X $ + X $ O $ $ X * * X X X @ X O O O O $ * X $ # * * @ O $ $ # $ $ X $ O X = $ o O ; :.*.>.>.*.,.1.&.",
"-.1.,.>.,.,.,.,.,.,.*.2.$.+ O o $ $ # X X X X X * @ @ @ @ * + * $ X X * * X X . $ $ X X O $ $ X + o * X X $ + + ;.-.1.>.>.,.,.>.",
">.>.,.,.,.,.&.,.*.:.*.:.:.$ O o @ X * * + * O * X @ X @ X @ O X O O X X O $ $ $ O $ $ O X o O $ @ O @ X * * O % ;.-.;.>.,.,.1.-.",
",.1.,.,.,.,.&.,.*.*.*.*.5.o O + @ # $ X X O O X @ X O @ O O O O O O O + O O O o O o + O O $ + X O O . - . X * + :.;.-.>.,.>.-.1.",
",.,.,.,.,.,.,.,.*.*.;.;.:.. $ + O X @ * + . $ + O + O O + O O + o + + o O o + + + + o o . + + O . = O @ X $ X + ;.<.-.>.,.>.;.;.",
",.,.,.,.>.,.,.,.*.*.2.;.;.o % o @ * X . + % + # o + O $ + $ O + % = ; < 7 r j m B G U E E ! ! / R X . @ * O O + :.-.1.>.1.>.;.>.",
",.,.,.,.,.,.,.,.&.*.1.:.:.O $ O O X K 8.;.#.*.:.;.;.*.:.;.:.;.:.;.;.-.:.-.-.=.-.4.;.;.1.;.1.;.:.` . * X @ O $ . ;.;.;.>.,.>.-.1.",
"1.&.1.>.,.,.,.,.,.1.-.;.;.O O O + O K =.;.5.*.*.*.*.*.:.;.;.;.-.-.;.4.-.:.;.1.-.;.-.;.-.;.1.;.;.{ + O @ X + o + ;.*.;.>.,.>.1.-.",
"*.,.,.,.&.,.,.,.<.<.-.;.;.O O $ O O K *.*.*.*.*.*.;.;.;.&.-.;.;.1.;.;.;.;.*.*.:.;.*.;.*.*.*.*.*.] o . * O o $ + $.$.3.%.,.*.,.*.",
",.*.,.&.,.,.,.,.>.1.-.1.=.O $ O $ O N :.5.*.*.*.*.*.*.*.<.1.1.1.;.;.*.*.*.*.*.*.*.*.:.:.*.*.*.2.] + O o @ $ O + / 3.>.1.2.*.*.*.",
",.,.,.,.,.,.,.>.>.<.-.5.:.$ X $ O o y 5.#.:.*.*.;.*.=.:.1.;.;.;.2.;.;.*.*.,.:.:.*.*.*.*.*.2.:.#.] o = o . O $ o ~ ;.;.1.&.,.2.&.",
",.,.&.,.,.,.>.>.&.3.$.;.:.O $ X $ % $ #.5.*.;.*.X.[ R Z b b z y g g h g h i p p j g g h x n P [ ] O o $ * $ O O ` $.&.&.,.,.&.&.",
",.,.,.>.>.>.>.>.<.>.1.-.4.o O + O + X O.G m g z h j g f f f g h g d g g h l j h g g g g j h h h e X * #   $ # O Q 5.*.,.,.,.,.>.",
",.,.>.>.>.>.>.>.1.>.1.-.:.$ + O o $ * 9 j l y h d k h h k x h f k g y q q q w t t 8 4 7 2 - % % - $ # * # * X $ / ;.2.*.,.>.>.>.",
">.>.>.>.>.>.>.*.;.;.$.5.-.+ O O X O o = y 8 3 , & $ $ $ $ # # $ O O $ $ $ $ $ O X $ $ X X O $ $ X X $ * X * # O y ! *.*.,.,.>.,.",
",.>.>.>.>.&.1.*.;.;.+.N d $ o O * $ O $ O $ $ $ $ $ $ # $ $ $ $ O # X X $ $ O $ X $ $ $ $ $ O O $ $ $ X * # X $ d h v X.&.,.3.&.",
",.&.,.&.,.@.2.,.=.V x f d $ X + @ $ * # $ # O $ $ X $ O O O o o O O O O X $ O O $ O O O $ O @ X + @ O @ O @ O $ g k y l X.*.*.2.",
",.,.2.,.&.6.,.#.f x f u h X O O @ # # # $ O X O O O O @ O O + + $ O O O O O O O O O O O O $ + @ o O O @ @ $ $ $ k d k f v #.*.*.",
",.2.*.,.,.,.#.x e x f x f $ * $ $ # # $ $ # $ O + @ O @ o O O o O * @ @ @ O X O O O @ X O X X O o O O O o o O $ k h k f u P *.:.",
",.,.,.&.2.@.n x x x x f k @ . X X * * X O $ O O o @ O o O O O + o X O O O @ * @ @ @ @ @ O @ @ @ O o @ O * o o $ k f f h u M *.*.",
",.,.,.,.,.,.p p x u x x k # * $ O @ $ O O O O O @ O @ @ @ o O O O O O O O O O O X o o O O O O X = O O o O @ O $ h h h p v n 2.*.",
"2.,.,.>.*.Q p v x u x x f % o O o O O @ O O O O @ X o @ O @ O $ @ O $ O O O O O O $ $ @ $ O @ X X $ * @ X o O @ f x x y v F 1.,.",
",.2.,.,.,.^ p p x x x c   - . o @ O + o O O O O # * # * $ $ $ # $ $ $ X $ $ $ $ O X # $ O $ $ # # # * * X @ $ $ k d v y l +.1.>.",
",.,.,.,.,.&.p p f x x f 8 X + $ o @ O O O O # $ * # # # $ X # $ # O # $ $ $ $ $ & - - - - 1 2 4 8 # . * * o O O f h p z Q 1.<.>.",
",.2.&.1.#.5.n v x h h d e # $ $ X @ @ $ $ , 1 5 3 5 5 3 5 8 q q f h h h h h f h h x x h h f h f k $ # # O O $ o y z i _ #.,.6.&.",
",.@.1.&.*.#.*.x u p h l e $ # $ * . * X t h d h f h x u p h h h p u u u u p h x h u u x x x x h f . * # $ $ . 2 z z | *.,.@.*.,.",
"<.>.1.1.&.2.&.#.b l k d e $ $ # X = O # e f c h u x h x x h p p h x x h x h p u h u p h u x x h h $ # X $ & X k T 5.&.2.&.3.&.*.",
"<.3.,.&.2.*.2.,.;.T y z y o $ O $ * # $ e k f h u u u u x p p p u u u u x p x h u x x x p u p p h $ $ $ X > ~ #.;.&.&.&.*.*.&.1.",
"&.>.,.2.,.&.>.,.1.$.2.K j > o $ X . & # f h x u x x x p x p l x x x h u p p h h h p p p p p x p h 7 $ $ Y $.:.;.*.,.,.,.1.1.1.&.",
"1.&.&.,.,.,.6.>.1.1.;.;.*. .B & O & # $ h h g x p p p x p p p p u p p h h h h p g x x h u x h b H ..=.5.;.:.*.1.2.&.,.>.&.1.&.1.",
",.,.&.,.2.@.>.>.<.%.;.;.:.*.*.*.:.L A V h h p p p p p p x p p p u g h h h p p y k x n F ! +.=.*.2.*.*.;.;.:.:.1.,.2.,.,.>.<.&.<.",
"*.,.2.,.,.,.,.>.>.1.;.;.*.;.*.;.=.;.5.;.1.;.*.#.Q W W W W T Y Y Y Y Y W ! ) | X.*.*.*.1.;.*.*.1.,.,.*.2.;.1.&.;.*.,.>.,.1.&.<.<.",
"*.*.*.,.,.>.>.>.>.>.>.>.*.*.;.;.*.*.;.*.;.*.;.*.*.:.*.*.*.;.*.*.*.*.*.*.*.:.*.*.;.*.*.;.,.*.,.1.*.,.*.>.1.-.-.1.,.,.,.,.>.>.>.>.",
"*.*.,.*.*.,.>.>.>.>.1.,.*.,.*.*.,.,.;.1.*.*.,.*.*.*.*.*.*.*.*.*.*.*.;.*.*.*.*.*.,.>.*.,.,.,.,.,.>.*.,.1.&.1.<.,.,.,.,.,.>.>.>.>.",
",.*.*.,.,.,.,.*.>.,.,.,.*.*.*.*.,.>.,.,.,.*.,.*.*.*.,.*.*.,.*.1.*.*.*.*.*.,.2.*.1.&.,.>.,.>.&.>.,.,.,.,.<.;.-.,.,.,.,.,.,.,.*.*.",
"*.,.,.*.,.*.,.>.,.,.1.&.,.1.,.,.>.>.>.>.,.1.,.,.2.*.*.,.1.,.,.,.*.1.,.,.,.,.,.,.>.>.>.<.1.>.<.>.>.,.,.>.;.<.-.1.,.,.,.,.,.>.*.,.",
",.*.*.,.,.,.;.;.;.;.,.,.,.<.,.>.>.>.>.>.>.>.<.>.*.>.>.>.1.&.<.<.>.-.>.>.,.>.>.&.>.>.-.>.<.>.>.<.>.>.>.>.<.<.<.<.,.,.,.,.,.,.,.;.",
"*.*.,.,.>.,.;.1.;.1.,.>.,.>.>.>.>.>.>.>.>.>.>.>.*.>.-.<.<.-.1.-.>.>.>.<.>.>.,.>.>.>.>.>.>.>.>.>.>.>.-.>.<.<.<.<.,.,.,.,.,.,.,.>.",
">.>.,.,.,.,.-.;.,.;.,.,.>.>.>.>.>.,.,.,.1.&.,.,.;.<.1.-.-.1.&.;.,.1.,.,.,.,.,.,.,.,.,.&.,.,.&.,.>.>.<.<.<.<.>.&.,.,.,.,.,.,.,.,.",
">.>.>.,.,.>.1.1.&.1.>.>.>.>.>.>.>.,.,.,.,.,.<.&.1.&.1.<.;.<.1.;.>.>.,.,.,.>.1.,.>.1.,.1.,.,.1.,.>.>.<.<.>.>.>.>.,.,.,.,.,.,.,.,."
};
