/* XPM */
static char *_643294190910[] = {
/* columns rows colors chars-per-pixel */
"64 64 208 2 ",
"   c #7C1B26",
".  c #732528",
"X  c #7F392A",
"o  c #6E2327",
"O  c #655816",
"+  c #4B6C00",
"@  c #486900",
"#  c #596309",
"$  c #516C01",
"%  c #497200",
"&  c #64750F",
"*  c #686D1D",
"=  c #774825",
"-  c #88182F",
";  c #9A0A3E",
":  c #96073B",
">  c #8B1134",
",  c #8D1F3C",
"<  c #96193C",
"1  c #A0003C",
"2  c #A0143B",
"3  c #8B2D35",
"4  c #892839",
"5  c #93223D",
"6  c #9B233D",
"7  c #9A2A3D",
"8  c #952E3D",
"9  c #883536",
"0  c #91323A",
"q  c #A3243F",
"w  c #85442E",
"e  c #8A7F2D",
"r  c #896F36",
"t  c #9D0343",
"y  c #9B0A44",
"u  c #9F0249",
"i  c #9A1845",
"p  c #A30344",
"a  c #A30B45",
"s  c #A9024C",
"d  c #A40B49",
"f  c #AB0B4C",
"g  c #A4034A",
"h  c #B10A4F",
"j  c #B00E47",
"k  c #A31C45",
"l  c #A41448",
"z  c #AD144D",
"x  c #A51B4C",
"c  c #AB1B4C",
"v  c #A81845",
"b  c #B2144F",
"n  c #B21A4B",
"m  c #AE0753",
"M  c #AD0C53",
"N  c #B30D54",
"B  c #B90C56",
"V  c #B40D59",
"C  c #BB0D5B",
"Z  c #B20753",
"A  c #AC1551",
"S  c #AE1950",
"D  c #AE175A",
"F  c #B41254",
"G  c #BA1256",
"H  c #B11953",
"J  c #B5125A",
"K  c #BC145D",
"L  c #B31A59",
"P  c #BC1A5C",
"I  c #8F2C40",
"U  c #9C2245",
"Y  c #9B2B43",
"T  c #972644",
"R  c #9D374A",
"E  c #A4214A",
"W  c #A82449",
"Q  c #B7215B",
"!  c #A43152",
"~  c #B4305F",
"^  c #BB1461",
"/  c #BA1762",
"(  c #BC2A62",
")  c #BA3061",
"_  c #C0175C",
"`  c #C50F64",
"'  c #CE276F",
"]  c #D43A7A",
"[  c #9C424C",
"{  c #985741",
"}  c #A2514E",
"|  c #B04B5B",
" . c #A65C5B",
".. c #8E7243",
"X. c #9A7643",
"o. c #A06249",
"O. c #A66E51",
"+. c #B75E60",
"@. c #B84A66",
"#. c #B86468",
"$. c #D54B7F",
"%. c #C86270",
"&. c #CB747A",
"*. c #6D8B1D",
"=. c #6C941A",
"-. c #6A971A",
";. c #72931E",
":. c #6F8E26",
">. c #7C8E25",
",. c #758B2B",
"<. c #7A8827",
"1. c #6F9325",
"2. c #739324",
"3. c #7F912B",
"4. c #779824",
"5. c #7C8A36",
"6. c #828233",
"7. c #838A34",
"8. c #88873A",
"9. c #9C803F",
"0. c #819433",
"q. c #838728",
"w. c #898545",
"e. c #96A845",
"r. c #AFAC67",
"t. c #E23B81",
"y. c #DB4B80",
"u. c #E74A8F",
"i. c #D97783",
"p. c #E66792",
"a. c #FF5CA1",
"s. c #FF64A6",
"d. c #FF7DB3",
"f. c #FF70B2",
"g. c #E2878E",
"h. c #EE8E99",
"j. c #EB919B",
"k. c #EFA29C",
"l. c #E2BC8B",
"z. c #FF84B9",
"x. c #FF97BC",
"c. c #F58FA7",
"v. c #EDADA3",
"b. c #FCB5AC",
"n. c #FFB1A7",
"m. c #FFA5BE",
"M. c #F9B2B0",
"N. c #D3D987",
"B. c #CAD382",
"V. c #E5E59C",
"C. c #E8E69C",
"Z. c #E9E99C",
"A. c #E6E899",
"S. c #F4CFAF",
"D. c #EAD7A7",
"F. c #EADCA6",
"G. c #ECD6AB",
"H. c #E6DEAC",
"J. c #EDDDAC",
"K. c #F2D5AE",
"L. c #F2DEAE",
"P. c #F4DAAA",
"I. c #FACEB3",
"U. c #FFC6BE",
"Y. c #FFCDBC",
"T. c #FEC3B6",
"R. c #EEDDB2",
"E. c #F3D4B3",
"W. c #FBD3B5",
"Q. c #F2DEB2",
"!. c #FADAB5",
"~. c #F6D6B9",
"^. c #FED3BC",
"/. c #F4DCB9",
"(. c #FBDDBB",
"). c #E6E3A5",
"_. c #EAE3A4",
"`. c #EDE1AD",
"'. c #E9E9A7",
"]. c #F0E4A6",
"[. c #F0E0AF",
"{. c #F6E6AA",
"}. c #EDE1B2",
"|. c #F3E3B3",
" X c #F9E1B3",
".X c #F9E9B6",
"XX c #FBE1B9",
"oX c #F3E0B8",
"OX c #FF86C0",
"+X c #FF96C9",
"@X c #FF92D5",
"#X c #FFA4C6",
"$X c #FFACC4",
"%X c #FFBBC4",
"&X c #FFAED3",
"*X c #FFBADD",
"=X c #FFBDD3",
"-X c #FFB4E3",
";X c #FFC4C4",
":X c #FFCCC5",
">X c #FFC4CB",
",X c #FFCBCD",
"<X c #FFD3C3",
"1X c #FFD9C2",
"2X c #FFD4CA",
"3X c #FFDCCA",
"4X c #FFCFD1",
"5X c #FFC7D4",
/* pixels */
"[.[.[.[.|.`.L.[.[.[.[.[.[.[.[.[.[.|.J.[.[.[.[.[.[.[.[.[.[.[.[.[.`.`.`.`.L.`.}.}.Q.Q.}.|.Q.R.Q.|.J.[.[.[.[.[.[.[.[.[.[.[.[.|.`.L.",
"[.[.[.[.[.[.`.Q.[.[.[.[.[.[.[.[.[.[.[.[.L.|.[.J.|.J.[.[.[.[.[.[.`.`.`.`.`.R.`.R.}.L.Q.R.|.[.[.Q.[.[.[.[.[.[.[.[.[.[.J.|.[.[.Q.`.",
"[.[.[.[.[.[.[.[.[.[.`.[.[.[.[.[.J.[.[.[.`.[.[.|.|.[.|.J.[.[.[.[.L.[.[.[.[.L.|.L.[.[.L.[.L.`.Q.[.[.[.[.[.[.[.[.[.[.J.[.[.|.J.`.L.",
"[.[.J.|.[.J.|.[.[.[.Q.[.[.[.[.[.|.[.[.[.[.[.[.[.J.[.[.[.[.[.[.[.[.[.[.[.[.}.L.`.[.[.[.[.`.L.`.Q.[.[.[.[.[.[.[.[.[.|.[.[.`.|.J.|.",
"[.|.|.`.L.[.J.[.|.J.`.Q.[.[.|.J.[.[.[.[.[.[.[.[.[.[.|.J.[.[.[.[.Q.`.J.|.L.J.[.L.`.J.[.[.[.[.`.`.[.[.L.`.Q.[.[.[.|.[.[.J.L.[.[.[.",
"[.J.[.[.[.[.|.[.`.|.L.`.[.[.[.[.[.[.[.[.[.[.[.[.[.[.[.[.[.[.`.Q.Q.Q./.Q.|.L.L.[.L.L.].L.[.[.[.`.[.[.`.|.[.[.Q.`.J.[.[.|.`.Q.[.[.",
"[.|.J.[.[.|.J.[.L.}.`.L.[.[.[.[.[.[.[.[.[.[.[.[.|.[.[.[.|.[.[.R./.}.Q.Q.L.[.L.[.[.].].[.`.`.`.[.[.[.[.[.[.[.[.[.[.[.[.[.[.[.[.[.",
"[.[.[.[.[.[.[.[.[.L.|.[.[.[.J.|.[.[.[.[.[.[.[.[.`.L.[.[.J.[.[.|./.Q.Q.Q.[.L.[.L.[.L.L.[.[.J.R.`.|.J.[.[.[.[.[.[.[.[.[.[.[.[.[.[.",
"[.[.[.[.`.L.J.|.[.`.[.[.|.[.[.[.[.[.[.[.[.[.[.[.[.[.[.[.[.[.[.|.J.|.|.R.|.[.[.L.L.L.`.|.`.}.R.}.[.[.[.[.[.[.[.[.|.`.`.Q.[.[.[.[.",
"[.[.[.[.Q.`.|.L.J.|.[.[.J.[.|.[.[.[.[.[.[.[.[.[.[.[.[.[.[.[.[.[.}.}.J.|.oXJ.J.|.L.Q.`.R.}.R.}.`.[.[.[.[.[.Q.`.[.`.L.L.`.[.[.[.[.",
"[.[.[.[.`.Q.[.[.|.L.}.[.`.|.J.[.[.[.[.[.[.[.[.[.[.[.[.[.[.[.[.`.`.|.J.}.`.F..XJ.Q.[.Q.Q.R.|.J.}.[.[.[.[.[.[.[.[.Q.|.J.|.[.[.[.[.",
"[.[.[.[.[.[.[.[.L.`.L.[.L.[.[.[.[.[.[.[.[.[.[.[.[.[.[.[.[.[.[.`.{.).).F.`.}.J.|.|.R.|.R.Q.Q.|.`.[.[.[.[.[.[.[.[.`.L.|.J.[.[.[.[.",
"[.[.[.[.[.[.[.[.[.[.[.[.`.L.|.J.[.[.[.[.[.[.L.`.[.[.[.[.[.[.[.[.).'.`.'.}.{.F.`.J./.|.R.[.Q.[.[.[.[.[.|.[.[.[.[.[.[.[.[.[.[.[.[.",
"[.[.[.[.[.[.[.[.`.[.[.[.Q.`.`.|.[.[.[.[.[.[.}.|.[.[.}.L.[.[.[._.V.A.e r.'.'.|.`.[.}./.J.Q.[.[.[.[.[.[.J.[.[.[.[.[.[.[.[.}.[.[.[.",
"[.[.[.`.[.[.`.Q.|.J.}.L.|.J.L.}.[.[.[.[.[.[.|.J.`.L.[.[.[.[.[.`.A.7.8.8.).)._.[.Q.Q.L.Q.[.[.L.L.[.[.[.[.[.[.`.L.L.|.[.[.[.[.[.[.",
"[.[.[.Q.[.}.L.`.L.|.L.`.L.|.`.L.[.[.}.}.R.L.L.L.}.}.}.`.[.[._._.7.<.<.7.C.`.`.J.`.}.R.|.Q.L.[.[.[.J.|.[.Q.`.Q.`.|.J.[.[.[.[.[.[.",
"[.[.[.[.[.[.[.[.[.`.L.|.J.[.[.[._.[.}.}./.Q.L.[.}.}.}.}.'.'.C.6.>.;.>.<.A.].J.Q.`.}.}.}.Q.L.L.L.[.[.[.[.[.[.[.[.[.[.[.[.[.[.[.[.",
"[.[.[.[.|.J.|.[.[.[.[.[.[.[.[.[.].`.}.}.R.|.L.[.}.`.H.'.).'.<.0.>.4.2.3.A._. XJ.}.`.R.}./.!.].].[.[.[.[.[.[.[.[.[.[.[.[.[.[.[.[.",
"[.[.[.[.|.[.J.[.[.[.[.[.[.[.[.[.[.L.J./.Q.Q.[.L. XL.L.`.'.3.0.*.=.2.*.3.A.].G.XX}.|./.Q./.!.[.`.[.[.[.[.[.[.[.[.[.L.[.[.Q.`.`.|.",
"[.[.[.[.`.[.[.[.[.[.[.[.|.J.[.[.].L.Q.Q.Q.L.L.].P.P.L._.B.,.2.2.=.=.2.2.Z.]. XQ.}.R.}.R.Q.L.[.`.[.[.[.[.`.[.[.[.[.[.[.[.`.L.|.J.",
"[.[.[.[.L.`.L.|.[.[.[.[.[.[.[.[.[.L.Q.Q.}.`.[.]. X X]._.5.:.4.=.-.=.2.e.C.J.P.Q.}.}.`.'.`.L.[.L.[.[.[.[.[.[.[.[.L.`.[.[.L.[.[.[.",
"[.[.[.[.`.Q.|.J.[.[.[.[.[.[.[.[.[.[.Q./.}.`.].P.F.`.V.N.,.1.% % =.;.q.N.{.L.!.(.R.}.}.}.`.[.].L.[.[.[.[.[.[.[.[.`.|.[.[.}.[.[.[.",
"[.[.[.[.[.Q.J.|.[.[.[.[.[.[.[.[.].L.}.}.`.`.[._.`.`.`.5.:.1.+ + q.q.q.{.P.^.^.1X^./.}.R.[.[.`.`.[.[.[.[.[.[.[.[.Q.`.|.J.[.[.[.[.",
"|.[.[.[.[.`.L.`.[.[.[.[.[.[.[.[.L.L.R.}.`.[.L.L.}.}.).5.0.@ $ & q.9.l.= T.:X>X>X:X^.^.!.Q.J.`.}.[.[.[.[.[.[.[.[.|.L.L.[.[.[.[.[.",
"J.[.[.|.`.L.`.L.|.J.|.`.[.L.}.[.`.[.`.}.J.L. XP.(.Q.J.w.* # # 8.X.o.n.0 Y i E T I j. .^.E./.R.}.|.[.[.J.[.[.[.[.J.|.[.[.[.[.[.[.",
"[.[.[.J.|.[.Q.`.J.|.`.L.[.[.[.[.F.|./.|.H. X!.W.1XY.W...O O r X.O.0 m.k l z H c ; Y 4 M.1X/./.R.R.[.[.|.[.[.[.[.|.J.[.[.[.[.[.[.",
"`.L.[.[.[.[.[.[.[.[.Q.[.[.[.[.[.|.|.|.G.XX!.W.:X+.3 9 w = r O.{ 5 k S H L J F p a E Y  .<XE.R.oX}.L.[.[.[.[.Q.[.`.Q.[.[.[.[.[.}.",
"Q.`.|.[.[.J.|.[.[.[.[.[.[.[.[.[.[.J. X!.!.(.<X#.q q 7   b.= X 3 2 n f G h G F p t ) T &.^.(.R.}.}.`.[.[.[.[.`.[.L.`.[.[.[.[.[.[.",
"`.L.[.[.[.[.[.[.[.[.[.[.[.[.[.[.[.F.!.K.(.W.U.0 2 n 2 > %.h.7 #Xc F C ^ s.F H ; y p.I %X1XP.J.[.L.[.[.[.[.[.[.[.J.|.Q.`.[.[.[.[.",
"J.|.[.[.[.[.J.|.[.[.[.[.[.[.|.J.[.}.Q.!.!.^.4XT n n n : #X6 k c h h C N s.z l x x U #X>XY.P..XF.[.[.[.[.[.[.[.[.|.L.`.L.[.[.[.[.",
"|.`.L.[.[.[.[.[.[.`.Q.[.[.[.[.`.`.`.|.Q.S.3X%X-XH J s.D l y.L Z C _ s m A z.d.i y.i @.>X^.!.[.`.`.[.[.[.[.[.[.Q.J.|.|.`.[.J.[.[.",
"J.|.`.Q.[.[.[.[.[.[.[.[.[.[.[.}.`.|.R.(.<X .Y ) D J J F J F C C V C m t L A z.Q ( x T [ ^.!.H.|.[.[.[.[.[.[.[.`.L.`.[.[.[.|.[.L.",
"[.[.[.[.`.|.[.[.|.[.[.[.|.[.J.`.H.|./.<XR E b F u ^ / Z m u N C V / g p G ` B B Z M U 4 <X(.!.L.L.L.[.[.[.[.[.L.`.|.[.[.[.|.J.[.",
"[.[.[.[.L.[.[.J.J.[.[.[.J.[.[.|.[.}.XXU.q n G B g g N P m s N V D M t F B C ` C s t U #.^./.P.XXL.|.[.[.[.[.[.[.|.J.[.L.[.[.[.[.",
"[.[.[.[.`.Q.[.|.[.[.L.`.[.[.[.L.Q.!.~.:X8 2 j p t M F N f ; _ N a.] f.F V B C C u i 4 ;X1XR.Q.Q.L.[.[.[.[.[.[.[.J.[.[.`.[.[.[.|.",
"[.[.[.[.[.[.[.[.[.[.|.[.[.[.`.Q.!.XX~.<Xg.q W : : ] h G F N f G F M G f V ^ V ^ t y c.:X1X|.Q.P.Q.[.[.[.[.[.[.[.|.J.[.|.[.[.[.J.",
"[.|.J.[.[.[.|.[.|.[.[.[.[.[.[.L.J.J.XX^.:X#.3 R *X-XQ A J D d.+XG Z z u f N ^ J p ) @.U.Y.XXQ.|.`.[.[.[.[.[.[.[.[.[.[.[.|.[.[.[.",
"[.[.[.[.[.[.J.[.J.[.|.[.[.[.[.`.oXL.oX/.W.^.:X>X=XU H z y t L D F P d y f M G V F c < } ^.G.J.|.[.[.[.[.[.[.|.[.[.[.[.[.J.[.`.|.",
"[.[.[.|.|.J.[.[.`.|.J.[.[.[.|.L.L.P.|.`.|.!.Y.:Xi.W c f A y p V F V t t t.J K t p v 7 k.I.oXoX).`.[.[.[.[.|.J.[.[.[.[.[.[.[.L.`.",
"[.[.[.J.[.[.[.[.L.[.[.[.|.[.J.L.P.{.F.).).|.!.^.g.6 v H d y d G ] K t @Xu.M N d : U 3 Y.XX|.J.}.R.[.[.[.[.[.[.[.[.[.[.[.[.[.[.Q.",
"|.J.[.[.[.[.`.Q.[.[.[.|.J.[.[.[.L.L.L.].].F.L.!.:X8 < c ; ; x H _ _ Z _ ' G J u < I ;X^.!.|.[.F.[.[.Q.`.[.[.[.Q.|.J.L.`.Q.|.J.|.",
"[.[.[.[.[.[.[.[.J.|.[.[.[.[.[.[.L. XL.`.L.`.|.!.<X;X| 5 5 ! &Xl F B s 1 G G N z +X,X<X1XQ.D.L.L.L.[.[.[.[.[.[.`.[.[.`.|.`.L.|.J.",
"[.`.L.[.[.[.[.[.[.[.|.[.[.L.[.R.}.}.}.}.`.`.J./.W.^.:X2X,X,X>XT c b 1 2 z c H x 5 >X3XG.Q. XP..X|.J.[.[.[.[.`.L.[.J.[.[.[.[.`.L.",
"[.|.`.Q.[.[.[.[.[.[.J.[.|.`.[.}.}.}.}.}.}.}.`.|.oXE.(.~.1X<X:X9 5 < > > x.i k > . ;X^.!. XL.oXH.[.[.[.[.[.[.|.J.[.|.[.[.[.[.Q.`.",
"[.[.|.[.[.[.[.[.[.[.L.[.[.[.L.`.}.}.Q.Q.R.Q.`.}.`. XJ.|.Q.(.S.^.b.9 . ,X>XI I   . 2XW.L.L.L.}.|.`.J.|.L.Q.`.L.|.[.[.[.[.[.[.[.[.",
"[.[.J.[.[.[.[.[.[.[.`.[.[.[.[.`.`.[.Q.Q./.|.|.J.J.L.H.[. XR.Q.(.<X<XY.<X2X:Xo . v.^.Q.`.F.{.}.H.}.|.L.`.`.L.|.J.[.[.[.[.[.[.[.[.",
"[.|.[.[.[.[.[.[.[.[.[.[.[.[.[.[.`.[.[.L.Q.Q.R.L.L.{.J.{.J.[.J.Q.!.!.(.~.1X<X2XT.^.E.`.`. XJ.|.}.}.[.}.L.|.`.J.|.[.[.[.[.[.}.[.[.",
"L.`.J.|.[.[.[.[.[.[.[.[.[.[.[.[.L.].L.[.Q.Q.Q.L.{.P. XF.].`.|.J.Q.!.!.|.R./.~.1X!.XXH.'.F.{.J.}.[.[.[.[.[.[.[.L.[.[.[.[.[.[.[.[.",
"`.L.|.J.[.[.[.[.[.[.[.[.[.[.[.[.[.[.L.[.[.[.L.|.L.L.L.`.[.[.`.Q.L.L.[.Q.Q.Q.Q.Q.Q.Q.`.`.[.[.J.|.[.[.[.[.`.L.`.[.[.[.`.Q.[.[.[.[.",
"Q.`.J.|.Q.`.[.[.[.[.[.[.[.[.[.[.L.`.`.[.[.[.J.|.J.|.[.[.[.[.L.`.|.[.[.[.[.[.Q.[.[.}.L.[.[.[.[.[.[.[.[.[.|.[.Q.[.[.[.[.[.[.[.[.[.",
"[.[.|.`.}.L.J.|.[.[.[.[.[.[.}.[.`.Q.[.[.[.[.[.[.[.[.[.[.[.[.[.[.L.[.[.[.[.[.[.[.[.[.[.[.[.[.[.[.[.[.[.[.[.[.[.[.[.[.[.[.[.[.[.[.",
"[.Q.`.L.L.`.|.L.[.[.[.[.[.[.[.[.L.`.|.[.[.[.[.[.[.[.[.[.[.[.[.[.[.[.[.[.[.[.[.J.[.[.[.[.[.[.[.[.[.[.J.|.[.J.|.[.[.[.[.[.[.[.[.[.",
"[.[.|.J.[.[.Q.`.L.`.|.L.[.[.[.[.[.[.[.[.`.L.|.`.[.[.[.[.[.[.[.[.[.[.[.[.[.[.[.|.[.[.[.[.[.[.[.J.|.J.`.L.[.[.[.[.J.|.L.`.[.|.J.[.",
"[.[.[.[.[.[.`.L.}.|.J.[.[.[.[.[.[.[.|.J.L.|.J.L.[.[.[.[.[.[.[.[.[.[.[.[.[.[.[.[.[.[.[.[.[.[.[.|.[.[.|.[.[.[.J.|.|.J.|.Q.[.[.[.[.",
"[.[.[.[.|.[.[.`.L.`.[.[.[.[.[.[.|.J.[.[.}.L.L.}.[.[.[.[.[.[.[.[.[.[.[.[.[.[.[.[.[.[.[.[.L.`.[.[.[.J.[.[.[.J.[.[.`.L.L.`.[.[.[.|.",
"[.[.[.[.J.[.[.|.J.|.[.[.[.[.[.[.[.[.[.[.[.[.`.|.[.[.`.Q.[.[.[.[.[.[.[.[.[.[.[.[.[.[.[.[.|.[.[.J.[.|.[.[.[.|.[.[.Q.`.`.|.[.[.[.J.",
"|.[.[.J.[.[.[.[.|.L.`.L.}.[.[.[.|.J.[.[.|.J.|.J.[.[.[.[.[.[.Q.`.[.[.J.[.[.|.J.[.[.[.[.[.[.[.[.|.[.[.[.[.|.`.L.`.[.[.[.[.[.[.[.[.",
"J.[.[.|.[.[.[.[.L.`.Q.`.[.[.[.[.[.[.[.[.[.[.L.`.[.[.[.Q.[.[.[.L.[.[.|.[.[.[.[.[.[.[.[.[.J.|.[.[.}.[.[.[.J.L.}.|.[.[.[.[.|.J.|.[.",
"[.[.[.[.[.[.[.[.}.`.|.L.[.[.[.[.[.[.[.[.[.|.`.Q.[.[.[.`.[.[.|.`.[.|.J.[.[.[.[.[.[.[.[.[.[.[.[.[.[.[.[.[.|.L.|.J.[.[.[.[.`.|.J.[.",
"[.[.[.[.[.[.[.[.L.[.J.|.[.[.[.[.[.[.[.[.[.[.L.`.[.[.[.[.[.[.[.[.[.[.[.[.[.[.[.|.[.[.[.[.[.[.|.J.[.[.L.}.L.`.L.`.[.[.[.[.L.[.[.[.",
"[.L.`.Q.[.[.[.[.[.[.[.[.[.[.[.[.[.[.[.[.`.|.[.[.[.[.[.[.[.[.|.[.[.[.|.[.[.`.L.|.}.[.[.[.|.[.[.[.[.[.[.[.[.|.`.Q.[.[.[.[.`.L.|.J.",
"|.`.L.`.[.[.[.[.[.[.[.[.[.[.[.[.[.Q.[.[.L.[.[.J.[.[.[.[.[.[.J.[.[.L.`.[.[.[.[.J.L.`.[.[.J.[.[.[.[.[.[.[.[.[.L.`.[.[.[.[.Q.`.J.|.",
"L.`.|.J.Q.[.[.[.[.[.[.[.`.L.L.|.L.`.|.J.`.Q.[.|.[.J.[.[.J.[.[.[.[.[.[.[.[.[.[.|.|.L.[.J.[.[.[.[.[.[.[.[.J.[.[.[.[.[.[.[.[.[.|.`.",
"`.|.J.|.`.[.[.[.[.[.Q.`.Q.`.|.J.`.|.J.|.L.`.[.[.[.|.[.[.|.[.[.J.|.[.J.|.[.[.[.J.[.[.[.|.[.[.[.[.[.[.[.[.|.[.[.[.J.|.[.[.[.Q.`.L."
};
