/* XPM */
static char *_643294163740[] = {
/* columns rows colors chars-per-pixel */
"64 64 214 2 ",
"   c #0B0000",
".  c #130000",
"X  c #1B0000",
"o  c #1F0D09",
"O  c #260000",
"+  c #2B0000",
"@  c #200C00",
"#  c #330000",
"$  c #3C0000",
"%  c #301D17",
"&  c #440000",
"*  c #4B0000",
"=  c #530000",
"-  c #5B0000",
";  c #660000",
":  c #6F0000",
">  c #7C0000",
",  c #43311B",
"<  c #652A24",
"1  c #53472F",
"2  c #6D4126",
"3  c #970402",
"4  c #B50E00",
"5  c #BF1307",
"6  c #AF1E1B",
"7  c #B91B18",
"8  c #92331D",
"9  c #B8210C",
"0  c #AF231E",
"q  c #A92818",
"w  c #BD251C",
"e  c #B7271A",
"r  c #951C23",
"t  c #B11B23",
"y  c #BC1F24",
"u  c #B01E2B",
"i  c #A61F25",
"p  c #892D22",
"a  c #992E26",
"s  c #91392F",
"d  c #A72721",
"f  c #B42324",
"g  c #BA2221",
"h  c #BE2A21",
"j  c #B53135",
"k  c #CD0E09",
"l  c #DD0D05",
"z  c #DC0C0B",
"x  c #D90A08",
"c  c #CD150B",
"v  c #C41A0C",
"b  c #CC1A0D",
"n  c #CB1307",
"m  c #D3140A",
"M  c #DC120C",
"N  c #D2190E",
"B  c #DB150A",
"V  c #DB0A17",
"C  c #CD1414",
"Z  c #C81D13",
"A  c #CB151C",
"S  c #C11D1B",
"D  c #C71B18",
"F  c #D21414",
"G  c #D11C14",
"H  c #D91619",
"J  c #CA0E1C",
"K  c #E50504",
"L  c #ED0504",
"P  c #E40B05",
"I  c #EC0A06",
"U  c #ED0609",
"Y  c #E30C0B",
"T  c #EB0C0A",
"R  c #E7060A",
"E  c #F40302",
"W  c #FC0201",
"Q  c #F40A02",
"!  c #FE0904",
"~  c #F3050A",
"^  c #FD0609",
"/  c #F30C09",
"(  c #FB090C",
")  c #E2110D",
"_  c #E50B14",
"`  c #EA0A16",
"'  c #F20811",
"]  c #E31311",
"[  c #E61915",
"{  c #C0210E",
"}  c #C42212",
"|  c #CB2714",
" . c #D4291B",
".. c #D22716",
"X. c #CC371F",
"o. c #D1321D",
"O. c #C21C25",
"+. c #CA1524",
"@. c #D61920",
"#. c #C12320",
"$. c #C43321",
"%. c #C73925",
"&. c #C82832",
"*. c #CF3E3B",
"=. c #E02F29",
"-. c #854329",
";. c #AE4F39",
":. c #B54B3D",
">. c #D3402E",
",. c #DC4A36",
"<. c #D5553B",
"1. c #CA483A",
"2. c #E84C3D",
"3. c #E0563C",
"4. c #B4514B",
"5. c #A65A4D",
"6. c #D55F43",
"7. c #D15149",
"8. c #EB454D",
"9. c #E8574B",
"0. c #F26B53",
"q. c #F36C5D",
"w. c #F6775C",
"e. c #E8664C",
"r. c #E75A60",
"t. c #FF7F69",
"y. c #F97C62",
"u. c #FF747F",
"i. c #9A866B",
"p. c #DB856C",
"a. c #F78B6E",
"s. c #FF896C",
"d. c #FF876D",
"f. c #FF8874",
"g. c #FE9B7C",
"h. c #FC9676",
"j. c #E78771",
"k. c #FFA07E",
"l. c #CF8788",
"z. c #D39C88",
"x. c #FF9D86",
"c. c #DDAA8E",
"v. c #D3AF9F",
"b. c #FFA083",
"n. c #FFAD8D",
"m. c #FBA689",
"M. c #EEA690",
"N. c #FFAB94",
"B. c #FFB594",
"V. c #FEBA9C",
"C. c #F9B699",
"Z. c #EDB795",
"A. c #FFAEAD",
"S. c #FFBEA2",
"D. c #FFBEB6",
"F. c #ECC59E",
"G. c #FFCB9E",
"H. c #D9C8AF",
"J. c #FFC4A3",
"K. c #FFCBA4",
"L. c #FFC4AC",
"P. c #FFCCAA",
"I. c #EAD6A9",
"U. c #ECDDAC",
"Y. c #EBDCAB",
"T. c #FFD2A6",
"R. c #F5DDA5",
"E. c #F4D5AD",
"W. c #FED4AB",
"Q. c #F3DDAE",
"!. c #FDDAAC",
"~. c #FFC5B5",
"^. c #EDDDB1",
"/. c #EEDEBA",
"(. c #FFD4B2",
"). c #F2DEB2",
"_. c #FCDBB3",
"`. c #FCD3B9",
"'. c #F3DCBC",
"]. c #F8D7B5",
"[. c #E7E1AB",
"{. c #EDE1AD",
"}. c #F0E0AF",
"|. c #FAE1AD",
" X c #F0E1A6",
".X c #EDE1B2",
"XX c #F3E2B3",
"oX c #FAE2B4",
"OX c #F4E4B9",
"+X c #F6EAB9",
"@X c #D9C8C1",
"#X c #EDCDC2",
"$X c #FFCBC5",
"%X c #FED5C6",
"&X c #FFD9D2",
"*X c #FFDAD9",
"=X c #FFD2D6",
"-X c #EBE0C4",
";X c #FFE2DB",
":X c #FFEBD7",
">X c #FFDEE5",
",X c #FFE4E3",
"<X c #FFECE4",
"1X c #FFE4E9",
"2X c #FFECED",
"3X c #FFF3EE",
"4X c #FFFCED",
"5X c #FFF8E7",
"6X c #FFEAF4",
"7X c #FFF2F3",
"8X c #FFFAF5",
"9X c #FFF4FA",
"0X c #FEFCFC",
"qX c #F3F7F8",
/* pixels */
"}.}.}.}.{.}.}.}.}.}.XXU.}.}.}.Q.Q.Q.Q.Q.}.}.{.).).).'.).).).).^.).Q.|.R.!.]..X.X{.{.{..XXX}.}.}.}.}.}.}.}.}.}.}.}.}.}.}.}.}.}.{.",
"}.}.}.}.Q.XXXXU.}.}.}.}.}.}.Q.XX).Q.).Q.}.}.{.Q.).).).).).).).XX).Q.R. X_.]..X.X[.{..XXX).}.}.}.}.}.}.}..XQ.}.}.}.}.}.}.}.}.}.).",
"}.}.}.}.XXU.XX}.}.}.}.}.}.}.{..X.X.X.XU. X}.}.{.^.).).).Q.}.}.{..X{. X X).)..X.X[.{..X^.).Q.}.{.{.}.}.}.Q.{.}.}.}.}.}.}.}.}.}.}.",
"}.}.}.}.{.Q.{.}.}.}.}.}.}.}.}.^..X.X.X.XQ.}.{.}..XQ.).).}.}.{.{..X.X{. X)./..X.X{.{..X).).Q.{.{.{.}.}.}.XX}.}.}.}.}.}.}.}.}.}.}.",
"XXU.}.}.}.XX}.}.}.}.}.}.}.}.}..X.X.X.XQ.}.}.{.{.{.{. X}.}.}. X{..X[. X}.XX).).).{.{.XX).).).{.{.U.}.}.}.}.}.}.}.}.}.}.}.}.}.}.}.",
"}.}.}.}.}.U.}.}.}.}.}.}.}.}.Q..X/..X).Q.|. X X{.[.{.}.}.Q. X}.}..X{.{.{.^.).).).{.{.).).Q.{.{.{.}.}.}.}.}.}.}.}.}.}.}.}.}.}.}.}.",
"}.}.}.}.}.}.}.}.}.}.}.}.}.}.}.).XX)._.!.|.}. X[.{.{.}.}.Q.Q.Q.}.XX}.{.}.).).).).}.Q._.).Q..X.X{.{.}.}.}.}.}.}.}.XXU.}.}.}.}.}.}.",
"}.}.}.}.}.}.}.}.}.}.}.}.}.}.}..X).).Q.Q.Q.}.{.{.[.{.|.}.!.Q.Q.}.XX).Q.Q.).)._.).Q.Q.).).{.{.{.U.}.}.}.}.}.}.}.}.}.}.}.}.}.U.XX}.",
"}.}.}.}.}.).Q.XX}.}.}.}.}.}.}.Q.).).U.}.}. X[.[..XU.).Q.oX'.E.XXU.XX^.oX[..X.X.X).).Q.)..X{.Q.XX}.U.}.}.}.}.}.}.}.}.{.Q.{.XXQ.{.",
"}.}.}.}.}.{.{.}.}.}.}.}.}.}.{..X.X{.}.{.{.{. X{.Y.).)./.).).OX^.).XX^.^.+X.X[.{.).Q.Q.Q.{.{.).{.}.XX}.}.}.U.XX}.}.}.XX}.XXU.}.}.",
"}.}.}.}.}.}.}.}.}.}.}.}.}.}.Q..X}.}.{.{.{. X}.}.XXXX^.OX^.OX.X^.).).^.OX.X{.[.XX).).{.{.Q.).Q.).}.}.}.}.}.}.}.}.}.}.}.}.}.}.XXU.",
"}.}.}.}.}.}.}.}.}.}.}.}.}.}.}.}.Q.}.}.}.}.}.Q.}.Y..X.X^.^.I.XXoXP.].E.o I.[.+XY.XX).{.{.Q.Q.)..X}.}.}.}.}.}.}.}.}.}.}.}.}.}.}.}.",
"}.}.}.XX}.}.}.}.}.}.}.}.}.}.}.Q.Q.).Q.Q.Q.).Q.Q.XX^..X.X}.|.!.P.P.`.2 X F.!.R.Y.).).{.{.}.Q.).).}.}.}.}.}.}.}.}.}.}.}.}.}.}.}.}.",
"}.}.}.U.}.}.}.}.}.}.}.}.}.}.}..XQ.Q.U.XXQ.Q._.).)..X[.[.oXG.K.x.7.:.+ + C.(._.).).).}.{.}.Q.XXU.}.}.}.}.}.}.}.}.XX}.}.}.}.}.}.}.",
"}.}.}.}.}.}.}.}.}.}.}.}.}.}.}.}.).XX)..XXX).).)..X[..XXXG.(.<.w 7 t $ + ;.n.T.Q.'.).}.Q.|.}.{..X.X{.}.XXXXU.Q.XX{.Q.}.}.}.}.}.}.",
"}.}.}.}.U.XX}.}.}.}.}.}.}.}.}.}..X^..X.XQ.).Q.Q..X}.oXT.K.e.v F A y & $ q q g.W.(._.Q.Q.Q.Q..X.XU.Q.{.}.}.}.{.U.XX{.}.}.}.}.U.XX",
"}.}.}.}.}.}.}.}.}.}.}.}.}.}.}.}.).XX).'.).}.}. X XQ.!.P.q.b z x +.u * * } n } k.P._.oXQ.Q.}.[..XXX.XQ.{.}.XX{.).{.XX}.}.XX}.}.}.",
"}.}.}.}.}.}.XX}.}.}.}.}.XX}.}.}..X^.).).).).}.{.Y.Q.W.j.w C [ F t : = > F P l ..V.K.(._.Q.oXU.U.{.Q.U.XX}.}.Q.{.}.U.}.}.Q.{.}.}.",
"}.U.}.}.Q.XX{.Q.}.}.}.}.U.}.}.}.{.{.).).).XX}.}.).`.~.s i y 6 d * * - h ) ~ / k *.J.P.(.!.R.XXXX}.}.XX{.}.}.}.}.}.}.}.}.}.}.}.}.",
"}.XX}.}.{.U.XX{.{.Q.{.}.}.}.}.{.{.{.{.).Q.Q.).).'.%X< # * * & & $ & ; C R E E T N t.P.P.!.Q.Q.Q.Q.}..XQ.}.}.}.}.}.}.}.}.}.U.XX}.",
"}.}.}.U.}.U.}.}.}.}.}.}.}.}.}.}.{. X}.}.).).)./.-X  X X O O + # & - A ] ~ W E ~ l } V.W._.oXY.}.{.XX}.}.}.}.XXU.}.}.}.}.}.}.}.}.",
"}.}.}.XX}.XX}.}.}.}.}.}.}.}.}.}. X X}.Q.Q.).oX#X1     o . X + $ ; 7 z ~ Q W W W T N 9.L.W.Q.Q.}.XXU.}.}.}.}.{.Q.}.}.}.}.}.}.}.}.",
"}.}.}.}.}.}.}.}.}.}.}.}.}.}.{.}.{.{.}.Q.].)._.%X,   @X8X7Xl.r y @._ / E ! E W E Q l 9 V.W.Q.Q.}.}.}.}.}.}.}.}.}.}.XX}.}.}.U.}.}.",
"}.}.}.}.}.}.}.}.}.}.}.}.}.}.Q.}. X}.Q.Q.!.).).OXH.4X7X8X2X,X&.V ` ~ W W W E W W Q P b 0.J._.|.Q.Q.{.}.}.}.}.}.}.Q.{.}.}.}.XX}.}.",
"}.}.}.XX}.}.}.}.}.}.}.}.}.}.}.}.}.|.Q.Q.).).).H.5X4X8X8X3X,X8.V ~ ~ W W W E W W W L l } S.T.!.Q.Q.}.}.}.}.}.}.}.{.).}.}.}.}.}.}.",
"}.}.Q.{.}.}.}.}.}.}.XX}.}.}.}.}.}.Y.Q.Q.Q.OX].i.5X4X0X8X5X,X8._ ~ W W W W W W W W E I N y.P.W.!.}.}.}.U.}.}.}.}.XX{.}.}.}.}.}.}.",
"}.}.{.).XXU.}.}.Q.XX{.Q.U.XXXXU.{.XXQ.Q.^.).].v.8X0XqX0X7X,X&._ ~ Q W W W W W W W W Q M %.S.W.Q.Q.}.}.XX}.}.).{.Q.XX}.}.U.XX}.}.",
"}.U.XX{.}.}.}.}.{.{.).{.XX{.Q..X{.XXY.}.OXE.z.*X3X0X0X0X3X,X7 _ L W W W W W W W W W W I Z N.T.Q.}.}.}.}.}.}.{.Q.{.U.}.}.}.}.}.}.",
"}.}.}.}.}.}.}.}.U.XX}.}.}.}.}.{.U.XXY.XXQ.(.5.,X7X0X0X0X7X*XA R E W W W W W W W W W W L B t.T.Q.}.}.}.}.}.}.}.XX}.}.}.}.}.}.}.}.",
"}.}.}.{.}.}.}.}.}.}.}.}.}.}.}.}..X.X}.}.!.(.s <X7X0X0X9X2X$XF I W W W W W W W W W W ! L P 2.W.Q.Q.}.}.}.}.}.}.{.}.}.}.}.}.}.}.}.",
"}.}.}.Q.}.}.}.}.}.}.}.}.}.XXU.}.XX).Y.E._.Z.p ,X3X8X9X7X>X*.B L E W W ~ W W W W W E E E P  .K.!.Q.}.}.}.}.}.Q.{.}.}.}.}.XX}.}.}.",
"}.}.}.XXXXU.}.}.}.}.}.}.}.}.}.}.).).oX!.P.p.d &X<X3X7X1Xr.C l Q W W W ~ W W W W W E E Q L b B.W.Q.}.}.}.}.).{.XX}.}.}.}.U.}.}.}.",
"}.}.}.}.}.}.}.}.Q.}.}.}.}.}.}..X[.}.Q.!.P.1.7 2.%X&X=Xu._ K Q E W W W W W W W W W W W W L m g.K.!.{.}.}.}.}.XX}.}.}.XXU.}.}.}.}.",
"}.}.}.}.}.}.}.}..X}.}.}.}.}.}.{.XXY.}.K.L.h 5 v Z =.@.V ~ ^ W ! W W W W W W E W W W W W ~ z s.K.!.Q.}.}.}.}.U.}.}.}.}.}.}.}.}.}.",
"}.}.}.}.}.XX}.}.}.}.}.}.}.}.}.Q.}.oX!.W.N.0 w 5 k M _ ' E E E E W W W W W W W W W W W W ( M 3.K.!.}.}.}.}.}.}.}.}.}.}.}.}.}.}.}.",
"{.XX}.}.}.U.}.}.}.}.}.}.}.}.}.U._._.].W.x.d %X$XA x K ( E E W Q W W W W W W E W W W W W / z X.K.W.}.}.}.}.}.}.}.}.}.}.}.XX}.}.}.",
"Q.U.XXQ.}.}.XX}.}.}.}.}.}.}.}.XX^.).E.(.f.f *X*X9.H ~ W W Q W W W W W W W W W W W W W E E Y | J.W.XX}.Q..X}.}.}.XX}.}.}.}.{.XXQ.",
"{.XX}.{.}.}.U.}.}.}.}.}.}.}.}.).XXXX_.(.q.f 4.*X*X7 K W E E W W W W W W E W W W W W W W E P | S.W.{.}.}.}.}.}.}.U.}.}.}.{.Q.^.{.",
"}.}.}.XX}.}.}.}.}.}.}.}.}.}.}.}.}.R.!.K.,.6 D.<X>X7.Y ! W W W ^ W W W W W W W W W W W E E R b J.W.{.}.}.}.}.}.}.}.}.}.}.}.}.}.}.",
"}.}.}.U.}.}.}.}.}.}.}.}.}.}.}.}.R. XR.T.$.g ,X2X7X>XF ( E ^ ^ W W W W W W W W W W W W E E T b S.W.XX}.}.}.}.}.}.}.}.}.}.}.}.}.}.",
"}.}.}.}.}.}.}.}.}.}.}.Q.{.).XXU.{.Q.!.K.h f 2X9X9X>XO.` ~ W W W W ^ W W W W W W W W W E E T b S.W.}.}.}.}.}.}.}.}.}.}.}.}.}.}.}.",
"}.}.}.}.}.}.}.}.}.}.XX{.}.}.{.Q.XXI.W.(.q j 1X9X9X6Xj J R ~ L ! W W W W W W W W W W E ! E Y | J.W.}.}.}.}.}.}.{.}.}.}.}.}.}.}.}.",
"}.}.}.U.}.U.}.}.}.}.}.}.}.}.}..X.X+XW.J.8 ,X3X8X0X7XA.6 F l / E W W W W W W W W W W W E E l  .G.W.XX}.}.}.XXXXQ.}.}.}.XX}.}.}.}.",
"}.}.}.XX}.XX}.}.}.}.}.}.}.}.}.{..XU._.Z.-.:X#X% . X # = f Z c Y E W W W W W W W W W W E L M ,.G.!.{.}.}.}.U.}.}.}.}.}.}.}.}.}.}.",
"}.}.}.}.}.}.}.}.}.}.XX}.}.}.{.).)._._.c.:XX X . . X O # & * ; : T W W W W W W W W W W E / B 0.T.!.XXU.}.}.}.}.}.U.XX}.}.}.}.{.Q.",
"}.}.}.}.}.}.}.}.}.}.U.}.XX}.}.Q.oXE.(.c.O O # # $ $ * * * = - 3 Y W W W W W W W W W W E U N s.T.!.Q.}.}.}.}.}.}.}.{.Q.}.}.}.Q..X",
"}.}.}.}.}.XX}.}.}.}.}.}.U.}.Q.{.XX).(.M.* = 3 f 7 S A J A G n M ~ W W W W W W W W W W E U n k.K.!.XX}.}.}.}.{.).}.XX}.}.}.}.{.XX",
"}.}.}.}.}.}.}.}.}.}.}.}.}.}.XX}.U.Q.T.M.d 7 C z R U ~ ' U T I L Q W W W W W W W W W W ^ U b B.W.Q.}.}.}.}.U.XX{.Q.{.}.}.}.}.XXU.",
"}.}.}.}.XXU.}.}.}.}.}.}.}.}.}.}.XXQ.W.h.} x R L Q Q W W W E E ~ E W W W W W W W W W W ( U F J.!.Q.Q.}.}.}.}.}.}.}.}.}.}.}.}.}.}.",
"}.}.}.}.}.}.}.}.}.}.}.U.}.}.}.}.U.!.!.g.c L L E W W W W W W W W ! W W W W W W W W W W E R  .G.!.Q.Q.}.}.}.}.}.}.}.}.}.}.}.}.}.}.",
".XQ.}.}.}.}.}.}.}.}.}.XX}.}.}.}.XXQ.T.g.B ( ! W W W W E W W W W W W W W W E W W E W ! L ] ,.T.R.Q.}.}.}.}.}.}.}.}.}.}.}.}.}.}.}.",
"}.{.}.}.}.}.}.}.}.}.}.}.}.XX}.}.Q.Q.W.g.n ~ W W W W E W W W ^ W W W E E W W W W W E E I n w.T.R.}.}.}.}.}.}.}.}.}.}.}.}.}.}.}.}.",
"}.}.}.}.}.}.}.}.}.}.}.}.}.}.}.}.{.Q.T.n.m K W W W W W Q W W W W W W Q W W W W W W W ! R v g.T.|.Q.}.}.}.}.}.}.}.U.XX}.}.}.}.}.}.",
"}.}.}.}.}.}.}.}.}.}.}.}.}.}.}.}.{.oXW.G.| [ U Q W W E Q E E E W ! W L L E ! E ! E E / ) w K.!.}.}.}.}.}.}.}.}.}.XX{.Q.}.}.}.}.}.",
"}.}.}.}.}.}.}.}.}.}.}.}.XX{.}.{.XX.XQ.T.s.4 N P I E U U ~ ~ ~ L L L R P L ~ L L U T ) 5 f.T.!.}.}.}.}.}.}.}.}.}.{.Q.}.}.}.}.}.}.",
"Q..X}.}.}.}.}.}.{.XXU.XXU.Q.XXU.U.U.XXT.G.w.5 v m B x m m m c m N ......G b c c b b } f.G.W.Q.{.}.}.}.}.}.}.}.}.).{.}.}.}.}.}.}.",
"}.U.}.}.}.}.}.}.Q.{.}.}.}.}.}.).).^.XX}.T.K.n.6.h X.$.<.w.s.h.n.J.J.K.K.J.n.g.a.a.g.B.P.W.Q.XX/.XX}.}.}.}.}.}.}.{.XX}.}.}.XXU.}.",
"}.XX}.}.}.U.XX}.U.XX}.}.}.}.U.XX'.).[.XX!.T.T.T.K.L.K.K.W.T.G.T.!.!.T.W.!.W.T.T.W.W.(.!.Q.).)..X).}.}.U.}.}.}.}.}.U.}.}.}.}.}.}.",
"}.}.}.}.}.}.}.}.XX}.}.}.}.}.}.XX^.)..XY.}.|.W.W.T.(.(.T.T.!.T.Q.R.}.Q.Q._.Q.!.(.!.!.{.{..X.X/.^.^.}.}.XX}.}.XXU.}.}.XX}.}.}.}.}.",
"}.}.}.}.}.}.}.}.Q.{.XXU.}.}.}.^.).XX.X.X}.|.|.|.Q.!.!.!.!.}.}.XX{..XoX.X).).)._.Q.}..X.X.X.X).).XX}.}.}.}.}.}.}.}.}.Q.{.}.}.}.}.",
"}.}.}.}.}.}.}.}.}.}.}.}.}.}.}.).^.U.).oX}.Y.Y.Q.oXQ.Q.).XX.X{..X.X.X^.^.).)._._.}.}.}.{.U.).)._.Q.{.Q..X}.}.}.}.XX{.XX}.}.}.}.XX",
"}.}.}.}.}.}.}.}.}.}.}.}.}.}.}.}.XX).Q.Y.}.+XXX{..X.X).XX.XU.{.[..X.X).).).)._.!.|.XX}. XXX_.).).U.XX}.}.}.}.}.}.U.Q.{.}.}.}.}.U.",
"}.}.}.XXXXU.}.}.}.}.}.}.Q.XX}.{.{..X|.}. X[.[.{..XXX).).).).XXXX).Q.^.U.U.).).Q.{.{.[.[.Q.Q.Q.Q.Q.}.}.}.}.}.U.XXXXQ.}.}.}.}.}.}.",
"}.}.}.}.}.}.}.}.}.}.XXU.{.{.).{.{..X|.}.{. X.X{.^.).E.).oX.X{.U.Q.XXXXXX^.XX{.Y.[.[.{.{.|.}.Q.Q.}.}.}.}.}.}.}.}.}.{.}.}.}.}.}.}."
};
