/* XPM */
static char *_643294152981[] = {
/* columns rows colors chars-per-pixel */
"64 64 194 2 ",
"   c #130000",
".  c #180000",
"X  c #240000",
"o  c #2A0800",
"O  c #3F0000",
"+  c #420000",
"@  c #550000",
"#  c #7F0000",
"$  c #4B3A0E",
"%  c #622101",
"&  c #8D0201",
"*  c #950403",
"=  c #9B0302",
"-  c #970805",
";  c #9A0904",
":  c #960509",
">  c #9B0509",
",  c #990909",
"<  c #A40101",
"1  c #AB0000",
"2  c #B30000",
"3  c #BA0000",
"4  c #BD0608",
"5  c #BB0D06",
"6  c #A91C0B",
"7  c #B61300",
"8  c #B81007",
"9  c #BC150C",
"0  c #B21B0C",
"q  c #BF1E0C",
"w  c #AB250D",
"e  c #A4260D",
"r  c #B2220A",
"t  c #A72610",
"y  c #AF2411",
"u  c #B32511",
"i  c #BB2514",
"p  c #B02812",
"a  c #BF2A16",
"s  c #B32B19",
"d  c #AD3219",
"f  c #B9301D",
"g  c #BF3B24",
"h  c #C40102",
"j  c #CA0203",
"k  c #C10C05",
"l  c #C60D0B",
"z  c #CC0C0B",
"x  c #CA0A07",
"c  c #D40505",
"v  c #DD0404",
"b  c #D50D03",
"n  c #DC0B02",
"m  c #D4060A",
"M  c #DF070A",
"N  c #D40C0C",
"B  c #DC0C0B",
"V  c #CC1007",
"C  c #C4140C",
"Z  c #CC130B",
"A  c #C41B0B",
"S  c #CA1B0D",
"D  c #C31A07",
"F  c #D21206",
"G  c #DC1205",
"H  c #D4130D",
"J  c #DB120B",
"K  c #D3190A",
"L  c #D9190E",
"P  c #DC0D11",
"I  c #CC1612",
"U  c #C41C13",
"Y  c #CC1B13",
"T  c #CA1F18",
"R  c #D41413",
"E  c #DC1311",
"W  c #D31B14",
"Q  c #DB1814",
"!  c #E60404",
"~  c #ED0403",
"^  c #E30C04",
"/  c #EA0A05",
"(  c #E5050A",
")  c #EC050B",
"_  c #E40C0C",
"`  c #EB0A0A",
"'  c #F50302",
"]  c #FC0101",
"[  c #F40A06",
"{  c #FD0806",
"}  c #F40509",
"|  c #FB040A",
" . c #F30A0C",
".. c #FA090A",
"X. c #E31106",
"o. c #E4130A",
"O. c #FC130F",
"+. c #E40D13",
"@. c #EB0B11",
"#. c #F00B10",
"$. c #E31112",
"%. c #EF1011",
"&. c #E21818",
"*. c #C6220F",
"=. c #C42313",
"-. c #CA2413",
";. c #C62619",
":. c #C8281C",
">. c #C8261B",
",. c #D42315",
"<. c #C7351E",
"1. c #C13421",
"2. c #CA3B23",
"3. c #C63E24",
"4. c #D13D2A",
"5. c #9E5A37",
"6. c #C74A2C",
"7. c #D2422B",
"8. c #CB4B32",
"9. c #D74133",
"0. c #D34F36",
"q. c #CB5139",
"w. c #D1503A",
"e. c #D55A3E",
"r. c #E14F38",
"t. c #CB5843",
"y. c #DB5740",
"u. c #E85B4B",
"i. c #DE7055",
"p. c #EC6B4E",
"a. c #E26F54",
"s. c #E0775A",
"d. c #EA7355",
"f. c #FF735F",
"g. c #FC785F",
"h. c #FF7E65",
"j. c #FC7561",
"k. c #E68069",
"l. c #FA8A6E",
"z. c #FC826A",
"x. c #FF8A79",
"c. c #FF9276",
"v. c #FF977D",
"b. c #FF9F84",
"n. c #C8AB81",
"m. c #C9B38A",
"M. c #FFA98E",
"N. c #FFAD92",
"B. c #FFB296",
"V. c #FFB69B",
"C. c #FFBB9D",
"Z. c #FFBFA3",
"A. c #FFBFAC",
"S. c #FFB5A2",
"D. c #FFC29F",
"F. c #FFC4A4",
"G. c #FFCBA5",
"H. c #FFC6AA",
"J. c #FFCCAA",
"K. c #E6D5A7",
"L. c #E9D7A7",
"P. c #E5DEAD",
"I. c #EDDCAD",
"U. c #ECD8A6",
"Y. c #F3D6A6",
"T. c #FED2A5",
"R. c #FED8A7",
"E. c #F3D7AF",
"W. c #FFD4AB",
"Q. c #F3DEAE",
"!. c #FCDBAD",
"~. c #FFCAB0",
"^. c #E7DFB0",
"/. c #EEDEB2",
"(. c #ECDEB9",
"). c #F1DEB1",
"_. c #FCDDB2",
"`. c #FCD7BD",
"'. c #F2DEBC",
"]. c #FFDCBC",
"[. c #E4C7A9",
"{. c #E6E2AD",
"}. c #EDE1AE",
"|. c #F0E0AF",
" X c #FAE0AF",
".X c #F1E1A6",
"XX c #E6E3B2",
"oX c #EDE1B2",
"OX c #EEE8B6",
"+X c #F3E2B3",
"@X c #FCE2B3",
"#X c #F4E1B9",
"$X c #FFE2B8",
"%X c #F9E8BA",
/* pixels */
"|.|.|.+X|.|.|.|.|.|.|.|.|.|.|.|.+X}.|.|.|.|.|.|.|.|.|.|.|.|.|.|.|.|.|.|.|.|.|.|.|.|.|.|.|.+X|.|.|.|.|.|.|.|.|.|.|.|.|.|.|.|.|.|.",
"|.|.|.I.I.+X|.|.+X|.|.|.|.|.I.+X|.|.|.|.|.|.|.I.|.|.I.+XI.+X|.|.+X|.|.|.|.|.I.+X|.|.|.|.|.}.|.|.+XI.|.|.I.+X|.|.+X|.|.|.|.|.I.+X",
"|.|.|.|.|.|.Q.}.}.Q.oX|.|.|.|.|.|.|.+XQ.|.|.|.+X|.|.|.|.|.|.|.|.}.Q.oX|.|.|.|.|.I.|.|.|.|.|.|.|.I.+X|.|.|.|.|.}.}.Q.oX|.|.|.|.|.",
"|.|.|.|.|.|.}.+XQ.}.|.|.|.|.|.|.|.|.I.}.|.|.|.|.|.|.|.|.|.|.|.|.Q.}.|.|.|.|.|.|.+X|.|.|.|.|.|.|.|.|.|.|.}.Q.|.+XQ.}.|.|.|.|.|.|.",
"+X}.|.|.|.|.|.|.|.|.|.I.|.Q.}.Q.|.|.|.|.|.|.|.|.|.|.|.|.|.|.|.|.|.|.|.|.|.Q.}.Q.|.|.|.}.|.|.|.|.|.|.|.|.|.|.|.|.|.|.|.I.|.Q.}.Q.",
"}.Q.|.|.|.|.|.|.|.|.|.+X+X}.|.oXoXQ.|.|.|.|.|.|.}.+X|.|.|.|.|.|.|.|.|.I.+X}.|.oX|.|.|.|.|.|.|.|.|.|.|.|.|.|.|.|.|.|.|.+X+X}.|.oX",
"|.|.|.|.+X|.|.|.|.|.|.|.|.|.|.|.|.|.|.|.|.+XI.|.Q.|.|.I.|.}.Q.oX|.|.|.+X|.|.|.|.|.|.|.|.|.|.|.|.|.|.+X|.+X|.|.|.|.|.|.|.|.|.|.|.",
"|.|.+XI.I.|.|.|.+X|.|.|.|.|.|.|.|.|.|.|.|.}.+X|.}.|.|.+X|.+X}.Q.+X|.|.|.|.|.|.|.+X|.|.|.|.|.|.|.|.|.}.Q.I.|.|.|.+X|.|.|.|.|.|.|.",
"|.|.|.|.+X|.|.|.}.Q.+X}.|.|.|.|.+XI.|.|.|.|.|.|.+X|.|.|.|.}.+X|.}.|.|.|.}.|.|.+XI.|.I.+X+X}.I.+X|.|.|.|.}.Q.|.|.}.Q.|.|.|.+XI.|.",
"|.|.|.|.}.|.|.|.Q.}.|.|.|.|.|.|.|.|.|.|.|.|.|.|.I.|.|.|.|.Q.}.|.Q.}.+X|.Q.}.|.|.I.+X|.|.I.Q.+XI.+X|.|.|.|.}.+X|.|.}.|.|.|.|.|.|.",
"+XI.|.|.Q.}.|.|.+X|.|.|.+XI.|.|.|.|.|.|.|.|.|.|.|.|.|.|.|.|.|.|.+XI.I.)./.)./.Q.%XI.I.Q.I.+X+XI.}.Q.|.|.|.|.|.|.|.|.+X|.+X|.|.|.",
"|.|.|.|.oXQ.|.I.I.|.|.|.|.|.|.|.|.|.|.|.+X|.}.Q.|.|.|.|.I.+X|.|./.+X/.).+XI.+XoXI.+XoXI.+XI././.Q.}.I.+X|.|.|.|.|.|.I.|.}.|.|.|.",
"|.|.|.|.|.|.|.+X|.|.+X|.|.|.|.|.|.|.|.I.I.+X|.|.|.|.|.+X|.|.|.|.)././.).).}.).)./.I.+X%XI.+X/.+XoX|.|.|.Q.}.Q.|.}.+X|.|.Q.|.|.|.",
"|.|.|.|.|.|.|.|.|.|.I.|.|.|.|.|.|.|.|.+X|.|.|.|.|.|.|.}.|.|.|.|.).|.+XI.).)./.).).).#XK.).+XI.Q.|.|.|.|.}.+X+XI.|.|.|.|.}.|.+X|.",
"|.|.+X}.}.|.}.+X|.|.|.|.|.|.|.|.}.|.|.|.|.|.Q.|.|.|.|.|.|.|.}.Q.).).).+X/.).Q.).+XI.Q.+XI.I.+X).+XQ.|.|.|.|.|.|.|.|.|.|.+X|.I.|.",
"|.+XI.Q.Q.|.Q.|.|.|.|.|.|.|.I.+X).oXQ./.).+X).Q.Q.!.Q.Q.!.W.!.!.W.!.!.W.Q.!.!.).).).).$ m.'.I.'.}.}.).Q.|.|.}.oXI.}.|.|.I.|.Q.|.",
"oX|.|.Q.Q..X|.|.I.oX+X+XQ.Q.|.|.+X).).#X).)._._.!._.R.R.T.G.G.F.D.T.D.D.T.W.W.W.].).'.  . [.'.(.XXXXE._.+X}.{.{.}.}.|.|.|.|._.).",
"}.).Q.|.|.Q.|.|.I.}.oX+X_.Q.|.}././.'.).`.o ~.J.W.G.J.F.C.p.2.=.-.r <.z.C.F.F.H.J.~.].X X `.`.'.XXXX$XE.Y.}.{.{.}.}.Q..X|.|.).).",
").I.|.Q.Q.|.|.|.+XI.).).|.|.}.oXoX+X+XQ.n.. % H.Z.f ;.5 H J b B n X.J F Z S -.:.x.H.s.+ O ~._._.XX{.Y._._.@X+XI.}.|.|.Q.|.|.Q.|.",
"/.+X|.|.}.Q.Q..XQ.Q.).).|.}.{.}.|.@X!.W.5.O @ s 9 H o.) [ } ..} ' } ' ~ / ^ v J W U 0 & # t.H.J.|.I.@X_.Q.Q.I.+X|.|.|.|.Q.oX}.}.",
"Q.+X}.+X}.|.Q.Q.).).).).}.}.{.}. XT.G.b.6 8 R B @.) ' | ] | ' ] ] { ] ' ' { [ / ` c B J R Z ;.N.W.!.Y.Y.Q.$XI.Q.).).)._.Q.|.}.{.",
"/./.Q.}..X}.Q.Q.).).).).}.}.|.R.T.F.j.q L +.! | | ] ] ] ' ] ] { ] ] ] ] ] ] ] ' ~ O.~ ~  .` J =.F.W.@X|. XI.+X+X_.).).).).|.}.{.",
")./.|.|.).Q.)._.).).+X).|..XW.G.v.,.L n ` ~ } } ] ] { ] ] ] { ' ' ] { ] ' ] ] ' ] ' ' | ~ ) ( Q 0 H.W.Y.}.|.}.+X).).).).|.|.}.}.",
").|.I.+XI.Q.).Q.).oXQ.|.+X!.W.Z.K / !  .~ | | ] ] ] ] ] ] ] ] ] ] ' ] ] ] ] ' ] ] ] ' ' } ( M N Y u J.T.|.{.oXoX)._.).+X).|..X}.",
"oX).|.Q.Q.).).).+XP.+X+XQ.W.F.u G [ ' ' ] ] ] ] ] ] ] ] ] ] ] ] ] ] ] ] ] ] ] ] ] ]  .v h 2 1 3 R U C.W.|.}.oX/./.'./.).).).Q.}.",
"oX}.oXQ.Q.).).).^.oXoXU.!.J.H.A / ' ' ' | ] ] ] ] ] ] ] ' ] ' ] ] ] ] ] ] ] ] ] ] } ) h 1 1 1 1 h Y t J.!.U.oX+X/./.+X).).).Q.|.",
"}.}.Q.Q.Q.Q.).).{.XX+X|.!.G.f L / ] ] ] ] ] ] ] ] ] ] ' ' ' ] ] ] ] ] ] ] ] ] ] | } +.2 1 ; ; = 2 W i Z.W.@XQ.)./.oX/.).|.Q.|.}.",
"Q.|.|.oXQ.Q.).).XXOXI. X!.G.;.B ' ] ] ] ] ] ] ] ] ] ] ' ] | ] ] ] ] ] ] ] ] ] ] | ) +.2 < - : * 1 C A S.G.!.Q.I.oXoXoX).Q.|.|.}.",
"Q.}.}.}.}.Q.).).OX{.|.Y.!.D.A ` ' ] ] ] ] ] ] ] ] ] ] ' ] ] | ] ] ] ] ] ] ] ] ] ' ~ +.3 < & & - < 8 Y 9.G.W.!.+X}./.).).|.}.Q.}.",
"Q.Q.}..X}.}.Q.).P.OX@X_.T.G.Y ` ' ] ] ] ] ] ] ] ] ] ] ] ] ] ] ] | ] ] ] ] ] ] ] | ~ ( 3 < & : * = 2 R ;.J.T.!.Q.}.Q.)._.}.}.|.Q.",
"|.Q.}.}.}.}.).).oXI.Q.R.R.G.S / [ ' ] ] ] ] ] ] ] ] ] ] ] ] ] ] ] ' ] ] ] ] ' ' ] [ ) c 1 = < > < 1 N 9 G.!. X|.Q.Q.).Q.I.}.).).",
"Q.|.}.}.}.}.+X/.}.I.!.!.D.C.Z / ' ] ] ] ] ] ] ] ] ] ] ] ] ] ] ] ] ] ] ] ] ] ] ] ' } ) B 2 < = = = < R U G.R.Y.Q.|.Q.Q.Q.+X}.).Q.",
"Q.|.|.|.Q.}.).oX+X|.Y.!.D.r.b ~ ] ] ] ] ] ] ] ] ] ] ] ] ] ] ] ] ] ] ] ] ] ] ] ] ] | ) +.2 1 = - = < l 9 l.T.W._.}./.).I.|.|.|.}.",
"|.|..X|.Q.|.oXoXI.+XQ.W.F.*.n [ ' ] ] ] ] ] ] ] ] ] ] ] ] ] ] ] ] ] ] ] ' ] ] ] ] ] ' _ h 1 * > > < 4 >.e G.T.!.).oX+XQ.Q.Q.|.{.",
"|.|..XI.}.|.}.oXoXQ.Q.T.G.7 X.[ ' ] ] ] ] ] ] ] ] ] ] ] ] ] ] ] ] ] ] ] ] ] ] ] ] ] } ) N 2 = = * = 2 C w G.W.Q.).).).)._.|.}.}.",
"|.|.Q.Q.Q.|./.oX+XQ.Y.W.F.*.X./ ' | ] ' ] ] ] ] ] ] ] ] ] | ] ] ] ] ] ] ' ' ] ] ] | | ) +.2 < > < 1 2 T i F.G.!.).).).Q.Q..X|.}.",
"Q.).Q.Q.Q.Q.|.oXI.+X@XW.C.*.n ~ ' ] ] ' ] ] ] ] ] ] ] ] ] ] ] ] ] ] ] ] ] ] ' ' ] | | ) +.2 1 > > < 2 I 9 B.G.Q.).).).Q.Q.Q.Q.|.",
"Q.}.Q.|.Q.}.Q.}./.Q.Q.T.Z.D ^ ' ] ] ] ] ] ] ] ] ] ] ] ] ] ] ] ] ] ] ] ] { ' ' ' ] ] ] } +.3 1 = : < 1 l W j.G.!.).oX).).).Q.Q.|.",
"Q.Q.Q..XQ.Q.).+X+XQ.Y.W.F.A o.' ] ] ] ] ] ] ] ] ] ] ] ] ] ] ] ] ] ] ] ] ] { ' [ ] ] | | +.h < * * 1 1 R N :.J.!.).).Q.Q.Q.Q.|.Q.",
"+X|.Q.Q.Q.Q.).).).Q.Q.W.C.*.X.~ ] ] ] ] ] ] ] ] ] ] ] ] ] ] ] ] ] ] ] ] ] ] ' { ] ] | | +.h 1 = * * 1 I &.9 W.!.).+X+XI.Q.Q.Q.+X",
"Q.Q.|.Q.Q.Q.|.).).).Q.W.B.*.^ ' ] ] ] ] ] ] ] ] ] ] ] ] ] ] ] ] | ] ] ] ] ] ] { ] ] ] | @.j 1 = * = < l B Y G.!.Q./.+XI.|.|.|.|.",
").Q.Q.|..XQ.|.).).Q.!.G.N.A ^ [ ] ] ] ] ] ] ] ] ] ] ] ] ] ] ] ] ] ] ] ] ] ] ] ] ] ] ' [ _ h < ; * > < 2 B S J.W.Q./.|.|.}.}.|.|.",
"}.|.Q.Q.|.Q.).).).Q.!.W.N.*.^ ' ] ] ] ] ] ] ] { ] ] ] ] ] ] ] ] ] ] ] | ] ] ] ] { ' ~ ` N 2 = * * , = 2 +.W F.!.Q.).oXoX}.}.|.|.",
"|.|.|.Q.Q.|./.oXQ.).Q.W.M.S ^ ' ' ] ] ] ] ' ] ' | | } ' | | | } ' | | | ' ' ' ) ! ` _ E 4 < = - & * * 1 $.C F.R.!.).}.I.}.}.I.+X",
"}.Q.Q.|.|.Q.Q.oX).).!.T.M.A n ' ] ] ] ] ' } }  .~ ` ) ` ) ) @.` ) ) ) ) ) @.@.$.E N 2 1 1 = , & : , ; 1 E C C.W.!.).).|.}.}.}.Q.",
"}.}.}.Q.Q..X).}.).Q.!.T.B.A ^ ' ] ] ] ' '  .! ` v m N m j j j j m m m P P m h 3 1 1 1 = = * : * & * * < N Y i.W._.).Q.|.}.}.+X).",
"I.}..X|.|.|./.oX).Q._.W.F.A ^ ' ] ] { ' ` ` h 3 2 2 1 1 1 1 1 1 1 1 1 1 1 1 1 1 < < ; * * * > : , * = 1 H ,.i.W.W.).Q.Q.}.|.I.).",
"|.}.|.Q.Q.Q.|.).+X).Q.G.F.A ^ | ] ] { )  ._ 3 2 1 < = = * * = * = = = = = = = = > * * - : : : : * = = 1 N 9 C.J.!.).Q.|.|.Q.).).",
"oX|.|.|.!.Q.Q.).+X)._.J.H.A ^ ] ] | | ' } _ 2 2 1 = * * * * * * & * - * = = * = = * * > , * * * * = 1 2 W 0 H.!.!.|.|.|.|.+X)._.",
"oXI.+X.XQ.Q.Q._.I./._.W.N.q / ' ] { | | ) ) M 2 1 1 < * * > ; = ; * * * * * * = * > * * * * * - * = 1 C U h.G.!.Q.|.Q.|.).).).Q.",
"oX}.I.|.Q.Q.Q.)./.oXQ.W.G.r F ^ ' ' ] { ' ' ~ ` m 3 1 2 1 1 1 1 = = = = = = * * > * * > * > ; = ; < 2 U i F.T.!.Q.Q.Q.|.oXoX}.}.",
"Q.oX|.|..XQ.Q.).oX+X).W.G.d -.b / ' ' { ] ] ' } ~ _ J N x x 3 3 3 1 1 1 1 1 < 1 = 1 < < = < < 1 1 1 I 9 s F.!.!.Q.Q.Q.Q.oX}.{.XX",
"oXoX}.}.}.|..XQ.oXoXU._.G.G.w D X.~ ' { ' ] |  . .( ` _ _ _ _ B _ +.P J J E N z N x z Z x l z h R z R T d H.W.Q.+XoX).).).|.}.}.",
"oX/.oX}.}.|.I..X}.+X+XQ.!.G.G.0.D K F G G ^ n ^ B o.H F H H Z H H Z Z R R H Z R V Z Y S A A U U T >.=.u.H.W._.Q./.oX).).).|.}.}.",
").oXoXoX}.|.Q.Q.}.oXI.Q.!.G.J.G.D.C.d.6.7.<.7.4.7.1.u.j.y.8.y.e.a.l.z.w.y u a i <.7.1.q.c.B.B.G.F.F.J.W.W.!.Y.Q.).).).).}.|.|..X",
").).oXoX|..X|.Q.|.I.OXoXY.$XW.W.W.W.W.T.G.G.F.H.F.J.H.F.G.J.J.T.J.G.G.G.G.H.F.Z.F.F.G.W.J.W.W.W.!.R.T.R.+XQ.+XQ.).).).).oX}..XQ.",
").)./.}.}.|.|.Q.|.|.oX}.|.|.Q.!.)._.).W.W.W.W.W.W.W.W.W.!.W.R.!._.W.W.W.W.W.W.T.R.R.W.R.W.!._.!.Q..XR.Q.|.}.I.Q././.).).oX}.Q.!.",
").+XQ.}.}.}.Q.|.+X|.I.oXoXoX/.+X/./.).).).+X).!._._._.!.Q.!.Q.!.)._.!.Q._.!.!.!.!.!.!.Q.!.Q.Q.Q..X}..X}.}.}.+X+XoXoX).).oXoX!.!.",
").).Q.|.|.|.).Q.Q.Q.oX}.oXoXoXoX)._.).).).Q.Q.Q.(./.).Q.!.Q.Q.Q.Q.}.|.Q.Q.Q.Q.Y.Q.Q.Q.+XI.}.|.|.Q..X}.}.}.}.Q./.oX/.).).{.}.Q.!.",
"Q.Q.Q.|.|.|.|.Q.Q.Q.Q.}.oXoXoXoX).!._.Q.Q.Q.+XQ././.Q.Q.Q.Q.Q..X/.oXoXoX+X|.}.+XI.Q.Q./.}.}.}.}._.).{..X}.}.}.Q.'.).).'.}.{.|.Q.",
"Q.Q.Q.}.).oX)./.Q.Q.Q.Q.oXoXoXoX).Q.Q.Q.|..X|.I.Q.).Q.Q.|.}.}.}./.oX/.+X/.oXoX(.oXoX/.oX/.oX}.|.).).).}.}.|.|.|.).)./.oX}.}.}.}.",
"Q.}.}.Q.oXoXoX)./.+XQ.).}.}.oX}.|.|.|.|.|.|.|.Q.Q.Q.Q.oXI.}.{.}.oXoX).)./.oXoXoXoX/.oXoXoXoX).Q.).).+X}.|.}.|.Q.).).oXoXoX+X}.}.",
".X}.}.}.oX).oXoXoX).Q.Q.).Q.Q.|.Q.}.|.}.}.}.}.}.|.).)./.+X}.}.|.).Q.Q.Q.|././.oX}.}.}.|.|.|.|.|.oXoXoX}.|.Q.Q.I._.!.oX}.).Q.).).",
"}.}.}.Q.oXoX/.oX}./.).Q.Q.Q.).Q.|.|.|.}..X}.}.}.oXoX/.+XoX|.}.|.Q.Q.Q.Q.Q.Q./.+X|.|.Q..X|..X.X}.oXoXoXI.|.Q.|.Q.!.).oXoX)._.).)."
};
