/* XPM */
static char *_643294172718[] = {
/* columns rows colors chars-per-pixel */
"64 64 206 2 ",
"   c #080100",
".  c #070000",
"X  c #130000",
"o  c #1C0000",
"O  c #160900",
"+  c #1E140B",
"@  c #230000",
"#  c #2B0000",
"$  c #340000",
"%  c #3C0000",
"&  c #342721",
"*  c #430000",
"=  c #4A0000",
"-  c #520000",
";  c #5A0000",
":  c #6B0000",
">  c #740000",
",  c #622D1F",
"<  c #463626",
"1  c #564734",
"2  c #654B2A",
"3  c #860000",
"4  c #A20300",
"5  c #BF170C",
"6  c #BD1C0C",
"7  c #B81706",
"8  c #AA1D18",
"9  c #B31F13",
"0  c #B51D1B",
"q  c #BB1A1B",
"w  c #B9151A",
"e  c #8E311F",
"r  c #AE2419",
"t  c #A92016",
"y  c #BA2618",
"u  c #981D20",
"i  c #822E23",
"p  c #903523",
"a  c #AF2522",
"s  c #A42D23",
"d  c #A62722",
"f  c #BC2B2C",
"g  c #B52523",
"h  c #AA332F",
"j  c #CF0F0E",
"k  c #DD0A04",
"l  c #DC0E0B",
"z  c #D40B06",
"x  c #CD1106",
"c  c #CB150B",
"v  c #C41C0B",
"b  c #CA1B0C",
"n  c #DA1607",
"m  c #D31309",
"M  c #DC150C",
"N  c #D4180B",
"B  c #D8180D",
"V  c #C80C13",
"C  c #DD0E11",
"Z  c #D50C12",
"A  c #C71417",
"S  c #CC1C11",
"D  c #CB151C",
"F  c #C71A1B",
"G  c #D11214",
"H  c #D11B11",
"J  c #D4131A",
"K  c #D31A1B",
"L  c #DA1316",
"P  c #E40303",
"I  c #EC0502",
"U  c #E30C05",
"Y  c #EB0A05",
"T  c #EC040A",
"R  c #E40C0A",
"E  c #ED0B0C",
"W  c #E4060B",
"Q  c #F50301",
"!  c #FC0201",
"~  c #F10905",
"^  c #FB0A04",
"/  c #F30309",
"(  c #FD0508",
")  c #F40A0C",
"_  c #F80A0A",
"`  c #E5110B",
"'  c #F5100A",
"]  c #E40D12",
"[  c #E60914",
"{  c #FA0A14",
"}  c #E41515",
"|  c #C22211",
" . c #CB2211",
".. c #C92B18",
"X. c #D5291C",
"o. c #D82617",
"O. c #C03018",
"+. c #C11C22",
"@. c #D21D26",
"#. c #CA2023",
"$. c #C13A23",
"%. c #CC3824",
"&. c #C13522",
"*. c #C42B30",
"=. c #E33034",
"-. c #894332",
";. c #B84F32",
":. c #CF4C3A",
">. c #DB4735",
",. c #D9573B",
"<. c #E14E3C",
"1. c #D93C45",
"2. c #AF5349",
"3. c #9F614C",
"4. c #DA5159",
"5. c #E94545",
"6. c #EC5B42",
"7. c #EF5354",
"8. c #F5464B",
"9. c #DE6248",
"0. c #E1604B",
"q. c #F7735C",
"w. c #F56D57",
"e. c #E95D60",
"r. c #F77A62",
"t. c #FF7073",
"y. c #AC8870",
"u. c #CC997E",
"i. c #E0816F",
"p. c #FE836B",
"a. c #F98767",
"s. c #FF8C74",
"d. c #FF8771",
"f. c #FD9373",
"g. c #FE967C",
"h. c #FF9C7C",
"j. c #F99574",
"k. c #C88688",
"l. c #FC9C85",
"z. c #DBAC96",
"x. c #DCBA9F",
"c. c #FFA182",
"v. c #FFAE8E",
"b. c #FAAA95",
"n. c #FFB693",
"m. c #FFB49A",
"M. c #FCB799",
"N. c #EDB795",
"B. c #E3BEA3",
"V. c #FFBEA2",
"C. c #FCB5A6",
"Z. c #FFBBB3",
"A. c #FFC29E",
"S. c #D1C5BB",
"D. c #FFC4A5",
"F. c #FFCCA5",
"G. c #FFC4AA",
"H. c #FFCCAA",
"J. c #EBD6A3",
"K. c #EADBA6",
"L. c #EDDDAC",
"P. c #E7DBAA",
"I. c #FFD3A6",
"U. c #F6D6AC",
"Y. c #FED4AB",
"T. c #F3DEAE",
"R. c #FCDBAC",
"E. c #FFCDB3",
"W. c #EDDDB2",
"Q. c #EAD8B2",
"!. c #FED4B2",
"~. c #F2DEB2",
"^. c #FCDCB3",
"/. c #FDD9BA",
"(. c #F6D8B9",
"). c #EDE1AE",
"_. c #E6E2AD",
"`. c #F0E0AF",
"'. c #FEE0AE",
"]. c #EDE1B2",
"[. c #EAE4B7",
"{. c #F3E2B2",
"}. c #FAE2B4",
"|. c #F3E5BB",
" X c #F5E7B8",
".X c #FFCAC6",
"XX c #FBDBC7",
"oX c #FFD7D5",
"OX c #FFD7D9",
"+X c #FFDBDB",
"@X c #FFDED3",
"#X c #E8D1CB",
"$X c #FFE3D5",
"%X c #FFE4DB",
"&X c #FFDDE3",
"*X c #FFE5E4",
"=X c #FFEAE4",
"-X c #FFE4EB",
";X c #FFEAEB",
":X c #FFF4ED",
">X c #FFFAEE",
",X c #FFEDF3",
"<X c #FFF4F3",
"1X c #FFFAF5",
"2X c #FFFCFB",
"3X c #FFF4F8",
/* pixels */
"`.`.`.`.`.`.`.`.`.`.`.`.{.`.`.`.~.{.).].).).`.`.).].].~.~.T.R.T.{.].].].].].].W.W.].~.~.{.).`.`.`.`.`.`.`.`.`.`.`.`.`.`.`.`.`.`.",
"`.`.`.`.L.{.`.`.`.`.`.).L.`.`.`.`.W.).L.`.`.T.`.).].].W.~.~.~.T.~.~.).`.).{.~.].].~.~.~.~.T.`.T.`.`.`.`.`.`.`.`.`.`.`.`.`.`.`.`.",
"`.`.`.`.`.`.`.`.`.`.`.T.L.{.`.`.W.{.~.T.`.`.`.).].].].].~.~.T.{.`.T.T.`.T.~.T.~.{.~.`.`.).).).).`.`.`.`.`.`.).`.`.`.`.`.T.`.`.`.",
"`.`.`.`.`.`.`.`.`.`.{.).{.).`.`.~.{.R.~.T.T.`.`.].~.].].].~.).).).T.`.T.R.T.T.R.R.T.`.`.].).).).).`.`.`.).`.T.`.`.`.`.`.).`.`.`.",
"`.`.`.`.`.{.`.`.`.`.`.`.).`.`.{.{.].T.R.T.{.T.`.{.L.).`.T.T.]._.).).`.K.T.T.T.T.`.`.`.).].].~.).T.).`.`.`.`.`.`.).`.`.`.`.`.`.`.",
"L.{.`.`.T.).`.`.`.`.`.`.T.).`.L.].].T.T.T.T.`.`.`.].).`.T.T.).]._.).`.).`.`.`.`.`.`.`.`.W.].T.~.`.`.`.`.`.`.`.`.~.`.`.`.`.`.`.`.",
"`.L.`.`.).`.{.`.`.`.L.`.`.`.`.).).)._.).].).T.~.`.`.T.T.T.~.~.].).).).).).`.`.`.)._.).).`.`.~.~.T.`.`.`.`.`.`.`.`.`.`.`.`.`.`.`.",
").{.`.`.`.`.L.`.`.`.{.`.`.).T.].]._.].].).T.T.T.`.`.T.T.~.~.].].).`.`.).`.`.).`.).).).`.`.T.~.T.`.`.`.`.`.`.`.`.`.`.`.`.`.`.`.`.",
"`.`.`.`.T.).{.).`.{.`.`.`.`.`.`.`.).]._.].].T.`.`.T.{.`.].[.[.[.).{.~.~.~.~.~.].].).).`.T.`.T.{.`.`.`.`.`.`.L.{.`.`.).{.L.`.`.`.",
"`.`.`.`.).{.L.`.T.).`.`.`.`.`.`.T.`.].].].].`.`.`.}.K.`.].Q.|.Q.}.T.~.~.W.~.W.{.T.`.`.`.`.T.`.W.{.`.`.`.{.`.`.).`.`.`.`.`.`.`.`.",
"`.`.`.`.`.{.).T.).`.{.`.`.`.`.~.`.T.~.~.{.].].`.'.J.T.{.].[.XX[.~.T.^.W. XP.].[.'.K.K.'.`.`.].].).T.`.`.L.`.`.`.`.`.`.`.L.{.`.`.",
"L.{.`.`.`.L.`.`.`.`.L.`.`.`.`.`.T.T.R.~.].].{.L.`.'.~.~.{.Q.O W.Y.!.^.U.Q.|.].].`.`.`.`.T.).).].).).`.`.`.`.`.`.`.`.`.`.`.`.`.`.",
"`.`.`.`.`.`.`.`.`.`.`.`.`.`.).`.T.T.R.~.~.W.{.`.L.`.}.U.XXB.X 2 Y.F.F.^.^.~.Q.].).`.'.).`.`.].].W.`.`.`.`.`.{.`.`.`.L.{.`.`.`.`.",
"`.`.`.`.`.`.`.`.`.`.`.`.`.`.`.`.).`.T.R.~.{.~.T.`.K.T.R.E.C.X @ ;.,.c.D.F.^. XL.).`.`.K.K.`.].W.].`.`.`.`.).L.`.`.`.`.`.`.`.`.`.",
"{.`.`.`.`.`.`.`.`.`.`.`.`.`.`.).).).T.~.[.W.~.T._.).}.H.b.2.o # 7 N 6 9.H.H.^.{.`.`.R.'.'.`.`.].{.`.`.`.).T.`.`.`.`.`.`.{.`.`.`.",
").`.`.`.`.`.`.`.{.`.`.`.`.`.`.L.].).`.T.].].~.R.`.U.F.l.a d # $  .k B v 0.E.F.R.`.`.K.`.`.`.`.{.L.`.`.`.{.`.`.`.`.`.).T.).`.`.`.",
"T.).`.`.`.`.`.{.`.`.`.{.).T.`.{.~.T.`.`.'.`.K.'.^.F.l.b m F % * 0 L ] C b w.D.R.'.`.)._.L.}.W.~.{.).T.].`.`.`.T.).`.`.`.).{.L.`.",
"`.`.`.`.`.`.T.).`.`.`.`.`.).L.{.(.~.`.`.J.`.{.R.H.M.o.U E G > = > w J Z S 9 j.F.U. X).).`.L.W.{.L.{.`.`.`.`.{.).`.`.`.`.{.L.`.`.",
"`.`.`.`.).L.).`.`.`.`.`.`.`.`.~.W.{.{.K.}.`.T.Y.D.>.n Y E L y ; = = d a 8 d p G.^.(.K.).`.{.).).`.`.`.`.`.`.`.`.{.`.`.`.`.`.`.`.",
"{.L.`.`.{.{.`.`.`.`.`.`.{.L.`.].W.].).).`.K.R.F.d.c k I ) P G : = $ % * = * % , XX(.{.).`.L.).`.`.`.`.`.`.`.`.`.L.`.`.`.`.`.`.`.",
"`.`.`.`.L.`.`.`.`.`.`.L.`.`.T.].).).).`.{.'.I.A. .k ' Q / ) R D - % $ $ # @ X X X XXQ.).{.U. X`.`.`.`.`.`.`.L.`.`.`.`.`.`.{.).T.",
"{.`.`.`.`.`.`.`.`.`.`.{.`.`.`.).].).{.J.'.I.A.6.n Y Q Q ! ! / ] 0 : = $ @   +     1 |.~.U.~.P.).).`.`.`.`.`.{.`.{.`.`.`.`.`.`.).",
").T.`.`.`.`.`.`.`.`.`.`.`.).`.`.`.).~.}.'.I.n.v U Q Q ( ! ! ! / [ V +.u k.3X1XS.  < Q./.}.~.].].).).{.`.`.).T.`.).T.`.`.`.`.`.`.",
"`.).`.`.`.L.{.`.`.`.`.`.L.{.`.`.T.}.~.T.I.I.6.n ~ Q ! ! ( ! ! ! / E Z *.;X:X2X1X1XS.XX!.T.).]._.].T.L.`.`.{.).`.`.).`.`.`.`.L.{.",
"`.L.`.`.`.`.`.`.{.`.`.`.`.`.`.`.T.T.^.^.Y.V.b U ~ Q ! ! ! ! ! ! ! ) W 5.*X1X1X2X2X>Xx.U.^.~. X).).`.L.{.`.`.`.`.`.{.`.`.`.L.`.`.",
"`.{.`.`.`.`.`.`.L.`.`.`.`.`.`.`.).T.~.!.H.q.H Q Q ! ! ! ! ! ! ! ~ Q k 8.+X1X2X2X2X>Xy./.!.~.L.L.{.`.`.`.`.`.`.`.`.L.`.`.`.{.).`.",
"`.`.`.`.`.`.`.`.`.`.`.`.`.`.].T.).{.!.!.G.&.` ~ Q ! ! ! / ! ! ! ! ^ { @.*X<X2X2X2X1Xx.^.}.T.L.{.T.).T.).`.).`.`.`.`.`.`.`.`.{.L.",
"`.`.`.`.`.`.`.L.`.`.`.`.`.`.`.)._.{.^.H.m.v n Q ! ! ! ! ! ! ! ! ! ^ T @.*X1X2X2X2X<X%Xk.^.T.T.).`.`.).{.L.{.`.L.`.`.`.`.`.`.`.`.",
"`.`.`.`.`.`.`.{.{.).`.`.`.`.`.).).L.R.F.p.S U Q ! ! ! ! ! ! ! ! Q I T w *X1X2X2X2X3X*X3.!.T.).).).`.`.`.`.`.`.{.T.).`.`.`.T.).`.",
"{.`.`.`.).`.`.`.).T.`.`.`.`.`.].{.L.R.Y.<.M Y Q ! ! ! ! ! ! ! ! Q Q T K .X-X1X2X2X3X=Xp !.R.`.`.W.`.`.`.`.`.`.`.).{.`.`.{.).{.`.",
").`.`.`.{.`.{.).`.{.L.`.`.{.L.T.`.T.R.F...U ) ! ! ! ! ! / ! ! ! ! ^ / ] 1.&X<X2X2X,X;X, M./.U.T.`.`.`.`.`.`.`.`.`.`.`.`.`.`.L.`.",
"T.).{.L.L.`.).T.`.`.`.`.`.`.`.`.U.R.R.n.b Y Q ! ! ! ! ! ! ! ! ! ! ! ! ) J e.%X:X,X,XOXp r.H.Y.^.T.`.`.`.`.`.`.L.{.`.`.`.`.`.`.`.",
"`.L.T.).`.`.`.`.`.`.`.`.`.`.{.T.R.R.I.h.m I ! ! ! ! ! ! ! ! ! ! ! ! ! ! R m t.OXOXoX5.6 :.V.R.R.`.`.`.).`.`.`.`.`.`.`.{.L.`.`.`.",
"`.{.).{.`.`.`.`.`.].T.`.L.`.).`.`.R.F.a.n Q ! ! ! ! ( ! ! ! ! ! ! ! ! Q ^ Y L J =.A H  .y G.Y.U.`.`.`.`.`.L.`.`.`.`.`.`.`.`.`.`.",
"`.`.{.L.`.`.{.L.`.`.`.`.{.).`.T.T.R.F.,.M Q ! ! ! ! ! ! ! ! ! ! Q ! ! ! ! I T E C j 5 6 8 m.Y.~.T.`.`.`.`.{.`.`.`.`.{.).`.`.`.`.",
"`.`.).`.`.`.`.`.`.`.`.`.`.`.`.~.R.I.H.$.M I ! ! ! ! ! ! ! ! ! ! ! / ( ! ! Q ~ I C K .X@Xr l.H.^.T.`.`.`.`.`.`.`.`.`.).T.{.`.`.`.",
"`.`.`.`.`.`.`.`.`.`.`.`.`.`.`.T.T.Y.F.y l ! ! ! ! ! ! ! ! ! ! ! ! ( ( ! Q ! ^ R V 7.+X$X8 s.H.^.T.{.`.`.`.`.`.`.`.`.{.`.).`.`.`.",
"`.`.`.`.`.`.`.`.`.`.`.`.`.`.`.T.R.I.D...l ! ! ! ! ! ! ! ! ! ! ! ! Q ! ! ! ^ Q R q +X%X2.r q.H.R.T.`.`.`.`.`.`.`.`.`.L.`.T.).L.{.",
"`.`.{.L.`.`.`.`.`.`.`.`.`.`.`.~.T.Y.D.| U ~ ! ! ! ! ! ! ! ! ! ! ! ! ! ! Q ^ W J 4.&X=XZ.9 >.H.!.T.`.`.`.`.`.`.`.`.).`.`.`.`.`.`.",
"`.`.`.`.`.`.`.`.`.`.`.`.`.`.`.T.R.Y.D.v R Q ! ! ! ! ! ! ! ! ! ! ! ! ! Q Q _ W D &X;X;X+X9 %.H.R.T.~.`.`.`.`.`.`.L.{.`.`.`.`.`.`.",
"`.`.`.{.L.`.`.`.`.`.`.`.`.`.`.T.T.H.V.| R Q Q ! ! ! ! ! ! ! ! ! ! ^ ! ( ! / [ q &X,X,X*Xr g Y./.~.`.`.`.{.`.`.`.`.`.`.`.`.`.`.`.",
"`.`.`.`.`.`.`.`.`.`.`.`.`.`.`.{.T.Y.D...R Q Q ! ! ! ! ! ! ! ! ! ! ! ! / { [ J f ,X3X3X;Xh s /.U.~.`.`.`.).`.`.`.`.`.L.{.`.`.`.`.",
"`.`.{.).`.`.`.`.`.`.`.`.`.`.`.T.T.I.D.%.l Q Q ! ! ! ! ! ! ! ! ! ! Q T [ C V 0 C.=X>X1X>X%Xe H.R.T.`.L.`.T.).`.`.`.T.).`.).{.`.`.",
"`.`.).T.{.`.`.`.`.`.`.`.`.`.`.T.T.R.D.,.m Q ! ! ! ! / ! ! ! ! ! ! ~ z A F f - % @ X & #X=X-.N.U.T.`.{.`.`.`.`.`.{.).`.`.T.`.`.`.",
"`.`.L.{.).`.`.`.`.`.`.`.`.`.`.`.K.R.F.q.M ^ Q ! ! Q ! ! ! ! ! ! ! k > ; - * $ # # o X o o %Xz.Y.^.`.`.`.{.L.`.`.`.`.`.L.).{.L.`.",
"`.`.`.`.T.).L.{.`.`.`.`.`.`.`.`.`.R.I.a.m ~ ! ! ! ! ! ! ! ! ! ! ~ ] 4 ; - = = - * = % # # @ z.!.~.`.`.`.).T.`.`.`.`.`.{.`.`.`.`.",
"`.`.`.`.`.`.`.`.`.`.`.`.`.`.`.`.'.R.I.h.x I ! ! ! ! ! ! ! ! ! ! ! / } j K c K A #.w g 3 - = N.!.R.`.`.`.{.).`.`.`.`.`.`.`.`.`.`.",
"`.`.`.`.`.L.{.).`.`.`.`.`.`.`.`.`.K.I.n.N Y ! ! Q ! ! ! ! ! ! ! ! ! / / Y Y T T R l l K q a g.Y.^.`.`.`.L.{.).`.`.`.`.`.`.`.`.`.",
"`.`.`.{.L.`.`.`.`.`.`.`.`.`.`.).).{.I.D.S ) ! ! Q ^ ! ! ! ! ! ! ! ( / ^ Q Q Q ! Q ~ Q E ] v h.I.T.`.`.`.`.`.`.`.`.`.`.`.`.`.`.`.",
"`.`.T.).{.`.`.`.`.`.`.`.`.`.`.].).`.R.D.X.Y Q Q Q Q ! ! ! ! ! ! ! ! ! ! Q ! ! ^ ! ! Q Q ) x g.Y.U.`.`.`.`.`.`.`.`.`.`.`.`.`.`.`.",
"`.L.).`.).`.L.{.`.`.`.`.`.`.`.). XK.'.H.>.` I ( ! ! ! ! ! ! ! ! ! ! ! ! ! ! ! ! Q ! ! ( T b h.I.R.`.`.`.`.`.`.`.`.`.`.`.`.`.`.`.",
"`.{.`.`.T.).{.).`.`.{.L.`.`.].T.).`.U.I.r.l I Q ! ! ! ! ! ! ! ! ! ! ! ! ! ! ! ! ! Q ! ^ P H f.R.R.`.`.`.`.`.`.`.`.`.`.`.`.`.`.`.",
"`.`.).T.).`.`.`.`.`.T.).`.`.`.`.T.T.R.Y.g. .U ! ! ! ! ! ! ! ! ! ! ! ! ! ! ! ! ! ! ! ! Q ` S v.I.T.`.`.`.`.`.`.`.`.`.`.].`.`.`.`.",
"`.`.{.`.{.`.`.`.{.`.).{.`.`.).T.}.U.T.I.F.y M Y Q Q Q Q ~ Q Q Q Q Q Q ! ! ! ! ! ! Q ^ I } 6 H.R.T.`.`.`.`.`.`.`.`.`.`.L.`.`.`.`.",
"`.`.`.`.L.`.`.`.L.`.`.`.).T.{.T.T.T.T.}.F.s.7 M U Y Y Y Y Y E U U U Y Q I I ~ Q I ~ E z 5 p.I.R.`.`.`.`.`.`.`.`.`.`.T.{.).T.`.`.",
"`.`.`.`.`.`.`.`.`.`.`.L.{.).{.L.T.`.`.T.I.A.p.y b b c b b N o.X. . .N N m N m z M z c | r.A.I.'.T.`.`.`.`.`.`.`.`.`.).`.`.{.`.`.",
"`.`.{.).`.`.`.`.`.`.`.`.`.`.`.`.~.~.[.].T.R.F.n.h.f.a.j.v.A.F.A.F.F.b.g.s.r.,.f &.&.9.c.H.Y.U.`.`.`.`.`.`.`.`.`.`.`.`.`.`.`.`.`.",
"`.`.L.T.`.`.`.`.`.`.`.L.`.`.].T.~.{.].P.).'.R.Y.I.I.R.I.I.I.R.R.R.R.Y.H.H.H.F.I.F.F.F.I.Y.R.`.T.`.`.`.`.`.`.`.`.`.`.`.`.`.`.`.`.",
"`.`.{.).`.`.`.`.`.`.`.{.`.`.`.`.~.].].]._.].).'.R.I.I.R.R.'.R.T.U.U.Y.^.^.Y.Y.!.Y.Y.R.'.T.`.{.`.`.`.L.`.`.`.`.`.`.`.`.`.`.`.`.`.",
"`.`.L.).{.`.`.`.`.`.`.`.`.`.`.`.{.].].].]._.L.].{.`.`.R.`.`.`.`.^.~.~.!./.}.^.U.R.K.L.`.T.P.T.{.`.`.{.`.`.`.L.{.`.`.`.`.`.`.`.`.",
"`.`.{.L.`.`.`.L.`.`.`.`.`.`.`.`.`.T.L.{.{.W.L.~.K.).{.{.).P.`.~.{.}.{.`.L.~.}.~.{.`.`.).{.~.~.L.`.`.`.`.).T.).`.).T.L.).`.{.L.`.",
"`.`.`.`.`.`.`.{.`.`.`.`.`.`.`.`.`.`.L.{.{.{.~.~.{.).].).].].T.T.T.`.).{.W.L.~.~.P.).).).Q.~.~.{.~.`.`.`.{.`.`.`.{.).{.{.`.`.`.`.",
"`.`.`.`.`.`.`.`.`.`.`.`.`.`.`.`.`.`.).`.T.~.~.T.~.W.].].].].^.}.`.).)._.].).).{.L.).{.~.{.~.W.].W.{.`.`.`.`.`.`.L.`.`.`.`.`.`.`.",
"`.`.`.`.`.`.`.`.`.`.`.`.`.`.`.).).).).T.~.R.^.~.~.W.[.].[.].T.T._.)._._.).].T.).).{.T.~.~.{.].].).L.{.).`.`.`.`.`.`.`.`.`.`.`.`."
};
