/* XPM */
static char *_643294143412[] = {
/* columns rows colors chars-per-pixel */
"64 64 230 2 ",
"   c #040002",
".  c #0B0101",
"X  c #07000C",
"o  c #0B040C",
"O  c #120000",
"+  c #1C0100",
"@  c #1B060B",
"#  c #1F1313",
"$  c #240000",
"%  c #2C0000",
"&  c #330000",
"*  c #3E0000",
"=  c #2D2D2C",
"-  c #39272C",
";  c #430000",
":  c #4C0000",
">  c #530000",
",  c #5D0000",
"<  c #640000",
"1  c #6C0000",
"2  c #750404",
"3  c #790000",
"4  c #781C15",
"5  c #4F2F0D",
"6  c #781D22",
"7  c #4F312F",
"8  c #4B3834",
"9  c #7C3135",
"0  c #605454",
"q  c #716868",
"w  c #840300",
"e  c #940000",
"r  c #9D0000",
"t  c #9C1714",
"y  c #A30001",
"u  c #AC0000",
"i  c #B91A08",
"p  c #A81613",
"a  c #B31614",
"s  c #B51B14",
"d  c #BE1A1B",
"f  c #BA181C",
"g  c #B4080A",
"h  c #86241A",
"j  c #9F2B1A",
"k  c #AB250D",
"l  c #A92204",
"z  c #B4220A",
"x  c #A9221B",
"c  c #B52618",
"v  c #B13218",
"b  c #AD1E25",
"n  c #B61C23",
"m  c #BB1D23",
"M  c #B41728",
"N  c #862D28",
"B  c #843529",
"V  c #962F33",
"C  c #A92426",
"Z  c #B72325",
"A  c #A6332E",
"S  c #B83A21",
"D  c #C70E0C",
"F  c #D60E02",
"G  c #DC0C04",
"H  c #D50E0B",
"J  c #DC0E0B",
"K  c #D90603",
"L  c #CB1306",
"P  c #CC160C",
"I  c #C41C0B",
"U  c #CB1B0D",
"Y  c #C51303",
"T  c #DB1306",
"R  c #D3130B",
"E  c #DC130B",
"W  c #D2190E",
"Q  c #DA160A",
"!  c #C50D15",
"~  c #D30D14",
"^  c #DC0B11",
"/  c #D90915",
"(  c #C41415",
")  c #CC1515",
"_  c #C51A13",
"`  c #CD1B12",
"'  c #C31419",
"]  c #CC1419",
"[  c #C61C1C",
"{  c #CC1C1D",
"}  c #D41313",
"|  c #D91412",
" . c #D01B14",
".. c #D2121A",
"X. c #D5181B",
"o. c #E40302",
"O. c #EC0402",
"+. c #E30B05",
"@. c #EC0904",
"#. c #E50709",
"$. c #ED050A",
"%. c #E40D0A",
"&. c #EC0B0C",
"*. c #F40302",
"=. c #FC0202",
"-. c #F30A04",
";. c #FC0906",
":. c #F2050A",
">. c #FC050A",
",. c #F30A0B",
"<. c #FB090B",
"1. c #E3120C",
"2. c #EB120C",
"3. c #E41107",
"4. c #EA0512",
"5. c #E20D13",
"6. c #ED0C15",
"7. c #EC0B19",
"8. c #F50A12",
"9. c #E11111",
"0. c #E91317",
"q. c #F31112",
"w. c #C6220F",
"e. c #C42313",
"r. c #CA2818",
"t. c #D22413",
"y. c #C91B24",
"u. c #D81324",
"i. c #C72122",
"p. c #C43421",
"a. c #CA3525",
"s. c #D43A28",
"d. c #C93837",
"f. c #D93234",
"g. c #EC2A2A",
"h. c #D6442E",
"j. c #D54A34",
"k. c #D8533A",
"l. c #C8413B",
"z. c #E2523B",
"x. c #D83143",
"c. c #966142",
"v. c #CF5451",
"b. c #E55B45",
"n. c #FF4F52",
"m. c #FF6F58",
"M. c #E17457",
"N. c #F6735C",
"B. c #E36B50",
"V. c #D85E6D",
"C. c #FE7C65",
"Z. c #FF7E68",
"A. c #ED7370",
"S. c #F4676A",
"D. c #C7947F",
"F. c #FC8869",
"G. c #FF9075",
"H. c #FF877D",
"J. c #938F89",
"K. c #AA8D91",
"L. c #DF8386",
"P. c #FF9695",
"I. c #FF9484",
"U. c #C8B08A",
"Y. c #FFA48A",
"T. c #FFAA8E",
"R. c #FFAD91",
"E. c #FFB496",
"W. c #FFB59B",
"Q. c #FFBA9C",
"!. c #C8BBB7",
"~. c #DBB1B3",
"^. c #FFBDA1",
"/. c #FFB2AE",
"(. c #FFC19E",
"). c #FFCA9F",
"_. c #D9C5A0",
"`. c #FFC3A4",
"'. c #FFCBA5",
"]. c #FFC6AB",
"[. c #FFCCA9",
"{. c #E5DEAD",
"}. c #ECDCAD",
"|. c #EAD8A6",
" X c #FFD3A6",
".X c #FFD4AB",
"XX c #F2DEAE",
"oX c #FCDBAC",
"OX c #F3D5A8",
"+X c #FFC9B8",
"@X c #EEDDB0",
"#X c #EBDAB6",
"$X c #FFD4B3",
"%X c #F1DFB1",
"&X c #FCDDB2",
"*X c #FFD1BB",
"=X c #F7D8BC",
"-X c #EDE1AE",
";X c #E7E3AE",
":X c #F0E0AF",
">X c #FBE1AE",
",X c #EDE1B1",
"<X c #EBE6B3",
"1X c #F3E2B3",
"2X c #FCE1B2",
"3X c #F7E6BA",
"4X c #C4BFC5",
"5X c #D7C8C8",
"6X c #FFCCCC",
"7X c #FFC6C9",
"8X c #FFCED3",
"9X c #FFD4D5",
"0X c #FFD5DA",
"qX c #FFDCDD",
"wX c #FFD9D7",
"eX c #E3D2D8",
"rX c #FFE2DD",
"tX c #FFE8DD",
"yX c #F5E2C2",
"uX c #FFDCE3",
"iX c #FFE4E3",
"pX c #FFEAE4",
"aX c #FFE6E9",
"sX c #FFEBEB",
"dX c #FFF3ED",
"fX c #FFF4F3",
"gX c #FFFAF5",
"hX c #FFF5F9",
"jX c #FFFBFA",
"kX c #FFEAF2",
/* pixels */
":X:X:X:X:X:X:X:X:X:X:X:X:X:X:X:X:X1X}.:X:X:X:X:X:X:X:X1X}.:X:X:X:X:X:X:X:X}.:X:X:X:X:X:X:X:X:X:X:X:X:X:X:X:X:X1X}.:X-X:X:X:X:X:X",
":X:X}.1X:X:X:X:X:X:X:X}.:X:X:X:X:X:X:X:X:X:X:X-X:X:X:X}.1X:X:X:X:X:X:X:X:X1X:X:X:X-X:X:X:X:X:X:X:X:X:X:X:X:X:X:X:X:X1X:X:X:X:X:X",
":X:X:X:X:X:X:X:X:X:X:X1X:X:X:X1X:X:X:X:X:X:X:XXX:X:X:X:X:X:X:X:X:X1X-X:X:X:X:X:X:X1X:X:X:X:X:X}.:X:X1X-X:X:X}.1X:X:X:X:X:X:X:X:X",
":X:X:X:X:X:X1X:X:X:X:X:X:X-XXX-X:X:X:X:X:X:X1X-X:X:X:X:X:X:X:X:X:X:XXX-X:X:X:X:X:X:X:X:X:X:X:X1X:X:X-XXX:X:X:X:X:X:X:X:X:X:X:X:X",
":X:X:X:X:X:X:X:X:X:X:X:X:X:X1X}.:X:X:X:X:X:X:X}.:X:X:X:X:X1X:X:X}.1X:X:X1X:X:X:X:X:X:X:X:X:X:X:X:X:X:X:X:X:X:X:X:X:X:X:X:X:X:X:X",
":X:X:X:X:X:X:X:X:X:X:X:X:X:X:X:X:X:X1X}.:X:X:X1X1X:X:X:X:X:X:X:X:X:X:X:X}.:X:X:X:X:X:X:X:X:X:X:X1X:X:X:XXX1X:X:X:X:X:X:X1X}.:X:X",
"1X-XXX}.:X:X:X:X:X:X1X}.:X:X:X:X:X:X1X:X:X:X:X:X}.:X:X:X:X:X:X:X:X:X:X:X1X:X:X:X:X:X:X:X:X:X:X:X}.:X:X:X-X:X:X:X:X1X:X:X:X:X:X:X",
"-XXX-X1X1X}.:X:X:X:X:X:X:X:X:X:X-XXX-X:X:X:X:X:X:X:X:X:X:X:X:X:X:X:X-XXX-X:X:X:X:X:X:X:X:X:X:X-X:X:X:X:X:X:X:X:XXX-X:X}.1X:X:X:X",
":X:X}.1X1X:X:X:X1X-X:X:X:X:X:X:X:X:X:X:X:X:X:X:X:X}.:X:XXX1X:X:X:X:X:X:X:X:X:X:X:X:X}.1X%X1X|.1X:X:X:X:X:X:X:X:X-X:X:X:X:X:X:X:X",
":X:X:X:X-X:X:X:X-XXX}.1X:X:X:X:X:X:X:X:X:X:X:X:X:X1X:X:X-X:X:X:X:X:X:X:X:X:X:X:X}.1X:X-X-X@X3X}.1X:X:X:X:X:X:X:X:X:X:X:X:X:X1X:X",
":X:X:X:XXX-X:X:X:X:X:X:X:X:X:X:X1X}.:X:X1X:X:XXX:X:X:X:X:X:X:X:X@X1X%X1X%X@X1X@X3X}.XX}.@X1X%X}.}.:XXX-X:X:X1X}.:X:X1X:X:X:X}.:X",
":X:X:X:X:X:X:X:X:X:X:X:X:X:X}.1X:X:X:X:X:X:X:X-X:X:X:X:X:X:X:X}.,X@X%X@X%X,X@X%X}.3X%X}.%X}.1X@X:X:X-X1X:X:X:X:X:X:X}.:X:X:X:X:X",
":X1X}.:X:X:X1X:X:X:X:X}.:X:X:X:X:X:X:X:X:X}.:X:X:X:X:X:X-XXX-X1X%X%X@X%X@X1X,X%X}.}.,X3X}.3X@X1X:X:X:X:X:X:X:X:X:X:X:X:X:X:X:X1X",
":X:X:X:X:XXX}.:X:X:X:X1X:X:X:X:X:X:X:X:X:X1X:X:X:X:X}.1X1X}.XX-X1X@X1X@X1X@X%X%X%X%X1X{.}.1X@X%X:X:X:X:X:X:X:X:X:X:X:X:X:X:X:X:X",
":X:X:X:X-X-X1X:X:X:X:X:X:X-X1X:X:X:X-X@X:X:X%X-X:X:X:X:X@X1XXX%X}.%X1X%X}.%X%X%X1X}.%X3X}.}.1X,X:X:X:X:X:X:X:X:X:X:XXX,X:X:X:X:X",
":X:X:X:XXXXX-X:X:X:X:X:XXXXX:X:X-X,X%X%X1X%X&X%X%XXXXXXXoXoX.X.XoX.X$XoXoX%XXXXX%X%X%X5 U.1X}.1X-X-X}.1X:X%XXX}.XX1X-X-X:X:X:X:X",
",X:XXX:XXX:X:X:X}.,X,X1X%XXX:X-X-X-X%X%X#XyX=X=XXX&XOXoX X[.].].`.].].]. X XoXoX%X&X3X. O _.1X}.<X;X}.%X%X%X&XOX%X@X-X-X-X:X:X,X",
",X%X:XXXXX:X-X:X}.-X,X1X&XXX:X-X-X;X3X%XyX$ =X+X$X.X'.[.W.C.p.c w.z a.C.^.[..X[.$X+X#XO + *X%X1X;X;X3XXX%X%X%X&X%X-X-X-X-X:X1X-X",
"%X%X:XXX>X:X-X>X-XXX@X%X:X:X-X-X;X-X>XOXU.+ 5 ].Q.S z i i _ H 3.G 3.K E ` i s v I.+XU.$ % *X$XOX:X|.|.1X1X&X%X}.XX}.-X-X:X%X,X%X",
"%X,X:X:X-X:X:X|.%XXX1X%X:X-X;X-X>X>X X Xc.% & B j c e._ [ [ ` H @.-.&.5.! y.a Z A N & & > v.`.$XoXoX3X;X%X}.XX3XXX%X-X-XXXXX@XXX",
"%X%X:X,X-X-XOX:X%X%X&X%X-X-X;X:X&X.X].Y.h * % ; 4 x t t 2 > , c Q K ~ y., ; ; 6 : & * : n d e.Y.[.oXOX|.-X3X{.-X:X:X-X-XXXXXXX1X",
"1X%X:X-X-X-X:X>X%X%X%X%X-X-X:XoX].].Z.c s > ; ; : : : : & $ % ; p m C : % $ $ $ $ ; : n ~ 7.F t.^. X&XXX1X}.1X1X:X:X-X-X%XXXXXXX",
"}.%X:X:X:XXXXXoX%X%X1X:X-X:X X[.Y.r.L R } y.< > : : ; & $ O O + * 6 & $ + . . + & N b u.7.$.@.G i [. XoXXX:X:X<X%X:X-X,XXXXX:X-X",
"@X1X:X:X:XXXXXXX%X%XXX:X:XoX X^.I G @.&.#.^ ' Z C V 9 8XK.o   O $ % + O . = q gXsXqXn ..$.=.*.@.U k .X XoX:X:X-X@X%X,X}.XXXX1X-X",
",X1X}.:X%XXX%X%X1X{.1X1XXX X].c G *.;.*.>.,.5.] b L.sXfXgXJ.  . % & % + . jXjXgXdXrXwX( 0.O.;.@.T w.Q.[.oXoX1X-X1XXX,X-XXX:X-X-X",
",X@X:XXXXXXX&X%X{.;X1X|.oX[.].I @.=.=.=.=.*.:...S.kXfXjXgXgXJ.O ; h 9 & 8 jXq @ sXpXwXd %.O.*.@.o.W k [.oX|.1X}.1X@X,X,XXX%X-X,X",
"-X-XXX:X%XXX%XXX;X<X,X%XoX'.p.| -.=.*.=.*.=.,.] uXkX5X    . 4XfXC a A aXfX  X   . fXiXf.H -.*.=.O.1.I Q. XOX1X:X%X%X%X@XXX:X-X;X",
":X}.1X:XXXXX%X%X;X<X}.&XoX[.e.J -.*.=.>.*.<.&.g.aXhX  o . . o kXy.| d.iX~.X X X X fXiXa.| @.=.=.;.o.L W.[.oX:X}.%X@X%X%XXX:X-X-X",
"XX:X:X-X-X:X%X%X<X;X1XOXoX(.I #.*.=.=.=.=.O.K S.aXfX        !.kX! ^ y.0XaX. X . # sXrXs K O.=.=.=.O.G h.[.oXXX3X%X%X%X%XXXXX-X-X",
"XXXX-X-X-X:XXX1X{.<X2X&X X'.U @.*.=.=.=.=.-.%.d pXsX-   . O fX0X..7.u.0XsXaX- eXgXpX6Xt.9.>.=.=.=.;.+.w.'.oXXXXX%X%X%X%XXXXX-X-X",
":X:X-X-X;X-XXXXX<X-XoX X X'.U &.;.=.=.=.=.-.&.{ rXdXfX5X!.dXpXb %.O.| d.rXsXhXhXsXqX' #.-.*.=.=.=.;.O.Y '.oX%X%X@X%X%X&XXXXX:X-X",
"XXXX:X-X-X-X:XXX,X}.XXoX'.Q.L &.:.=.=.=.=.*.O.~ C rXrXpXtXrXv.X.O.-.%.P l.rXiXiXP.n 7.*.=.=.=.=.=.*.-.W '. XoX%X,X,X%XXXXXXX:X:X",
":X:X-X:X:X-X1X,X:X:XXXoX(.z.F O.=.=.=.=.=.*.-.@.G H | g.| E %.$.-.*.*.@.+.R R | ^ %.$.>.=.=.=.=.=.=.@.T F.).oX>X:X-X%X%X%X%X-X-X",
":X:X|.XXXX:X}.,X}.XXXX X`.w.G -.=.=.=.=.=.=.*.*.=.=.*.;.=.=.=.=.=.=.=.=.=.=.=.=.*.,.$.<.=.=.=.=.=.*.*.Q l ).).oX:X-X%X%X%X1X-X-X",
":X:XXX-X:X:X@X,X1XXX}.'.].i 1.-.=.=.=.=.=.=.=.=.>.*.8.>.=.=.=.*.=.=.=.=.=.=.=.*.&.n.| %.*.*.=.=.=.=.-.G z ).).oX:X,X%X%X%X:X}.-X",
":X:X:XXXXX:X,X,X,XXXoX X`.I G *.=.=.=.=.=.=.=.*.#.7./ #.,.=.=.=.=.=.=.=.=.=.*.$.H 7X8XD &.=.=.=.=.=.*.3.w.(. XoX:X-X%X%X%X:X:X-X",
":X>XXX:XXX:XXX,X}.%X2X XQ.w.G O.=.=.=.=.=.=.-.+...7X6XX.#.;.=.=.=.=.=.=.=.*.:.%.{ 8X8X' o.>.=.*.=.=.*.&.L T.[.oX1X,X%X%X%XXXXXXX",
":X:XXXXXXX:XXX-X%XXX&X X^.I 3.-.*.=.=.=.=.*.@.R Z qX9Xa 9.-.*.=.=.=.=.=.=.*.&.^ d.qXuXn 9.*.=.=.=.=.=.o.Q m.'.OX@X@X%X%X&XXXXX-X",
"XX:X:XoXXXXX1X@X1XXXXX X].I 3.-.*.=.=.=.=.=.@.) 6XqXuXC } ,.=.=.=.=.=.=.*.-.O.} P.iXiXv.} O.;.*.=.=.=.,.F r.'.oXXX-X%X%X%XXXXXXX",
":X:X:X:X:XXX@X@X%X%X&X XQ.I +.O.*.=.=.=.=.=.$.` rXsXpX/.( %.*.=.=.=.=.=.*.O.%.[ iXiXsX/. .@.*.=.=.=.;.*.&.U '.oXXX,X%X%X%XXXXX-X",
"XX:X:X>X:X|.:X:X%X%XoX XW.I +.-.*.=.=.=.=.=.O.] iXfXsXiXc ~ *.=.=.=.=.=.*.&.H c iXdXdXrX_ O.*.=.=.*.=.>.O.t.(.oX:X-X%X@X1XXX-X-X",
"XXXX:X|.>X-X:X:X%XXXoX XR.I +.*.*.=.=.=.=.=.$.{ iXdXdXsX+X[ 7.:.=.=.=.*.<.#.{ H.pXdXdXtX` ,.=.=.=.=.=.*.:.P [. XXX-X,X%XXX-X-X-X",
":X:X:X>XXX:X:X1X%XXXXX XR.I +.*.=.=.=.=.*.-.4.' pXfXjXpXrXS u.6.*.=.*.>.:./ s tXdXfXgXtX! *.>.=.=.=.=.*.:.W ].oXXX-X,X,X:X:X:X-X",
":X:XXXXX:XXX%XXX%X1XoX XR.U +.-.=.=.=.;.*.*.4.y.aXfXjXfXpXrXm ..&.o.,.4.4.X.A.pXdXgXsXpXy.4.o.<.=.=.=.=.$.W `. XoXXX@X%X:X:X:X-X",
"-X:XXXXXXX:XXX-X%X%XoX XT.I +.-.=.=.=.*.*.:.7.m 0XfXkXhXfXpXuXZ ) | ^ / u.x.qXsXgXjXjXaXn / 7.&.=.=.=.*.-.P W. XoXXXXXXX:X:X-X-X",
"-X-X:X:XXX:XXX-X%XXXXX[.E.I +.*.=.=.=.=.>.o./ m V fXjXjXfXdXaXC e r e a M V.sXfXjXjXhXsXC y u E O.=.=.=.@.U M. XoXXX%X-XXX:X-X-X",
"}.:X:X:XXX:X@X,X%XXX2X X^.I K *.=.*.=.O.:.5.i.1 & 7 0 =     $ * , < , : * % O o     O + ; : , 3 o.=.=.>.o. .M. X.X%XXXXX-X-X-XOX",
":X-X:XXX:XXX:X%X1X%XoX[.`.I +.=.=.>.;.o.q.y 1 , ; & & $ % % * 2 p a c w : * & & % & & ; , x p u -.=.=.*.@.I W.[.oX%XXXXX>X-X>X-X",
"-X:X:X:X|.>X:XXX1X%X&X[.`.U +.=.>.=.*.O.9.e w D ) ) ] ] ) ] } H G +.+.%.J H } } ) } } | J G &.@.*.=.=.;.1.i '. XoXXX%X%X%X@XXX%X",
"-X}.:X:X>X>XoX:X@X}.&X[.R.z @.*.=.>.8.O.+.u 0.+.,.O.=.=.=.=.;.=.=.=.=.=.=.=.=.=.=.=.=.=.=.=.=.=.=.*.=.o.L C.[.oXXX:X%X%X-X%X%X%X",
"-X:X:X:X|.:XXXXX,X,X%X&X'.z L @.=.=.*.;.,.@.O.-.*.=.=.=.=.=.=.=.=.=.=.=.=.=.=.=.=.=.=.=.=.=.=.=.=.*.-.+.I Q.oX>X:X-XXX,X@X,X%X%X",
"}.-X:X:X>X-XoX:X,X,X&X.X'.v w.G O.O.;.*.O.=.*.=.=.=.*.=.=.=.=.=.=.=.=.=.=.=.=.;.=.=.=.=.*.=.=.=.;.-.o.R v (. X:X:X-XXX%X,X,X-X1X",
"1X-X,X-X-X:X-X:X-X}.}.oX[.].k i T 2.@.@.-.-.*.*.O.;.-.@.-.-.O.-.*.>.=.:.;.=.=.=.=.*.*.,.$.:.,.o.$.o.%. .v [. X2XXX%X%X%X,X,X;X-X",
",X@X,X,X-X:X>X:X,X-X3XXXoX'.'.k.i Y W T K G 1.J J E F F Q 3.Q T Q Q J 1.2.+.+.%.G +.1.| R P U ` P t.r.b.]..XoX:X1X%X%X%X,X,X-X-X",
"1X,X,X,X-X:X-X:X-X1X}.XXoX[. X].`.Q.N.j.p.h.s.s.h.p.b.m.k.h.z.z.B.F.C.j.z z r.w.r.s.p.k.G.R.E.].].(.(..X XoX-X;X;X,X,X,X@XXX1XoX",
"@X%X@X,X-X:XOX:X-X}.1X}.XX2X.X X[.[.[.'.+X^.`.].].'.].`.[.'.'.'..X X[.[.`.'.`.`.).(.'.[. X X.X.XoXoX>XOX1X}.<X-X,X@X,X,X-XXX%XoX",
"%X%X1X}.-X:XXX:X:X:X-X-X:XXX&XXXoXoX&X.X.X.X X.X.X.XoX X.X.X.X.X$X.X.X X X X XoX X X X XoXoX&X%X:X-X:X:XXXXXXX%X%X%X@X,X,X1XoXoX",
"%X1X@X-X-X-XXXXXXX:X,X-X,X,X@X@X1X-X@XXX%X%XoXXX1XoX%XXX1XXX%XXX&X%XoXXXXXXXoXXXXXXX:X:X>X:X%X%X-X-X-X:XXXXX%XXX&X%X1X@X}.:XoXXX",
"%X%XXX-X:X:X@XXXXXXX1X-X,X,X,X,X,X:X:X:X%XXXXX:XXXXXXXXXXX%X%XXX%X%X%XXXoX:X:X:XXX:XXX%XXX%X%X%X-X-X-X:X%X%XXXXXXX%XXX-X-X-X}.:X",
"XXXXXX:X:X:X1X%X%XXX}.:X,X,X<X,X-X:X:X:X:X-X-X-X:X-X:XXXXXXXXXXX%X%X&X%X:X:X:X:XXXXX%X%X%X%X%X%X:X:X%X:X}.1XXX:XXXXXXX:X,X,X-X-X",
"XXXXXX-X%X,X%X%X:XXXXXXX,X-X,X,X}.:X:X:X-X-X:X-X-X:X-X:X:XXXXX:X:XXX:X:X:X-X-X:X,X,X,X,X@X%X1X:XXXoXXX:X:X-X:X:X:XXXXXXXXX,X;X;X",
"XXXX:X:X,X,X,X%X%XXX%X%X-X:X1X;X-X-X:X-X:X:X:X:X-X-X:X-X:X:X%X%XXXXX:X:X:X:X,X-X,X,X,X,X,X-X-X:XXXXXXX1X:X-X:X-X:X%XXX:XXX-X;X<X",
":X:X-X-X,X@X@X,X,X%XXXXXXXXXXX-X-X-X:X:XXXXXXXXX-XXX-X-X-X%XXXXX:X:X:XXXXXXXXXXX%X@X:X-X-X-X-X-X-X:XXX:X:X:X:X-X:X:XoX:XXX:X-X;X",
"-X-X-X-X,X,X,X,X,X%XXX%XXX%XXX@X,X-X-XXXXXXX%XXXXX-X-X-X,X:XXXXX-X-X:X:XXXXXXXXXXX1XXX-X-X-X-X;X-X,X}.-X:X:X-X:X:X:XXX:XoX:X,X;X"
};
