/* XPM */
static char *_643294100760[] = {
/* columns rows colors chars-per-pixel */
"64 64 242 2 ",
"   c #020203",
".  c #030506",
"X  c #302E33",
"o  c #6E346C",
"O  c #6E3667",
"+  c #723C68",
"@  c #6D2E79",
"#  c #742E7B",
"$  c #73347C",
"%  c #79377C",
"&  c #7B3C7C",
"*  c #733777",
"=  c #6E317F",
"-  c #5A4662",
";  c #7A4475",
":  c #714A67",
">  c #534F4E",
",  c #84457E",
"<  c #6F1E9E",
"1  c #6F2D87",
"2  c #782E8D",
"3  c #752C86",
"4  c #753283",
"5  c #7B3B81",
"6  c #74338C",
"7  c #7A338C",
"8  c #783886",
"9  c #6E269A",
"0  c #762B93",
"q  c #7C2B95",
"w  c #752B9C",
"e  c #7A2B9C",
"r  c #782598",
"t  c #7A329B",
"y  c #773496",
"u  c #6E3181",
"i  c #7C1DAB",
"p  c #7C1DB4",
"a  c #7D1DBB",
"s  c #7918B4",
"d  c #7424A3",
"f  c #7C24A5",
"g  c #7B2BA4",
"h  c #7525AB",
"j  c #7B25AC",
"k  c #762AAC",
"l  c #7C2CAC",
"z  c #742AA4",
"x  c #7834A7",
"c  c #7C24B3",
"v  c #7B2AB4",
"b  c #7D22BA",
"n  c #7825B6",
"m  c #7E4081",
"M  c #7E44A8",
"N  c #7E1DC4",
"B  c #7F1AC9",
"V  c #7E0FC3",
"C  c #7E22C3",
"Z  c #822D9B",
"A  c #812B96",
"S  c #833898",
"D  c #813C8D",
"F  c #811CB5",
"G  c #841CBC",
"H  c #871DBD",
"J  c #821FAD",
"K  c #812BA2",
"L  c #8124AD",
"P  c #8229A9",
"I  c #833BAC",
"U  c #8223B3",
"Y  c #832BB3",
"T  c #8323BB",
"R  c #8728BB",
"E  c #8536B8",
"W  c #8C4797",
"Q  c #92459F",
"!  c #8F508F",
"~  c #A76C9C",
"^  c #8C47B8",
"/  c #9250B1",
"(  c #9661BF",
")  c #9A61A5",
"_  c #A666AA",
"`  c #AB6CB5",
"'  c #B676B2",
"]  c #99608D",
"[  c #8416C5",
"{  c #831BC4",
"}  c #891BC5",
"|  c #8516CA",
" . c #8B16CB",
".. c #851BCB",
"X. c #8A1BCC",
"o. c #8917C5",
"O. c #8C17D1",
"+. c #871BD0",
"@. c #8B1CD2",
"#. c #9019D5",
"$. c #8422C2",
"%. c #8922C4",
"&. c #8521C9",
"*. c #8A21CC",
"=. c #882AC3",
"-. c #8D32C5",
";. c #963BC9",
":. c #9221D2",
">. c #8E29D5",
",. c #9646C7",
"<. c #974FCC",
"1. c #A955D9",
"2. c #A850D4",
"3. c #AA67DA",
"4. c #B366DC",
"5. c #B469DD",
"6. c #B86ADC",
"7. c #B371CA",
"8. c #AD56E3",
"9. c #B359E3",
"0. c #AC4FE9",
"q. c #B563E4",
"w. c #BB6AE4",
"e. c #B664EB",
"r. c #BB65EC",
"t. c #B66AEA",
"y. c #BC6BEB",
"u. c #BA68E4",
"i. c #BB74E7",
"p. c #BC64F2",
"a. c #BB68F3",
"s. c #B66FEE",
"d. c #C269EC",
"f. c #C272ED",
"g. c #C56AF7",
"h. c #D37AFE",
"j. c #C06ED4",
"k. c #918E93",
"l. c #BB89AC",
"z. c #C995BC",
"x. c #C386BF",
"c. c #EBDCA6",
"v. c #EDD7AD",
"b. c #EDDDAC",
"n. c #E6DAA8",
"m. c #F2DFAE",
"M. c #F1DBA8",
"N. c #EEDDB3",
"B. c #EEDDBB",
"V. c #EDD6B4",
"C. c #F1DEB3",
"Z. c #F3D5BC",
"A. c #F3DCBB",
"S. c #F9DABD",
"D. c #FADABA",
"F. c #EBCDB1",
"G. c #EDE3A6",
"H. c #EDE1AD",
"J. c #E7E5A8",
"K. c #F1E1A6",
"L. c #F0E0AD",
"P. c #EDE0B2",
"I. c #EDE2B9",
"U. c #F2E2B3",
"Y. c #F3E3BA",
"T. c #FAE4BC",
"R. c #F8E6B8",
"E. c #BB85DA",
"W. c #BAB7C0",
"Q. c #C889C5",
"!. c #D49BCA",
"~. c #CC92D5",
"^. c #DCA9C5",
"/. c #DBA8C8",
"(. c #DAA4D6",
"). c #E9B8D3",
"_. c #F1B9D4",
"`. c #E9AFD7",
"'. c #C891E8",
"]. c #D893E8",
"[. c #CC87F5",
"{. c #D48CFC",
"}. c #DC8CFF",
"|. c #D588F6",
" X c #CE99F7",
".X c #D393F3",
"XX c #D594FD",
"oX c #DA92FE",
"OX c #DA99FD",
"+X c #D798F5",
"@X c #DC8FEF",
"#X c #E796FF",
"$X c #E48AFF",
"%X c #DAA7F8",
"&X c #E4A6E3",
"*X c #EBB4E5",
"=X c #EAACFF",
"-X c #E9B2FF",
";X c #F8BAFB",
":X c #F5B8EC",
">X c #C9CCCE",
",X c #EDCFC9",
"<X c #F4CDCC",
"1X c #F4D5C3",
"2X c #FAD6C3",
"3X c #F5DAC3",
"4X c #FADCC3",
"5X c #F6D5CB",
"6X c #FAD6CC",
"7X c #F6DACC",
"8X c #FBDACC",
"9X c #EEC6D7",
"0X c #FACCD6",
"qX c #F6CADD",
"wX c #FCCDDC",
"eX c #F5CBD3",
"rX c #FAD4D4",
"tX c #FDDAD3",
"yX c #FDD3DC",
"uX c #F7D6D8",
"iX c #EFD9C2",
"pX c #F7E0C1",
"aX c #F9E1C3",
"sX c #FCCDE4",
"dX c #FCC5EC",
"fX c #FDCCEB",
"gX c #F6C6E7",
"hX c #FDD2E4",
"jX c #FFD2EB",
"kX c #FADBE6",
"lX c #FDC5F3",
"zX c #FFCBF3",
"xX c #FEC5FC",
"cX c #FFCAFF",
"vX c #FFD3FD",
"bX c #FFDDFF",
"nX c #FFD3F1",
"mX c #FFE4FF",
"MX c #FFECFF",
"NX c #FFF3FF",
"BX c #FFFAFF",
"VX c #F6FBF7",
/* pixels */
"H.H.H.H.m.m.m.m.m.C.C.P.H.H.H.H.G.b.L.U.N.C.C.m.m.K.K.K.L.P.P.H.M.L.K.G.L.H.H.U.C.C.C.C.C.H.H.J.P.C.C.C.L.M.H.H.L.U.D.C.m.L.U.U.",
"H.H.H.L.m.m.m.m.C.C.C.P.P.H.H.H.J.P.b.U.C.U.C.m.L.K.K.K.P.P.H.H.L.L.K.H.H.H.P.P.C.C.D.C.C.H.H.H.U.N.C.C.C.m.H.K.H.L.C.C.m.M.P.P.",
"N.H.L.L.m.m.m.C.C.C.C.C.N.H.L.H.I.I.Y.N.C.D.M.M.U.H.H.H.P.C.L.m.L.L.L.b.P.P.P.H.L.m.m.m.L.P.P.P.P.I.C.A.A.N.P.P.H.L.L.m.m.L.H.H.",
"L.H.C.m.m.C.C.L.L.C.U.C.C.U.C.P.N.I.B.A.C.M.m.D.C.P.H.P.I.C.m.m.m.m.C.U.P.P.P.P.L.L.L.m.U.N.P.P.H.H.N.C.I.N.I.P.H.H.L.m.m.L.H.H.",
"U.C.C.C.C.C.C.C.C.L.m.m.m.U.C.C.M.R.Y.A.C.R.v.m.m.C.C.C.B.A.C.m.C.C.I.N.P.P.I.N.C.m.m.m.b.U.P.P.H.G.K.L.L.L.P.P.P.P.L.L.m.K.K.H.",
"C.m.C.C.C.C.N.U.L.L.m.L.m.N.C.C.D.V.6X8X4XZ.Y.V.b.U.C.C.B.A.U.L.C.C.C.U.P.N.P.P.C.m.C.m.C.C.C.C.H.K.L.L.L.U.P.I.I.P.m.m.m.m.H.H.",
"m.C.C.C.C.C.N.H.H.L.L.L.m.C.C.D.2XyX).9XkX<X3XpXC.m.C.C.C.C.L.K.M.L.C.N.C.L.L.m.K.m.K.m.L.m.C.A.C.S.S.Z.D.D.C.A.B.B.N.L.m.m.N.I.",
"m.m.C.C.C.I.P.P.H.H.K.M.m.m.C.S.0X~ % = o gXsX6X3XC.S.C.C.U.M.K.L.L.m.C.H.L.L.H.L.m.K.K.m.m.C.3X4XrXwX0X<X2XS.C.iXB.U.b.C.m.I.N.",
"L.L.L.H.P.P.H.H.H.G.L.c.L.M.U.4XfX# e d t 3 _ fXrXZ.V.Y.n.U.L.b.K.H.L.H.H.H.H.H.N.U.N.U.L.b.U.3XhXzXW 4 & /.6XS.A.I.C.C.C.N.P.P.",
"L.L.L.H.P.J.J.H.H.H.b.M.L.L.U.3XzX2 j T U f e D zXkX7XB.U.c.L.L.L.L.U.U.H.U.L.H.I.I.B.b.U.U.v.5XlXW g g 0 5 wXS.A.A.C.m.L.L.C.H.",
"L.K.H.H.H.J.H.P.P.N.R.m.U.U.M.1XzX7 v C a T p f 3 :XqX6XC.L.n.U.L.n.N.I.C.n.n.U.N.P.N.P.b.U.A.uX_ P c T l S 0XS.A.U.C.L.K.L.L.H.",
"L.L.J.H.H.H.H.P.C.C.v.T.b.b.b.aXdXy z b T T $.c Z 3 Q.sX6XY.N.C.Y.3X7X5X5XaXT.v.I.B.Y.N.aXB.uXz.2 h T a Y W sXS.A.P.U.b.L.K.K.G.",
"m.m.L.L.H.H.H.C.A.Z.4XS.S.Y.m.3XnX4 9 n }.#Xh.-.f e q Q.fXyX1X2X5XyXkXjXsX0X6X2XZ.Z.D.Z.1XyX:X* w 9.$X$Xf y yXD.C.N.L.L.K.L.L.K.",
"m.m.L.H.H.H.I.A.4XZ.1X2X4XN.N.A.jX' w 3.{.}.}.}.f.g l 0 ;XlXfX).!._ W Q ` Q.`.sXsXjXwXhXfXcX3 e l }.}.}.g y hXD.C.H.P.H.L.M.L.L.",
"D.C.L.L.H.P.N.A.1XtX<X8X1XN.T.A.5XgXy 3.OX[.OX.X.X|.d n E Z Z q g f j U K e A q 0 e t 0 @Xj.r K z #X}.oXl 1 jX4XL.H.H.P.C.C.U.C.",
"C.C.C.C.A.3X5XrXsX+ + : eX5XA.A.3XgX6 ^ +X+X.X.X.XXX,.n F %.H H %.{ X.} H H H T $.a b U L J R 9.{.XX@X{.E y gXA.L.G.b.I.C.A.C.C.",
"C.Y.C.Z.tXwXfXlXQ w f 0 m sXZ.A.4XhXy ^ .X.X X X XoX,.T } { ..&..... .X.o.} [ ..&.} } H H G X.h..X+X.XXXY 9 kXD.m.b.C.C.m.C.C.C.",
"N.S.1XhXz.& ) ;XU a { c 1 vX7XY.3XeX) y .X.X X X{.[.L F ....[ ..+.+. . .X. .X...+.V :.o.X.....b oX.X+X{.k y wXA.C.U.C.m.C.C.m.C.",
"T.1XhX; y r A i R G %.L 3 zX5XV.S.rX:Xu @X.XXX{.XXk ;.+.B @.X. ...O.O.O.#. .......V #. . .o.{ $.[.oX[.oXz y eXY.N.C.m.C.U.C.C.m.",
"C.5XgXu g d.1.L F H { U # jX7XiXZ.rXnXu t |.r.<.-.e.p.p.| O.X.| X.X.O.O.O.O.+.+...:. .#.X.:.X.F v {.}.}.0 ) eXN.U.N.m.C.m.C.m.L.",
"A.7Xl.5 4.u.d.2.R } H P _ eXB.I.A.7XgX6 t P j ,.6.f.e.;.*.| X.@.O.X.O.O.O.+.+.+.@.[ }  . .o.o.} T }.}.|.7 &XtXA.C.P.L.L.C.N.H.J.",
"A.5X).@ 7.w.9.g.U F H K dXtXN.N.3X,XbX` g v ;.d.i.5.8.n } } X.......+.O.+.+.+.B ..&.X.o.} X.o.X.{ s 2.r * hX1XR.U.P.L.L.C.m.H.J.",
"V.7XhXo w ,.r.;.K P J ;XfX2XY.U.N.8XgX~.f F d.j.4.w.,.=.b a =.N B ........+.B C C C F G { [ @.+.{ %.U q ~ eXpXN.N.P.L.L.D.C.H.J.",
"A.1XuXgX8 6 6 2 S A q 3 sX6XV.N.C.rX*Xy f 1.d.d.y.e.n v h v 9 v k n C | +.+.C b k E #X1.T $...+.+.{ T 0 zX5X3XI.N.H.L.L.C.C.H.J.",
"C.C.4XrXsXgXuXwXfXlX4 8 ] wX1XS.3XwX` 0 k g.q.y.a.n k z y ;XmXMXMX/ l T @.| c g vXmXmXmXx j C ..| { L A zX1XA.N.H.H.L.L.D.D.L.G.",
"m.C.C.A.A.3XB.3X6X0XvX@ o sX6X1XrX`.7 d y.q.y.a.C n k ^ MXMXMXNXMXMXz b @.N Y =XMXMXNXNXcXx b B &.X.T h.zX5XpXN.H.H.K.m.D.C.m.G.",
"L.L.U.C.I.N.N.Y.3XrXdXO ; sX6X8X0X' 0 Y 5.s.q.v b v M MXMXBXNXNXNXMXx Y { } j mXMXBXBXNXMXM h b N N %.r :XyX4XC.H.L.K.m.C.D.m.m.",
"G.H.L.L.H.H.I.I.A.6XnX+ O fX6X5XsXW t ,.5.y.q.n n z mXNXBXBXBXBXBXNX=Xk G =.w mXMXBXBXBXNXmXw k a X.p Y 8 sX1XA.H.H.L.L.D.A.C.m.",
"H.H.L.G.G.G.N.N.A.rXzXo + sXrXyX&XA z g.t.s.n j w cXNXNXBXVXBXBXBXMXmXk p i g mXNXBXVXBXNXNXE.x T } { U A xXtXv.G.G.L.C.m.C.m.m.",
"P.b.L.H.G.b.P.A.3XeX(.; ; wX5XuX].K h t.y.e.R v t mXNXBXVX  BXVXBXNXmX9 R j g mXMX>X. VXBXNXNXy p } X.s L &XwXC.H.G.L.H.C.C.m.m.",
"B.B.P.m.L.m.C.U.A.0X) 8 ^.8XC.rX7.g ,.q.d.1.s c E.MXNXBXX   k.k.BXMX-Xk c c x bXMX  . >XW.NXNXvXL } ..X.U S sXT.H.G.H.N.P.H.m.m.",
"A.U.U.N.C.U.C.D.S.yX8 = ).3XC.rXQ l w.y.d.i %.k cXNXNXBX    . . BXMXt h T b i %XNX      . BXNXMX,.} | ..H Z dX1XL.G.H.H.P.P.H.m.",
"C.U.P.P.C.m.m.C.3XhX4 3 eXS.N.uXS L d.6.d.c b k bXNXBXBX> . . : MX-X9 b @...n I MX-     >XBXNXMXh.a @...} g :XtXS.M.b.H.P.H.H.H.",
"M.b.P.P.C.m.D.S.3XqX7 4 wX3XN.qXe T u.w.d.c b h xXNXBXBXBXk.k.NXmXI R &.B ..&.n bXMXkXVXBXBXNXMXY :.| @.o.K Q.wX3XU.L.H.L.U.H.H.",
"L.L.H.P.H.m.C.S.3XkX6 # 0XA.B.kXe >.a.a.p.T T n <.NXMXNXBXNXBXMX=Xn a &.:.[ ..n ^ MXMXNXBXMXmX9 b [ @.X.} L 5 hX4XC.C.L.b.C.b.L.",
"m.L.H.H.H.m.A.3X1XsX@ 8 rXZ.3XkXw 1.a.a.p.a C b k OXmXMXmXMXMX Xk C ....o.X...{ z 2.MXmXmXbXx k $.|  . .X.U # jX1XC.C.C.U.U.P.H.",
"m.m.L.H.G.K.U.1XrX^.$ ! uX3XiX9Xe e.t.t.r.T G } b b n k E ,.9 v $.{ | X.X. .#. .$.p g K f h b $.{ @.@. .[ i y *X5XU.A.N.C.P.H.H.",
"C.m.H.H.J.H.C.4XyX; @ &XuXiX7X^.w a.w.q.y.U { ..} C C N N N } } | X.@.|  . .#.O.[ { T F G $.N ......O.X.{ R 0 *XrXA.A.C.C.C.m.H.",
"C.m.U.H.J.H.C.1XsX+ & *X,X7X0Xz.w p.y.5.y.c C | ..&.B B @.+.} o.*.{ ..@.+.@.| O.@.....{ ..&.} { +.@.X.o.{ R e !.rXA.B.C.C.m.L.L.",
"m.C.C.P.H.H.m.5XjX* o zXuXtX0X~ g p.i.6.y.n &...&...*.B B o.%.} { ..&...| { &.| ..{ ..&.[ *.} X.+.| @.X.} i 0 ~.rXB.A.C.C.C.H.m.",
"C.C.C.C.U.H.m.2XfXo % lXuXuXwX, e r.w.f.w.8.&...X.o.[ %.H %.T T { $.G p b b b C b b T $.a } { ..@. .X.o.} p e &X7XA.A.C.C.m.H.L.",
"m.D.C.C.N.L.m.S.jXo % *XuXrXjX& w y.4.6.5.g.a [ o.H T Y ;.,.E g d g g w w x I ,.^ <.^ <.4.,.n a ..X.X.X.H c 0 *XrXC.C.C.L.m.H.L.",
"m.C.C.C.C.C.m.S.yX; @ &XhXrXdX8 P 0.d.6.6.4.g.a { T v bXmXMXMXMXMXMXNXMXMXMXMXNXNXMXNXMXMXMXMXk a @.X.o.{ L 7 lX5XC.C.C.L.L.L.H.",
"D.m.m.C.C.C.D.S.5X/.@ 8 fXyXfX% l <.y.4.i.4.w.-.T b x mXMXNXBXNXNXMXNXBXBXBXNXBXNXBXNXBXNXNXMX'.b ..| o.} L 7 fX7XC.C.m.U.M.H.H.",
"m.C.H.N.C.A.C.D.3X9X; # lXfXgX* d $.g.t.5.i.i.r.H a c i.MXMXMXNXNXBXVXBXNXBXBXBXBXVXBXNXBXNXMXE.b [  ...} L # sX3XC.C.H.C.C.H.H.",
"m.U.H.P.C.A.D.Z.A.uX] 8 ; zXgX! P b e.q.i.5.w.u.;.F c d y cXmXMXMXNXNXNXNXNXNXVXBXBXBXVXNXMXmXy T .. .@.{ P % wX2XC.L.C.C.P.N.H.",
"b.H.H.P.C.C.C.A.I.7XdX* $ ;XzX!.e L 9.t.3.3.s.s.d.g.;.c v k g ^ ( %XMXMXMXMXMXMXBXNXMXMXmX;Xk c $...@.@.[ L ' yX3XC.m.H.C.U.P.P.",
"H.H.H.C.m.C.C.m.P.3XhXQ.$ * lXxX$XU h e.s.,.<.t.r.g.9.T a b $.U k k w y ^ ( E.&X%X'.( ^ w z =.{ ..| ..} U q zXrXS.m.H.H.P.N.P.P.",
"L.H.H.P.N.U.b.L.H.A.tXsX* $ 0 e L R p R n n n a.g.p.g.H { } } X...{ { F a U R U T c b G G $.[ ..@.| c P 7 &XyX1XA.H.H.H.H.P.P.P.",
"L.L.C.P.I.N.P.H.M.R.F.tXsX! u 0 Z r g f j R h p.g.p.0.H H } X.o.{ o.{ o.X.} [ o.| ..X.X.X.X.} X.a T f 3 ~ sX5XA.U.H.H.H.H.b.L.C.",
"L.L.C.P.N.I.I.H.L.L.m.S.2XrXwXjX_._.fXj.4 0 9 v E R s F T a $.$.%.%.H H F H F H H H H H H F } i K 0 % (.sX6X4XC.L.H.H.H.P.L.C.U.",
"K.L.L.C.P.P.N.U.U.n.U.C.D.S.Z.4X2X8X6XwXdXQ.W 3 0 q 0 q 0 e w e r q q q A S A r Z Z A q A S Q Q ! !.fX0XtX4Xb.U.L.H.H.H.C.N.C.m.",
"M.L.L.L.L.H.H.H.P.H.n.N.V.U.C.D.V.Y.3X7XtXeXwXwX_.^.^.^./.(.!.(./.9XjXjXgXwXhXkXwXhXsXjXsXhXjXeXhX<XtXZ.C.C.H.L.H.H.P.N.N.C.C.m.",
"L.L.L.H.H.K.G.H.b.P.Y.P.U.U.N.U.I.P.N.A.S.S.S.S.S.S.2XS.6X6XtX5X5X3X3XA.A.3XA.iX3X3X3X3XiXA.pXA.Z.A.C.U.m.m.G.H.H.H.C.U.C.L.m.m.",
"C.A.P.U.L.K.L.L.L.U.b.N.N.I.R.b.P.J.n.V.A.A.N.Z.D.D.D.D.D.Z.D.S.A.C.N.N.C.C.C.C.C.C.I.U.C.C.C.C.I.Y.P.H.U.c.L.L.C.C.C.C.C.m.m.L.",
"B.I.C.N.L.L.H.M.L.U.I.P.P.N.P.I.H.U.U.I.N.U.N.U.C.C.L.m.C.R.v.C.N.U.U.b.m.L.L.P.U.b.U.b.m.L.b.L.U.n.P.H.H.L.H.H.U.N.C.C.C.m.L.L.",
"N.I.N.P.C.m.m.m.L.m.L.L.L.L.L.L.U.m.P.N.P.I.P.P.H.H.b.U.m.m.m.C.C.P.N.H.C.H.U.N.P.H.C.P.m.H.U.H.N.I.P.P.L.U.L.C.C.C.N.C.U.U.H.H.",
"H.H.P.U.C.C.C.C.m.m.L.M.L.L.L.L.C.L.L.P.P.H.P.J.P.P.P.N.C.C.C.C.C.P.U.N.L.H.L.H.C.P.C.P.N.N.L.H.P.N.P.m.L.m.m.L.m.C.m.C.b.L.H.H.",
"H.H.H.b.P.C.C.C.m.m.m.m.m.L.L.m.L.K.K.L.H.P.P.I.P.I.N.U.C.D.D.m.C.H.m.H.L.L.m.H.b.L.C.L.L.L.L.L.C.C.U.C.C.m.m.m.m.m.C.C.L.P.b.L.",
"G.G.H.H.C.C.C.C.C.m.m.m.m.m.D.C.L.M.K.H.H.H.P.P.I.P.C.U.C.C.C.L.C.L.m.m.L.M.L.m.U.m.m.N.L.m.L.M.U.C.C.m.m.m.m.m.m.m.m.H.L.H.P.H.",
"U.N.C.C.C.C.C.U.L.M.m.m.m.C.C.C.m.m.M.L.K.L.L.m.H.P.C.H.m.L.m.M.C.C.U.C.U.U.C.P.U.C.C.U.U.N.U.U.b.m.C.m.L.L.L.L.m.m.m.P.U.U.N.L.",
"C.C.C.C.C.C.C.C.L.L.m.H.C.U.C.C.U.m.U.m.m.m.L.m.b.m.L.L.H.H.L.L.C.C.C.C.C.b.C.m.C.C.C.C.C.C.m.L.m.L.m.L.M.H.L.L.L.C.L.L.m.b.H.U.",
"m.m.m.m.m.C.U.H.U.H.C.H.L.H.C.P.N.P.L.m.L.m.m.m.m.m.C.C.P.H.P.H.C.U.m.m.L.L.L.m.m.m.m.C.m.m.L.M.m.U.H.C.U.N.P.m.N.U.H.C.m.U.m.m.",
"K.m.m.m.L.b.m.U.b.H.H.m.P.N.H.H.P.U.m.L.m.m.m.m.m.m.m.P.P.P.P.P.m.m.m.L.m.L.L.M.m.m.m.L.L.M.m.L.b.L.L.N.N.P.P.P.C.N.C.N.m.b.m.m."
};
