/* XPM */
static char *_643294113060[] = {
/* columns rows colors chars-per-pixel */
"64 64 229 2 ",
"   c #6B3F58",
".  c #510E6E",
"X  c #4A116F",
"o  c #4D0675",
"O  c #4E0B73",
"+  c #4C0D7F",
"@  c #520474",
"#  c #520B75",
"$  c #53067C",
"%  c #530B7B",
"&  c #590B7C",
"*  c #59067F",
"=  c #4C1273",
"-  c #461270",
";  c #521175",
":  c #55117B",
">  c #5A127E",
",  c #500D6D",
"<  c #6F3869",
"1  c #75366D",
"2  c #733A67",
"3  c #6D2B7E",
"4  c #732D7A",
"5  c #712F77",
"6  c #6F3676",
"7  c #73327A",
"8  c #753A7C",
"9  c #783978",
"0  c #7D466D",
"q  c #885179",
"w  c #4E0585",
"e  c #540583",
"r  c #590583",
"t  c #540B82",
"y  c #5A0B84",
"u  c #56018B",
"i  c #5A058A",
"p  c #570A8B",
"a  c #5C1484",
"s  c #5A0295",
"d  c #5C0599",
"f  c #5E1693",
"g  c #641A8A",
"h  c #701D8F",
"j  c #650A9A",
"k  c #6A1495",
"l  c #6F1C9D",
"z  c #661297",
"x  c #711C9D",
"c  c #60048D",
"v  c #6C2987",
"b  c #742D84",
"n  c #742B8C",
"m  c #752989",
"M  c #733482",
"N  c #7A3384",
"B  c #723884",
"V  c #7A3985",
"C  c #75338A",
"Z  c #7A338D",
"A  c #7B2796",
"S  c #742C93",
"D  c #7A2C94",
"F  c #74249D",
"G  c #7C259D",
"H  c #762D9B",
"J  c #7B2B9B",
"K  c #742593",
"L  c #7B3394",
"P  c #7C3199",
"I  c #773595",
"U  c #6D3580",
"Y  c #6C19A6",
"T  c #741DAC",
"R  c #7C1CAF",
"E  c #7519A4",
"W  c #761DB3",
"Q  c #7C1CB3",
"!  c #7C1BBC",
"~  c #7715B8",
"^  c #740FAD",
"/  c #7521A3",
"(  c #7B25A4",
")  c #7B2BA4",
"_  c #7C24AB",
"`  c #7C2AAA",
"'  c #7627A5",
"]  c #7D30A3",
"[  c #7C23B2",
"{  c #7E24BA",
"}  c #7B25B6",
"|  c #7F418C",
" . c #7E1BC2",
".. c #7F15C0",
"X. c #7F20C2",
"o. c #823B84",
"O. c #833C8A",
"+. c #812D9C",
"@. c #84369D",
"#. c #821DBD",
"$. c #811BB9",
"%. c #832BAC",
"&. c #8228A5",
"*. c #8637A4",
"=. c #8225B4",
"-. c #832BB3",
";. c #8223BB",
":. c #8528BA",
">. c #8B25BD",
",. c #8830BB",
"<. c #824887",
"1. c #8B4699",
"2. c #904F93",
"3. c #97559B",
"4. c #8E538F",
"5. c #9A678A",
"6. c #9C609C",
"7. c #A3699D",
"8. c #995BA7",
"9. c #934CA8",
"0. c #9F69A5",
"q. c #AA6DA8",
"w. c #B27DAE",
"e. c #B97AB9",
"r. c #AC6FAA",
"t. c #8416C5",
"y. c #851CC5",
"u. c #891AC6",
"i. c #8516CB",
"p. c #8B16CD",
"a. c #861ACC",
"s. c #8919CD",
"d. c #8817C7",
"f. c #8C16D0",
"g. c #8719D0",
"h. c #8B1AD1",
"j. c #8918D5",
"k. c #911ED5",
"l. c #8522C2",
"z. c #8429C1",
"x. c #8621CA",
"c. c #8921CB",
"v. c #8B2EC5",
"b. c #8C23D3",
"n. c #B778CA",
"m. c #BE8BBA",
"M. c #C58ABB",
"N. c #CA92BF",
"B. c #D0A2BF",
"V. c #EBD6A4",
"C. c #ECDDA6",
"Z. c #EDDDAC",
"A. c #E8D8AA",
"S. c #F2DFAE",
"D. c #F4DFA6",
"F. c #EDDDB3",
"G. c #EED5BB",
"H. c #EEDBBA",
"J. c #EBD4B3",
"K. c #F2D4B4",
"L. c #F1DEB2",
"P. c #F3D4BB",
"I. c #F3DCBB",
"U. c #FADBBD",
"Y. c #F9DCB8",
"T. c #E6CDAF",
"R. c #EEE2A6",
"E. c #EEE1AD",
"W. c #F2E1A5",
"Q. c #F0E0AE",
"!. c #F8E3AC",
"~. c #EEE1B2",
"^. c #EDE2B8",
"/. c #F3E3B3",
"(. c #F9E4B4",
"). c #F4E2BA",
"_. c #FAE4BB",
"`. c #F3E8B9",
"'. c #C38AC1",
"]. c #CD91CF",
"[. c #D297CA",
"{. c #D99CD6",
"}. c #D093D6",
"|. c #DCABCD",
" X c #D8A6C7",
".X c #DDA2DC",
"XX c #E2ACCE",
"oX c #E4AED8",
"OX c #EAB6D8",
"+X c #F5BBDC",
"@X c #D98FEC",
"#X c #DFA3E1",
"$X c #EAACE8",
"%X c #EAB6E2",
"&X c #F3B8E9",
"*X c #FEBCFD",
"=X c #F5CFC5",
"-X c #F5CECF",
";X c #F5D5C3",
":X c #FAD4C5",
">X c #F4DAC2",
",X c #FADBC3",
"<X c #F5D5CA",
"1X c #FAD5CC",
"2X c #F5D9CA",
"3X c #FBDACC",
"4X c #F6CCD5",
"5X c #FBCDDC",
"6X c #F6C9DA",
"7X c #F6D4D3",
"8X c #FBD3D4",
"9X c #FDDAD3",
"0X c #FDD3DC",
"qX c #FEDBD9",
"wX c #F6D4D8",
"eX c #FBE2C4",
"rX c #F9E0C5",
"tX c #FCCCE4",
"yX c #FCC5EC",
"uX c #FDCCEB",
"iX c #F6C8E3",
"pX c #FED2E4",
"aX c #FED2EA",
"sX c #FBD6E5",
"dX c #FDC5F2",
"fX c #FECAF3",
"gX c #FEC4FE",
"hX c #FFC9FC",
"jX c #FDD1F2",
/* pixels */
"E.E.Q.!.E./.I.K.L.L.~.~.~.L.W.E.~.^.F.~.L.W.W.Q.E.Q.L.Q.S.S.W.W.W.E.R.W.W.D.S.S.F.~.R.E.^.~.E.W./.~.F.~.~.E./.S.F.Q./.Z.L.Q.Q.Q.",
"E.E.S.S.Z.Q.(.L.S.L.E.~.L.S.W.E.E.~.E.L.L.L.S.Q.Q.E.Q.Q.S.Q.D.Q.E./.E.C.Q.D.(.L./.E.E.~.~.^./.R.E.~.~.E.Z.E.Z./.F./.F./.~.Q.S.Q.",
"E.E.L.L.E.E./.Z.S.Q.E.E.L.L.S.E.Q.E.S.L.L.L.L.Q.E.E.E.F.~.~.L.L.E.~.Q./.)./.Z.S.S.!./.Z.F.H.~.~.E.L.S.Q.Q.Q.Q.Q.Z.L./.F.L.E.E.W.",
"~.~.I.L.E.E.W.W.!.F.E.~.L.L.S.S.W.Q.S.L.L.L.L.L.E.E.~.E.E.^.F.^.~.C.E./.).G.L.(.S.V.L.Y.).F.Z.A.L.L.Q.Q.Q.Q.Q.Q./.F.F.S.L.L.E.S.",
"~.~.L.L.Q.E.Z.~.F.~.~.^.I.I./.E.L.L.S.S.S.L.L.I.F.^.~.E.E.~.^.F.F.Z.Z.A.H.H.rXJ.Y._.K.Y./.E.(.(.L.E.E.Q.Q.Q.Q.Q./.Q.Q.L.~.E.Q.Q.",
"~.~.S.L././.F.)./.~.~.~.H.I.E.S.S.S.S.D.S.L.Y.L.L.~.E.E.E.~.F.I././.(._.;X2X<X3X,XL.S.Y.S./.A.S.F.S.S.Q.E.S.Q.Q.Z.F.L.F.S.L.Q.Q.",
"F.~.S.S.I.U.;XU.L.S.W.E.H.H.~.E.W.Q.D.D.D.S.L.L.L.Q.W.W.E.E.L.I.F.I.Y.P.8XsX6XOXqXP.L._.V.!.L.)././.E.Q.W.W.Z.Q.Q./.Z./.Z./.S.E.",
"~./.S.Y.7X4X6XwX:XY.W.W.~.^.E.E.W.D.S.D.D.Y.S.L.Q.Q.E.W.S.S.L.I.I.>X1X8X&X< 8 6 5.qX;X).S.R.L.S.L.Z.S.E.S.E.Q.Q.S.E./.F.L.L.Z./.",
"Q.Z.L.2XoX8 7 4.tX1XY.!.C.E.E.R.E.E.^.E.~.~.C.Q./.C.(.F./.C.!.K.:X8XfX6.C H F S 6 sX2X>XL.!.Z./.L./.Z.Q.S././.C.E.L.Z./.F./.E.S.",
"S._.U.0X8 P J S 2.tX1XY.L.S.E.E.A.^.^.E.~.~./.F.E./.~.Z.L._.V.eXqXdX7 L H F Y H 6 sX7X^.L././.Z.S.S.)./.S.S.W.Q.Q.Q./.F.S.F.L.E.",
"I.F.2XiX1.l / ' D 6.uX3XF.`.E.^.^.`./.E.E.^.).^.H.F.A.(./.K.I.7X$XL J ( a w w g 6 sX=XI.L.L.A.).L._.V.L.!.C.S./.Q.S.L.S.Z./.E.E.",
"F.>X<XjX*.' i e g Z [.6X1XH.H.^.H.H./.L.F.>X2X7X2X2XY.L.K.,X8Xm.I / ` w t t t a 1 5X:X,XL.L.^.F.J.L.L./.A./.S.C.~.Q.~.L.L.L.E.F.",
"/.S.P.pX1.p t $ $ K N &X0X1X3X:X,X:XP.U.1X5XuXuXsX0X1X,XqXuXm.U P ` y y # : w I 9 pX9XY.V.(.Z.^.).).S.L./.Z./.S.Q.Q.F./.~.Z.~.Q.",
"S.(.I.6XC + # # y $ P N fXiXuXaXtXaXtXOXM.q.2.2.r.].OXuX&X*XK ) F y @ > o o t I w.0X1XK.L.(.F.H.J.I.eXZ./.V./.S.Q.Q.L.Z.L.L.E.E.",
"S.F.rXwXI f : . # o g J n.@XO.K +.J A A A ) ( ` ( ( G G *.%.-.j t : % % @ & a 3 6X<X3XI.Y.T.qX7XrXJ.Y.L.Z._.V./.Q.Q./.F.L.L.~.E.",
"C.F.^.iXI Y o X , > w ` H ) / =.$.y.l.u.>.#.#.#.l.#.l.;.#.>.Q j e t o % > # > B tX>X>X>X:X0X2 <   0X;X3XG.,XY.L.F./.L.L.E.Q.Q.L.",
"C.(.H.sX' Y + . . ; + w z [ {  .y.s.s.a.y.y.y.y.i.a.y.y.a.y.y.y.Y u y % # ; a B wX).I.2X5Xo.A &.J 1.fXtX4X8X3XI.L./.^.F.Q.Q.!.S.",
"/.~.rXtXH } @ # . = + p u ;.i.b.s.s.i.s.s.s.s.h.s.s.s.s.s.s.g.y.x.^ e y # > S 8.wXG.I.;XyXb =.#.l._ *X3.| N.tX1XI.L.I.F.Q.Q.S.S.",
"E.F.I.iX@./ a & # t w w v.y.t.s.s.s.s.s.g.s.g.s.g.s.s.s.s.s.s.a.t.l.Q u r h S gXwXrXH.2XuXN =.t.y.u.E +.H I 0 iX<XI.I.F./.Q.S.S.",
"/.L.I.0X3.J @ * % w z { ! ..b.i.g.s.s.a.s.s.i.s.s.s.s.g.s.s.s.a.a.a.#.;.Q ( Z dXwXU.J.>XsX9 ( c.u.$.>.$.X.` n uX1XL.L./.F.Z./.F.",
"L.).U.9X%Xb &.k p u z.! u.h.h.i.g.s.s.g.s.s.s.s.s.s.s.i.i.a.a.s.i.t.u.y.;.-.7 jX1XP._.G.wX7.) #.p.s.d.u.b.T Z M.:XL.S.Q.E.~.~./.",
"Z.).J.1XuX8 G _ u s x.y.h.p.h.h.s.s.s.s.s.s.i.s.s.s.s.a.g.s.s.s.c.s.u.t.y./ e.iX=XY.L.eX<XiX@.Q u.u.u.#. .-.b XX:XS.S.Q.E.Z.~.Z.",
"L._.L.,X8Xr.A =.z. .$.p.k.h.h.s.s.s.s.i.s.s.g.s.i.g.s.g.s.s.s.s.s.s.u.u.x._ }.yX1XU.L.J.2XaX*X%.>.$.=.=.W ) 8 aX,XS.L.~.F.E.W.E.",
"L.Z./.I.<XfXA ;.l.y.s.p.f.p.s.u.a.s.s.s.g.s.s.s.s.s.s.s.s.s.s.s.u.d.s.y.y.=.+.OX8XU.I.U.qXyXb A D *.+.+.L 7 yX8XY.S.L.L.~.F./.W.",
"Z./.S.L.3XyX+.#.y. .s.p.f.p.s.s.s.i.s.s.s.s.s.a.g.s.s.g.s.a.s.g.p.d.b. . .X.H r.pX;X>X3X0X5.4 N fXuXtXtXiX5X<XU.Y.L.H.^.I.^.L.W.",
"/.Z./.Y.1XdX@Xt.l.a.p.f.f.h.s.u.s.a.g.s.s.g.s.s.i.s.s.s.s.a.s.i.p.u. .~  .X.` Z XX7X<X<XiX1 4 gX5X,XP.>X>XU.I.L./.Z.^.H.L.L.L.L.",
"A.E./.G.9X&XG y.x.u.p.f.p.p.a.y.s.g.s.s.s.i.s.g.s.g.s.s.s.s.s.a.u.x. .d s z _ P w.sX<X7XuX1 o.*X7XI.)./.).F.~.E.E.E.~.F.L.L.S.S.",
"E./.Z.>XtXo.%.#.x.u.u.f.h.s.y.a.y.s.i.s.s.s.s.s.s.i.s.s.s.s.s.i.u.y.z.d i i p H | iX-XqXuX1 4 hX2X~.~./.~.E.E.E.E.E.E.E.L.L.S.S.",
"E.Q.F.qXfXm ;.u.y.a.a.h.s.s.a.a.g.s.s.i.g.s.s.s.s.s.a.g.s.i.s.s.u.#.;.i r y * H U %XqX=XpX2 4 gX2XE.E.~.Q.W.E.R.R.R.R.E.Q.S.S.S.",
"Q.E.G.wX}.&.Q u.u.u.g.g.h.p.s.s.s.s.s.s.s.s.s.s.s.s.s.s.g.s.s.a.u.y.;.j r * # g B ].0X;X5Xq O.oX2XE.E.~.L.S.W.E.R.R.R.E.Q.Q.S.S.",
"C./.rXaX1.&.u.s.u.u.s.g.h.p.h.g.g.s.a.s.s.s.s.g.a.s.s.s.s.s.s.a.g.y.$.E * # # ; H n.0X9X4X|.v 3.2XW.F.F.L.L.L.L.L.~.~.~.S.Q.S.Q.",
"/.I.2XuX+.>.d.d.p.u.g.g.p.h.g.s.s.s.s.g.s.s.s.i.g.i.s.s.s.s.s.g. .b.#.$.* & . # ] 9.tX3X7X%XZ V 1XQ.F.).I.L.L.L.L.L.F./.L.S.S.Q.",
").G.8XdXG y.u.p.p.p.s.s.s.s.g.s.p.p.d.s.p.p.s.s.s.s.a.a.s.s.a.g.j.j.y.;.r # # O ` @.5X3X7X+XD Z 1XS.S.F.E.E.S.S.L.L.S.L.~.S.L.S.",
"H.>X0XM.-.u.u.d.f.h.y.s.a.a.g.g.a.s.p.s.u.s.p.s.s.s.a.a.a.s.y.s.j.j.a.{ y # ; # ( D uX;X9XaXS b 9XL.A.Q.~.E.Q./.S.S.L.L.E.E.S.E.",
"I.3X5X8 / y.u.s.h.f.s.y.a.s.s.g.h.s.s.s.p.a.s.h.s.s.s.g.s.g.s.g.j.i.i.;.e # : % ( +.iX3X;XtXK @.6XI._.~.Z.E./.V.S.S.S./.~.~.E.L.",
"I.3XtXV -.x.u.p.h.p.s.g.a.a.h.h.h.s.h.s.h.h.g.g.h.s.g.g.g.g.g.g.g.t.y.;.e o # + _ L jX<X;X0Xn D aXG.L.~.E.Q./.).S.S.S.L.E.~.Q.S.",
"I.7X&XN _ ..s.s.s.s.h.s.g.a.s.s.s.s.s.a.g.g.a.g.s.g.g.g.g.g.g.g.y.y.x.{ i % # % x L oX<X:X8X@.O. X1XU.F.Z.E.F.L.L.L.E.E.F.~.S.S.",
"P.9XoXn -.y.s.s.p.s.s.g.g.s.s.s.s.s.s.a.a.s.g.a.g.s.a.g.g.g.h.s.p.y.x.X.p $ % % ( n oX8X3X-X$X4 0 0X;XL.~.Z.).L.S.E.E.~.^.~.S.S.",
"U.8X{.S :.y.a.s.s.s.g.g.s.h.p.u.a.s.a.a.s.s.g.s.s.s.s.g.g.g.p.s.s.a.X.W r t % t x D '.iX9X8XOX9 2 sXP.(./.C.F.L.~.Q.E.E.~.F.S.Q.",
"U.8X].] Q x.s.a.s.s.g.g.h.a.s.p.s.s.s.s.s.y.s.y.s.s.s.s.p.h.p.s.s.x. .T e # # + F H 0.tX1X8XyX1 2 tX;XL.A.`.F.F.L.E.E.E.~./.S.S.",
"U.4X#XJ Q x.y.p.s.h.g.g.g.s.p.p.s.h.h.s.p.p.s.a.a.a.s.s.a.p.s.s.t.l.} p % % o t / H | jX8X8XfX9 < tX:X).A./.F.I.L.E.E.E.~.^.S.S.",
"U.4X&XS =.a.y.s.h.h.g.s.s.s.s.p.h.h.f.i.s.s.h.y.a.a.u.u.y.s.s.u.l.{ f p t # : % / ( U jX8X5X$X4 2 sXP.)./.~.F.L.L.E.E.~.~.~.S.S.",
"U.1XfXn -.t.s.p.h.i.s.s.g.h.s.h.f.j.f.h.g.a.s.y.i.y.u.y.u.x.u.#.R x e + & O % % ' ' B jX8XtX#XN 2 8X>X/.Z.A./.F.L.Z.E.E.F.~.S.S.",
"Y.3XdXZ [ y.s.s.g.i.a.s.a.y.y.p.p.p.i.s.x.a.t. .l.l.y.! y.l.l.;.k % O O O % # $ [ ] B jX0XiXS L |.7XI././.Q.L.F./.S.E.~.^.~.L.W.",
"L.1XpX5 _ y.u.h.h.s.s.s.s.y.d.u.a.a.y.t.y.! ;.z.} { } [ [ T j r * , = X O ; # & z J 8 fXtXhXD v pXG.I.F.A.E.E._.S.S./.E.E.L.Q.S.",
"L.;XqXo._ c.u.p.f.f.h.s.s.s.u.c.c.#.#.l.;.W j u u p i e e r p * # # X - = O & & * n <.fXgX0 O.3.8XI.`.~.~./.Q.C.S.L.Z.Z.~.~.Q.Q.",
"I.P.8Xe.%.u.d.s.f.f.y.u.y.a.s.t.$.;.:.} z u e t t % % = # o # : # : - - = = % # @ N [.fXgX4 4 yX:X/.Z./.E.C.S.(.S.S.L.~.Z.~.Q.L.",
"L.I.1XuXD =.#.u.s.h.h.a.a.u.#.^ j i i i y e t & # # # # # # # # * # t + t t $ t h @XgXhXU C '.aXU.Q.Z.E.Z.!.S.S.S.S.S./.~.Q.E.S.",
"C.(.>X0X$Xb &.=.u.d.h.s.y.y.j i r % $ % % # % # : + # % # & t t r c s d W } T _ -.` G n B 6 aX7XI.Z./.Z.E./.Z.S.L.S.Z.Q./.E.L.E.",
"R.C.I.;X5Xq.b &.=.#.y.y.l.;.^ i r % % & % & $ $ % t y e r z l l =.[ :.{ T ` ( A A D D b 4.uX7X>XL./.Z./.Z././.E.S.E./.Z.E.S./.Q.",
"E./.F.>X8XtX{.o.S ) _ R { } E ` / F F / / E / F ( ` =._ R =.=.Q =.,.T ) S M M.*X+X+XuX5X8X7XI.L.L.Z./.E.Z.Q./.Q.~.Q././.Q.Z.Z./.",
"E.~.F.Y.=X3X5XyX{.2.1.9.L L L n D D S I I D I D D D J J J S G ) J n I | '.uX4X3X:X:X:X3XK.U./.E.Q./.E.S./.S.E.Z.Q.Q.Z.Q././.Q.Z.",
"E.E.`.F.L.U.K.3X8X4XtX5XaXaX5XpXtXtXpXiXiXsXiXsXiX|. X X|.|.|. XXX+XaX0XwX3X;X,XP.U.K.Y._.Z./.E.Q.Q./.Z./.E.Q./.L.E./.Z.Z.E.S.~.",
"E.^.A.C.(.L.).J.Y.,XU.,X,XK.K.U.>X>X>X>X2X>X2X>X2X2X2X2X<X;X<X<X1X:X;X>XG.H.).I.S.Y.S.S.C./.E.E.E./.Q.Z.E.S.Z./.Q.S.E./.Q./.Q.Q.",
"E.E././.E.S./.).I.I.I.I.L.Y._.S.L.).I.L./.I.I.I.F.I.I.I.G.I.U.U.U.,XI.I.^.^.^.^./.C.W.!.W.E.Z./.Z.Q././.L./.Z.Q.Q.Q.Z.Q./.Q.Q.S.",
"E.E.E.E.A.`.F.F.I.F.I.L.F.L.Z.S.Q.Q.Q.S.E.~.S.Q.F.Z.L./.^./.L.F.L.Z.L./.E.~.~.^.~.E.R.W.R.E.~.^.~.Q.Z.Q.Q.E./.Z.Z././.Q.Z.Q.Q.~.",
"L.L.Z./.E./.E./.~.~.~.~././.Z.Q.Q.E.E.E.E.W.E.E.E.E.E.E.L.E.S.E.S.S.W.R.E.~.^.^.^.~.E.E.W.Z.^.L.F.Q.E.S.S.E./.Q.Q././.Z.Q.S.E.L.",
"I.L.L.L.S.Q.Z.E.E.E.E.~.Z.E.L.Q.S.W.E.E.E.E.E.E.E.E.E.W.Q.Q.Q.S.S.W.R.E.E.E.~.^.^.E.E.R.Q.Q.L.F./.Q.L.E.E./.Z.Z./.Z.Q.Z./.E./.E.",
"L.L.L.L.L.Q.Z.E.E.E.E.Z.Q.L.L./.S.S.S.S.S.S./.L.L.L.L.L.S.Q./.S.L.L.Q.W.E.E.E.~.~.E.R.R.W.Z.I.I.F.Q.Z././.Z.Q./.E.S.E./.Z./.Z.Q.",
"S.S.S.S.S.S.W.Q.E.E.E.W.Q.E.S.F.L.S.S.S.L.S.F.L.L.L.L.L.L.L.L.L.L.L.L.Q.E.Z.E.E.E.W.R.E.Q./.L.I.L.Q./.Q.Z./.Z./.Z././.Z./.Q.Z./.",
"S.S.Q.Q.Q./.Z.Q.Q.Q.Q.W.W.W.Q.Q.S./.F./.L././.F.L.L.L.L.F.L.S.Q.I.F.L.Z.S.S.S.F./.Z.E.E.Z./.I.L./.Z./.E.E.S.E.Q.Q.Z./.Q.E.L.Q.Q.",
"Q.W.W.Q.Q.Q./.F.Q.Q.Q.Z.S.Q.Q.S.S.L.L.Z.F.F.F.~.^.~.~.~./.Q.Q.F./.L.L./.Q.S.L./.L.F.~.~.Q.Q.F./.Z./.~.S./.Q.L.Q././.Z.Z.S.E./.Q.",
"E.E.~.E.~.F./.F.L.Q./.S.L.L.L.F.Q.Q.Q.E.L.~.E.~.E.~.~.E.~.E.E.Z.~.E.S.S.S.S.S.L.F./.~.~.E.E.W.E.Q.Q.Q.Q./.Z./.E.Z.Q.Q./.S.E.Z.Q.",
"R.E.E.~.~.~.F./.F.S.L.L.L.L.F./.L.Q.Q.S.~.~.~.~.~.~.~.E.E.E.E.E.E.E.W.S.S.S.L.L.L.L.L.~.E.R.R.W.W.F.Q.Q.Z./.Z.S.E./.E.L.E./.Z./."
};
