/* XPM */
static char *_643294132295[] = {
/* columns rows colors chars-per-pixel */
"64 64 215 2 ",
"   c #060005",
".  c #0E0017",
"X  c #110819",
"o  c #16032A",
"O  c #240045",
"+  c #63395F",
"@  c #6B3E6C",
"#  c #6E316C",
"$  c #722F7C",
"%  c #69367D",
"&  c #73367C",
"*  c #773777",
"=  c #6C2978",
"-  c #69417F",
";  c #7D467F",
":  c #714664",
">  c #6A2986",
",  c #742E85",
"<  c #752B8B",
"1  c #7B2F8B",
"2  c #6D358E",
"3  c #753382",
"4  c #7B3484",
"5  c #75328A",
"6  c #7C338B",
"7  c #7F398D",
"8  c #6D2D9D",
"9  c #7A2594",
"0  c #752C94",
"q  c #7A2C93",
"w  c #75249D",
"e  c #7A239B",
"r  c #752A9B",
"t  c #7C2A9B",
"y  c #752391",
"u  c #6C3397",
"i  c #743293",
"p  c #793293",
"a  c #7E319A",
"s  c #76329F",
"d  c #7A1BAD",
"f  c #7C1DB3",
"g  c #7E1CBB",
"h  c #7E16B1",
"j  c #7527A3",
"k  c #7D25A5",
"l  c #7C2AA4",
"z  c #7D25AC",
"x  c #7C2BAB",
"c  c #742AA7",
"v  c #7933A6",
"b  c #7E22B4",
"n  c #7B2AB1",
"m  c #7E22BA",
"M  c #7F4695",
"N  c #7B0FC4",
"B  c #7E17C5",
"V  c #812C9D",
"C  c #823397",
"Z  c #83349F",
"A  c #8B3A9B",
"S  c #821FAE",
"D  c #821EB5",
"F  c #831DBD",
"G  c #881DBD",
"H  c #822BA3",
"J  c #8224AD",
"K  c #832BAB",
"L  c #8326A3",
"P  c #8636A9",
"I  c #8322B3",
"U  c #812AB3",
"Y  c #8423BC",
"T  c #8428BB",
"R  c #8B2ABA",
"E  c #8B38BE",
"W  c #834288",
"Q  c #8F5393",
"!  c #914F92",
"~  c #A37091",
"^  c #AA6C9D",
"/  c #9646A6",
"(  c #9C55AD",
")  c #8A42A5",
"_  c #A35AAA",
"`  c #A55AB3",
"'  c #9174A2",
"]  c #B07CA3",
"[  c #AA64B7",
"{  c #B36AB6",
"}  c #AD73AE",
"|  c #8416C4",
" . c #861CC5",
".. c #891AC6",
"X. c #8515CB",
"o. c #8917CC",
"O. c #861ACB",
"+. c #891ACC",
"@. c #8717D2",
"#. c #8B17D3",
"$. c #871AD2",
"%. c #8919D2",
"&. c #8B15DA",
"*. c #911FD4",
"=. c #931FD8",
"-. c #8421C4",
";. c #8522CA",
":. c #8C21CB",
">. c #882BC4",
",. c #8C22D3",
"<. c #9121D6",
"1. c #9A47C7",
"2. c #AE57C8",
"3. c #B771C8",
"4. c #CD74EC",
"5. c #C878FB",
"6. c #BB95A9",
"7. c #BCAEBD",
"8. c #C689BC",
"9. c #D39DBD",
"0. c #ECD7AB",
"q. c #EDDDAC",
"w. c #EADBA8",
"e. c #F3DFA6",
"r. c #F2DFAD",
"t. c #EECFBD",
"y. c #F0CCBE",
"u. c #EED6B1",
"i. c #EEDEB4",
"p. c #EFD4B9",
"a. c #EEDFBA",
"s. c #F1DEB3",
"d. c #F4D5BC",
"f. c #F4DCBB",
"g. c #F9DCBC",
"h. c #FAD9B9",
"j. c #EEE2A6",
"k. c #EEE1AD",
"l. c #F1E1A5",
"z. c #F0E0AE",
"x. c #EEE0B2",
"c. c #F3E2B3",
"v. c #F4E2BA",
"b. c #FAE4BC",
"n. c #F9E4B7",
"m. c #C788C4",
"M. c #CB96C8",
"N. c #D298C6",
"B. c #CD8AD1",
"V. c #D894DA",
"C. c #DBA4CC",
"Z. c #DFB8CD",
"A. c #DEA6D5",
"S. c #E3A5DE",
"D. c #E5ADDB",
"F. c #ECB4DE",
"G. c #E6B5D6",
"H. c #E4B8C9",
"J. c #E18CFF",
"K. c #E797F0",
"L. c #DAABF1",
"P. c #EDAAEF",
"I. c #EEB5E9",
"U. c #F6B9E8",
"Y. c #E5A9FF",
"T. c #F4A9FC",
"R. c #FDBCFF",
"E. c #FBB7FB",
"W. c #EFCFC0",
"Q. c #F4CFCD",
"!. c #F8CBCE",
"~. c #EED8C1",
"^. c #F4D5C5",
"/. c #FAD5C4",
"(. c #F4DAC3",
"). c #FADCC3",
"_. c #F6D5C9",
"`. c #FBD5CC",
"'. c #F5D9CA",
"]. c #FCDCCB",
"[. c #EBCCD2",
"{. c #F4C7D5",
"}. c #F6CBD7",
"|. c #F9CCD4",
" X c #F7CBDE",
".X c #FDCDDB",
"XX c #FBC7D4",
"oX c #F5D4D4",
"OX c #FBD3D3",
"+X c #FDDAD3",
"@X c #FCD2DC",
"#X c #F9D8DA",
"$X c #FBE1C3",
"%X c #F4E3C5",
"&X c #FBC5E6",
"*X c #F6CCE3",
"=X c #FCCDE4",
"-X c #FCC4EB",
";X c #FECBEC",
":X c #F4C1E0",
">X c #FDD2E2",
",X c #FED1EB",
"<X c #F7D5E5",
"1X c #FEC3F3",
"2X c #FFCBF3",
"3X c #FFC5FC",
"4X c #FECBFC",
"5X c #FFD7FF",
"6X c #FFDCFF",
"7X c #FED1F0",
"8X c #E7D3F8",
"9X c #FFE4FF",
"0X c #FFECFF",
"qX c #FFF3FF",
"wX c #FEFAFF",
/* pixels */
"z.q.z.z.z.z.z.z.z.c.z.c.z.z.z.r.q.z.z.r.k.c.z.c.q.c.k.r.c.q.z.x.f.a.a.x.k.j.k.r.h.d.c.s.l.r.s.s.i.k.s.z.c.q.z.k.r.k.x.z.z.z.c.q.",
"z.c.q.c.s.k.c.q.z.q.z.q.z.z.z.x.c.z.c.k.c.q.z.q.z.z.q.c.z.z.z.s.s.s.x.x.j.j.j.r.s.s.s.s.r.l.s.c.s.r.z.z.z.z.z.c.z.s.r.k.z.z.z.z.",
"x.r.z.z.k.r.q.c.z.r.k.c.z.z.z.z.q.z.z.z.q.c.z.c.z.z.z.z.z.z.z.z.c.c.k.q.j.j.z.r.c.i.s.i.l.z.s.s.c.z.z.z.c.q.c.z.z.q.z.c.q.c.z.c.",
"z.k.c.z.c.z.z.z.c.k.c.q.z.q.c.z.c.z.z.s.z.z.r.k.c.q.c.z.z.z.z.z.q.l.j.j.k.j.k.z.q.c.f.c.z.j.k.i.q.z.q.c.z.r.k.z.z.c.z.z.z.z.z.q.",
"z.z.z.z.r.k.z.z.c.z.c.z.c.z.c.k.z.z.c.k.z.q.r.k.k.r.q.z.z.c.z.z.l.l.l.k.z.k.x.k.k.r.s.i.c.j.k.k.c.q.z.z.c.k.c.q.z.z.s.k.z.r.z.c.",
"z.z.c.z.q.c.q.c.q.r.k.z.q.z.x.r.q.c.k.r.z.c.z.c.z.x.c.z.z.q.z.r.r.r.s.s.s.s.s.i.j.k.i.f.q.k.k.k.z.z.q.c.x.r.z.z.c.z.k.r.c.k.z.q.",
"c.z.z.z.z.z.z.r.z.z.c.q.c.z.z.z.z.z.r.k.c.q.z.z.z.z.z.z.z.z.z.s.s.h.^.'.(.g.f.x.k.j.s.i.c.k.k.k.c.c.q.z.z.z.z.q.q.z.q.c.k.c.z.c.",
"q.z.c.q.c.q.c.k.q.c.z.z.q.z.z.z.z.s.k.c.z.z.q.c.z.z.c.q.c.z.k.s.f.'.>X>XOX^.f.x.k.j.s.s.r.r.x.k.k.r.z.z.z.z.z.c.c.z.c.k.r.z.z.q.",
"c.z.c.z.c.q.r.k.z.z.c.q.z.c.k.r.q.z.z.q.z.z.z.z.x.r.c.z.z.z.k.f.OX}.* @ G.!.).s.z.k.r.s.r.r.s.x.z.z.x.r.c.z.z.z.q.z.z.c.q.c.z.z.",
"k.z.q.z.q.c.k.c.k.c.z.z.z.z.q.c.c.z.z.c.k.c.q.c.z.k.r.z.z.z.x.g.@XQ 5 p # >X^.f.s.l.r.r.r.r.h.k.s.z.z.k.q.z.z.z.c.z.z.q.z.z.z.z.",
"r.z.c.q.z.z.z.z.r.z.z.q.z.z.z.z.z.z.k.c.r.z.z.z.z.z.c.q.c.k.z.(.;X3 l l 6 2X`.v.c.q.z.e.s.h.c.x.s.k.z.c.z.z.z.c.r.c.q.c.z.z.k.s.",
"q.c.z.k.r.c.q.c.k.s.z.c.c.z.q.c.s.k.r.z.x.z.z.z.c.z.k.s.k.r.z.^.2X< z b 9 m.|.g.f.c.r.r.s.s.k.x.z.z.z.z.q.c.z.z.k.z.z.z.c.z.z.z.",
"z.q.z.z.z.z.c.z.z.z.z.z.k.z.z.z.z.z.z.z.c.z.c.z.q.c.q.z.z.c.q.'.1X0 R g K ! |.f.i.x.s.s.s.r.k.x.z.k.c.q.c.q.z.q.c.k.z.z.q.z.c.q.",
"z.c.k.c.z.z.q.z.c.q.c.z.r.x.z.z.z.z.c.q.q.z.q.z.z.z.c.z.z.z.z.'.3Xa d Y d q >Xd.a.x.i.s.s.r.k.k.x.r.z.z.z.z.z.c.q.z.z.z.z.z.z.z.",
"z.z.r.k.z.z.z.z.k.r.z.z.z.z.z.c.x.s.c.q.z.z.z.z.s.k.k.r.s.z.q.'.4Xq R h Y 9 =Xf.i.x.x.i.s.r.l.k.k.z.c.r.z.z.q.c.c.r.z.z.k.z.c.k.",
"z.i.s.s.z.z.z.z.i.k.i.k.k.z.z.q.l.r.k.r.s.c.z.z.k.x.x.s.s.s.f.@X3Xe J G F K -XOX^.v.a.a.r.r.k.k.z.k.s.k.z.z.z.k.r.k.s.s.s.z.z.r.",
"x.s.s.s.r.r.l.x.c.k.k.k.k.k.z.e.r.l.r.c.n.0.c.l.k.x.x.x.a.(.OX2XT.I -. . .I C 4X@X].p.i.l.k.k.k.r.r.r.r.z.z.l.z.r.s.s.s.s.s.j.l.",
"x.x.s.s.z.l.z.k.x.k.k.k.v.x.c.n.z.0.r.i.s.s.w.k.k.v.%X~.].oX&X7 k Y O.+.+.G J P 3X=X+X).q.j.k.i.r.r.s.x.k.r.l.j.z.s.c.d.f.s.k.l.",
"x.x.s.z.s.l.l.x.k.k.z.q.x.d.(.'.f.g.a.v.k.x.j.k.k.x.d.^.@XN., l Y  . .+.:.G D L 1 E.1X.X).w.i.c.r.r.s.z.i.j.l.z.l.r.h.s.s.s.z.l.",
"x.s.s.s.r.r.z.z.z.k.z.r.%X'.@X*X=XoX^.f.c.c.x.x.j.v.p.@XD.3 t b  .O.+.......G I z t 4 M.OXh.b.i.c.z.s.s.x.i.c.l.r.s.c.s.s.q.c.l.",
"q.c.r.s.r.r.c.s.r.r.c.h.y.>XQ 3 > { =X/.c.q.x.i.r.h.@X4X< z b Y  .+.O.+.+.+.....G b k 5 D.@X(.h.r.r.i.i.i.x.k.z.r.r.s.s.s.r.z.l.",
"z.k.s.s.s.z.s.s.c.c.e./.@X^ 4 e x > D.OX$Xq.v.a.s./.;X` x g ;.O.| X.=.X.o.*.o.o.|  .m l 5 ;X`.h.s.r.c.s.i.x.i.k.z.r.r.s.s.z.z.z.",
"z.z.i.r.q.c.i.s.q.s.h.`.-XC V I U K 4 .Xd.s.s.s.h.`.U.q Y O.+.X.+.%.@.@.@.o.@.O.;.B m c v & =Xh.s.r.r.s.x.x.x.x.z.l.r.z.r.r.c.q.",
"z.z.c.z.z.z.i.x.z.s.h.OXP.9 Y F G V * >X].q.h.s.h..X/ L -.B %.+.+.%.@.@.+.%.%.O.-.d n n c , C.OXh.r.r.i.x.x.k.k.z.s.r.r.r.z.i.c.",
"l.r.s.s.l.k.i.i.c.s./.=Xq U F  .D V * .X~.c.q.d.`.-Xy I  .......+.%.%.O.o.+.O.O.b 1.6X9Xu u & -X).l.z.c.k.k.c.j.z.l.l.r.x.s.i.x.",
"r.s.s.s.q.c.i.v.i.s./.9.0 b O. .k 1 F.OX(.x.q.%X@X} K  .| ..+.+.@.+.+. ...+.O. .z 9X0X0X4X2 , S.OXh.r.r.q.c.k.k.z.r.z.z.z.s.x.i.",
"z.s.s.s.l.l.i.i.s.g.^.C.0 Y  .I < ] OX).x.q.v.^.;X3 z  ...+.o.o.%.%....... . .b c 9X0XqXqXL.u 3 }.$Xu.s.k.j.k.c.z.z.r.r.q.s.x.x.",
"r.r.f.s.z.k.x.c.i.s.^.=X< x D 1.E.*X+Xp.i.v.(.OXI.p b O...o.o.#.o.+... .+.O. .b c 9X0XqXqXo > 2 *Xt.).b.q.k.l.z.z.z.r.r.c.c.x.x.",
"r.r.c.s.r.z.x.k.q.b.%X{.Q q J J.4X>XOX).).d.h..X( n -.$.O. .o.X.#.+...O.$.$. .I w 9XqXwX7.. O % : +X'.h.h.j.q.z.c.i.s.k.z.z.k.i.",
"e.e.z.h.r.z.k.k.k.0.d.+X&X3 k t B.4X2X;X=X@X.X1Xv m O.X.+.X.*.=.o.+. .O.$.%...D n Y.0XwX  . o - + >XQ.(.0.r.z.z.i.s.s.r.r.k.k.k.",
"l.e.s.r.s.z.l.j.k.c.i.].>X8.q l q q 0 a a 3.R.K.J F  ...,.o.X...#.+. .O.$.#.o...f v 0XwXwXX o ' @ 7XoX].s.i.c.q.s.s.c.i.s.l.j.k.",
"r.z.r.s.s.s.z.j.c.w.v.d./.@Xm.5 1 q e w P e 9 L D :.X.+.X.%.+.+.+.#.O.O.%.%.+...g 8 0XqXwXwXwX8X% M.>Xp.b.s.q.c.c.i.i.s.z.z.z.k.",
"r.z.r.c.s.z.z.z.z.k.i.s.s.(.'.OXH.~ M & = C 9 I G ..%.$.@.+.+.+.%.%.$.O.+.......B m 9XqXwXwXwXwXu 5 @Xg.s.i.i.i.s.s.i.x.k.s.z.l.",
"k.r.k.z.k.z.z.z.z.r.z.c.s.k.x.s.f.].oX,X;XR.4.h G ..$.$.%.+.o.+.%.@.#.@.+.....o.,.m v 0XqXqXwXqX8 q .Xs.s.c.c.x.s.r.s.x.x.k.z.z.",
"c.q.q.z.z.c.z.z.z.z.z.z.r.z.s.s.).p.`.@X>X1X2.I ....+.O.O.O.%.@.O.O.#.#.o.%.#.@.B B l 4X0X0XwX0X< 7 @Xh.b.q.q.q.z.r.z.x.k.k.z.z.",
"q.c.c.z.z.q.s.k.z.z.q.c.z.z.k.s.q.i.$XW.!.2XZ D  ...O.O. . .@.$.%.$.$.O.%.+.@.%.,.B f c 6X9X9XM 0 T.XXd.u.c.z.e.r.r.l.k.k.k.k.z.",
"z.z.r.k.q.z.z.r.c.z.z.c.q.z.z.r.z.c.r.).+XU.q Y  ...O. . . .$.#.+.O.+. ... .O.O.$.O.g m n n 5.j t { >X].g.s.r.e.e.r.z.k.k.k.k.x.",
"z.c.q.c.c.z.c.k.q.z.z.q.c.z.c.j.r.z.r.).}.C.H b  . .O.O. .O.%.$.+.+. . . .O. .O.O.,.B ,.O.;.g Y K 6 =X].d.n.e.z.r.l.z.k.k.k.i.k.",
"z.z.z.z.q.z.z.z.z.c.z.c.z.z.z.z.l.i.g.'.}.^ l F O.O.O.O.+.O.+.+.O.+.O.+.O.$.O.$.,.X.$.$.N O.-.b b p &X).0.n.q.r.r.z.z.k.x.x.k.z.",
"c.z.q.c.c.z.z.z.z.z.z.q.z.z.z.z.q.c.a.oX;XM k Y  .$.$.$.+.+.+.o.+.O.O.O.$.$.$.+.%.%.%.$.$. .F b b 0 ,X^.s.r.i.s.r.r.q.c.s.i.r.l.",
"k.r.x.z.z.z.c.q.z.c.k.s.z.z.z.z.z.i.(.oX7X5 l -...o.&.&.@.+.+...O.O.+.$.#.@.%.o.+...o.%.O.-.z x c 2 <X'.x.x.i.a.s.r.z.i.r.z.l.z.",
"q.c.r.k.z.z.z.z.z.q.r.k.z.z.z.z.z.s.).oX4X5 z  .+.+.*.#.#.@.....+.O.O.%.#.&.#.#.+.:...| ;.f 5XP s > Z.~.v.x.i.i.s.r.s.s.c.q.r.e.",
"z.q.z.c.q.c.z.c.r.c.z.z.c.z.c.z.l.q.v._.2X6 z G +.o.#.#.%.o.+.o.+.@.%.@.&.&.&.#.o. ... .>.E 6X9X9X6X6.%Xx.x.i.x.s.r.g.c.z.z.r.e.",
"z.c.z.z.z.z.z.q.k.c.z.q.q.z.q.z.r.r.h.^.;X, z -.+.+.#.#.O.+.o.+.$.O.$.%.#.&.#.#.+.|  . .f b 6X6X9X0X6.#X~.x.v.x.r.r.h.x.z.l.z.z.",
"q.c.c.z.z.z.z.k.z.c.q.c.r.k.z.z.r.e.z.^.;X1 z  .+.o.o.#.+.+.+.o.%.o.O...o...o.......:.| ;. .n x 6X9XG.[.%Xi.i.c.z.e.s.s.z.k.z.z.",
"z.r.k.z.c.z.z.s.z.z.z.z.c.z.z.z.s.r.c.(.2X5 K  .+.o.+.+.+.+.+.+.+.O.+. .............o.X.$.;.B m r 3.- <X~.i.c.q.e.r.i.k.k.k.k.x.",
"z.c.q.z.q.c.z.z.k.s.z.z.q.z.c.i.s.s.c.^.4X0 z  .+.o.o.O.+.+.+.o.+.+.+.+.+.+.O.+.o.o.#.*.o.O.O.F Y 8 * *X].s.f.s.l.l.z.x.i.x.x.x.",
"z.q.c.z.z.z.z.z.r.k.c.q.c.z.z.s.s.s.h.^.2X6 z  .O.+.+.+.O.O.+.+.@.+.+.+.O.O.o.%.*.o.#.#.O.X.+. .g z 3 ,X^.s.c.s.e.r.z.x.x.x.x.x.",
"z.k.r.x.c.q.z.c.q.z.z.c.k.c.q.c.x.q.s.d.=XQ H g +.X...+.| o.#.#.+.O.O.+.X.+.%.O.%.%.%.+.#.o.%.O.$.b 6 ;X+Xs.s.j.k.q.x.s.s.s.l.r.",
"z.c.z.z.z.z.z.z.c.z.z.q.r.k.z.q.k.k.c.$X.Xm.t Y  .+...+.o.*.#.#.%.+.%.%.+.O.+.o.O.o.O.+.%.%.+.+.B U 4 -X^.f.c.q.k.x.s.s.s.s.s.l.",
"z.z.z.z.z.z.k.c.k.q.z.c.z.q.z.x.x.x.q.h.OXU.< J -.,.o.%.o...+.+.+.O.O.O.O.o.+.O.O.O.O.+.+... . .-.e W ,X_.i.c.k.x.x.s.r.s.r.r.z.",
"z.q.c.z.z.x.r.z.r.c.z.z.z.c.z.k.k.x.q.g.`.=X$ H f O.%.X.+.<.G +.+.O.+.%.+.$.O.O.%.+.+.| X. .+.G k q 8.}.$Xc.w.k.k.z.r.s.s.s.z.z.",
"c.q.z.z.c.k.z.z.z.x.r.c.z.z.z.x.x.w.x.i./..XI., K m g O.O.| +.+.|  .O.O.+.O.O.O.X.O.O.:.+.:. .b H *  XOXf.c.q.c.l.z.z.r.s.i.z.k.",
"z.z.q.c.k.r.q.c.z.r.k.z.c.q.z.k.k.q.k.n.s.].XXN.5 l b I -.g -.-. .G  .G ..G  . .;. .F -.Y G G K = ] >X^.h.s.q.x.r.k.r.s.s.c.x.q.",
"c.z.c.z.s.z.c.z.z.c.c.q.z.z.z.c.c.c.u.s.s.h.h..XG.W C p r n b m I I J J S D S D J J K L L L V 1 A.@X^.f.b.k.c.q.k.r.r.r.c.s.x.x.",
"k.r.q.z.z.z.q.z.z.q.k.z.z.s.k.r.r.r.c.s.r.r.n.p.`.=X=XS.B.{ ) Z C A A A / / / ( ` ` _ ( { V.E.2X>X'.f.s.0.k.k.x.z.z.l.r.i.s.x.x.",
"k.c.z.q.z.s.z.z.z.c.z.z.z.z.z.z.j.l.r.s.s.s.s.h.).^.`.OX@X@X=X>X@X=X>X=X>X*X>X>X>X X@X@X X#X#XoX'.f.s.z.z.l.i.r.r.z.r.r.x.x.x.x.",
"r.z.z.c.z.k.z.c.z.q.z.z.x.z.z.r.l.l.r.s.s.s.s.c.s.f.f.h.h.d.).(.g.h.f.(.(.(.~.(.(.(.~.v.a.v.f.s.s.s.l.k.z.q.c.s.r.l.r.r.s.s.x.x.",
"c.q.z.z.z.z.z.z.z.q.z.z.z.z.z.l.r.r.s.s.s.s.l.q.k.k.z.r.r.r.r.h.f.f.f.f.f.f.v.i.s.c.s.q.q.z.l.z.k.r.l.l.z.z.s.s.c.z.z.x.s.s.r.z.",
"z.z.q.c.z.z.q.c.z.c.z.c.z.z.s.x.s.s.s.s.s.z.k.k.k.k.k.k.l.l.l.z.i.s.c.i.s.s.s.i.z.z.z.c.j.z.l.k.k.k.z.j.l.z.s.c.q.z.z.s.i.s.x.l.",
"c.z.z.c.z.z.c.z.q.c.z.s.z.z.z.c.s.c.i.z.q.i.x.x.x.x.i.x.x.k.k.z.i.i.s.x.x.c.i.s.s.x.i.x.i.x.i.x.s.z.l.z.r.s.s.s.z.x.x.x.c.s.r.l.",
"q.z.r.k.z.z.q.z.z.z.z.k.c.q.z.i.a.s.k.r.z.c.x.x.x.x.s.x.s.x.z.z.s.c.s.s.s.i.i.s.x.i.x.i.v.a.a.i.i.z.z.l.r.s.s.s.z.x.x.x.i.s.r.z.",
"c.z.x.z.z.z.c.z.z.z.k.r.q.c.r.i.x.x.j.k.l.z.r.s.z.z.z.z.s.i.s.c.s.x.c.q.z.z.l.z.s.k.z.z.i.i.c.i.s.s.s.r.s.s.s.s.s.k.x.i.x.c.e.e.",
"q.z.z.z.x.r.k.z.q.c.c.z.z.z.z.k.x.x.j.k.l.l.s.z.z.r.l.l.s.s.r.s.q.c.z.l.z.k.l.l.l.j.l.r.k.z.s.s.s.s.s.r.s.s.s.i.s.x.x.x.s.h.e.e."
};
