/* XPM */
static char *_643294123336[] = {
/* columns rows colors chars-per-pixel */
"64 64 223 2 ",
"   c #04000D",
".  c #0C0316",
"X  c #14001E",
"o  c #19002A",
"O  c #240536",
"+  c #722C7D",
"@  c #6A3679",
"#  c #723373",
"$  c #73357C",
"%  c #733E7C",
"&  c #753D76",
"*  c #6D356F",
"=  c #774371",
"-  c #6D2D8E",
";  c #7A2B84",
":  c #742B8D",
">  c #792B8A",
",  c #742885",
"<  c #6C3181",
"1  c #693387",
"2  c #743383",
"3  c #7D3484",
"4  c #743A83",
"5  c #74338A",
"6  c #7D338E",
"7  c #7B3B89",
"8  c #6E2A9B",
"9  c #7D2697",
"0  c #762B95",
"q  c #7B2C93",
"w  c #772A9E",
"e  c #7C2C9C",
"r  c #7A2399",
"t  c #6B3291",
"y  c #7C3293",
"u  c #76319C",
"i  c #7D339A",
"p  c #703594",
"a  c #7C1EAC",
"s  c #781CA1",
"d  c #7B1CB5",
"f  c #7D1ABB",
"g  c #7718B6",
"h  c #7423A3",
"j  c #7C24A4",
"k  c #762DA4",
"l  c #7C2BA3",
"z  c #7423A8",
"x  c #7C22AC",
"c  c #7D2AAB",
"v  c #7629AB",
"b  c #7C32A6",
"n  c #7C23B4",
"m  c #7D22BC",
"M  c #7A2AB4",
"N  c #7F30B0",
"B  c #7F4381",
"V  c #7E4397",
"C  c #7E1CC4",
"Z  c #7E14C6",
"A  c #822E8A",
"S  c #843E8B",
"D  c #813A87",
"F  c #853599",
"G  c #802795",
"H  c #801FA9",
"J  c #821EB4",
"K  c #8214BF",
"L  c #831CBD",
"P  c #8016B6",
"I  c #822CA5",
"U  c #8224AC",
"Y  c #8329A9",
"T  c #8323B2",
"R  c #8323BC",
"E  c #8827B9",
"W  c #8431A7",
"Q  c #844488",
"!  c #8C4895",
"~  c #90469F",
"^  c #955C97",
"/  c #905689",
"(  c #936186",
")  c #A0639C",
"_  c #A97099",
"`  c #964CA3",
"'  c #9B55A4",
"]  c #8843B0",
"[  c #9748BD",
"{  c #996EA6",
"}  c #A665A5",
"|  c #A86DA4",
" . c #AE73A9",
".. c #B675B8",
"X. c #BB7BB4",
"o. c #B067B5",
"O. c #8415C4",
"+. c #8A16C7",
"@. c #841BC4",
"#. c #891BC5",
"$. c #8415CB",
"%. c #8A16CC",
"&. c #861ACC",
"*. c #891ACC",
"=. c #911ACE",
"-. c #8A16D3",
";. c #8619D1",
":. c #8A1AD2",
">. c #8C1CDA",
",. c #8515D5",
"<. c #921BD4",
"1. c #8422C3",
"2. c #8B21C4",
"3. c #8522CA",
"4. c #8A21CA",
"5. c #8C29C1",
"6. c #8D21D3",
"7. c #993BC5",
"8. c #9A4BC0",
"9. c #A955C7",
"0. c #B374CF",
"q. c #CA7FD1",
"w. c #C979ED",
"e. c #BE8DB2",
"r. c #B1A4B6",
"t. c #A98C91",
"y. c #CF98B5",
"u. c #C3A3B0",
"i. c #E9E29C",
"p. c #EDDCA6",
"a. c #E7D9AB",
"s. c #EDDDAC",
"d. c #E8D6A8",
"f. c #F1DEAE",
"g. c #F0DCA7",
"h. c #EECFBD",
"j. c #F4CFBC",
"k. c #EDDDB3",
"l. c #EEDCBA",
"z. c #EBD6B6",
"x. c #F1DEB3",
"c. c #F3D6BB",
"v. c #FAD7BE",
"b. c #F3DCBB",
"n. c #F9DCBD",
"m. c #F4DAB7",
"M. c #EEE1AD",
"N. c #ECE4A3",
"B. c #F0E0AF",
"V. c #F3E6AB",
"C. c #EEE1B2",
"Z. c #EFE1B9",
"A. c #F3E2B3",
"S. c #F9E5B4",
"D. c #F4E2BB",
"F. c #FAE4BA",
"G. c #FAE9BE",
"H. c #CD8FC2",
"J. c #CF96CB",
"K. c #D499CB",
"L. c #D896D9",
"P. c #CF8FD8",
"I. c #D7A0C6",
"U. c #DCB8CC",
"Y. c #DCA6D6",
"T. c #E2ADCC",
"R. c #E4BECD",
"E. c #E0AADB",
"W. c #EAB5DF",
"Q. c #DD92FB",
"!. c #E392EE",
"~. c #D9A9E3",
"^. c #EDAAE3",
"/. c #F4BBE8",
"(. c #EAABFC",
"). c #F2AFF6",
"_. c #FEBBFD",
"`. c #F1B0F0",
"'. c #EDB3E5",
"]. c #F3CBCA",
"[. c #EED4C2",
"{. c #EDD0C8",
"}. c #F3D4C4",
"|. c #F9D5C5",
" X c #F5DAC3",
".X c #FADAC4",
"XX c #F5D4CB",
"oX c #FAD5CC",
"OX c #F5D9C9",
"+X c #FADBCC",
"@X c #F6CCD4",
"#X c #FACDDD",
"$X c #FAC9D8",
"%X c #F6D5D2",
"&X c #FBD3D4",
"*X c #FED9D2",
"=X c #F6D4DC",
"-X c #FCD3DC",
";X c #FFDADB",
":X c #F7D9D1",
">X c #F5E0C2",
",X c #FDE3C4",
"<X c #FAE3CB",
"1X c #FEC4E7",
"2X c #FDCCE3",
"3X c #FCC3EC",
"4X c #FDCBEB",
"5X c #F3C7E4",
"6X c #FDD2E4",
"7X c #FFDAE5",
"8X c #FFD2EC",
"9X c #FBC5F6",
"0X c #FFCDF3",
"qX c #FFC5FD",
"wX c #FECAFD",
"eX c #FFD4F1",
"rX c #FFD1FF",
"tX c #FFDEFF",
"yX c #F5D1FF",
"uX c #FFE3FF",
"iX c #FFECFF",
"pX c #FFF2FF",
"aX c #FEFCFE",
/* pixels */
"B.A.s.B.M.A.s.B.A.s.B.B.B.s.B.B.x.f.A.B.B.B.V.s.f.B.M.M.M.M.M.M.k.M.M.N.s.A.l.b.x.f.f.f.m.A.f.f.M.f.f.M.s.B.B.s.B.B.B.B.A.B.B.A.",
"B.B.B.B.f.M.B.B.B.B.s.A.B.A.A.B.k.A.s.B.V.B.B.B.M.x.M.k.M.M.V.M.A.a.V.V.A.m.b.D.x.f.f.x.x.f.f.f.V.s.B.B.A.M.B.A.B.B.B.B.s.B.f.M.",
"A.B.A.s.B.A.A.B.B.B.M.B.B.B.M.f.A.s.f.s.s.f.B.B.s.A.x.A.x.s.A.s.S.V.s.V.f.s.A.s.f.s.f.f.x.x.B.V.B.B.B.x.M.f.B.s.A.B.B.s.A.B.M.A.",
"M.B.B.B.B.B.s.B.B.A.f.B.B.s.A.M.B.B.B.V.f.M.B.B.x.f.x.k.A.k.x.A.M.s.f.s.A.A.p.A.f.V.M.A.x.x.A.f.B.B.B.B.A.B.B.A.M.f.B.A.s.B.B.s.",
"f.M.f.B.B.B.B.B.B.B.A.M.B.B.B.B.V.s.f.B.V.B.B.B.k.A.C.m.C.A.k.x.f.x.>Xb.A.p.S.p.s.N.f.M.k.D.M.M.B.M.M.A.s.B.f.B.s.A.f.M.B.B.A.M.",
"s.A.M.A.A.B.s.A.A.B.s.f.A.s.M.A.B.f.s.B.s.B.B.B.k.x.C.m.m.k.l.A.m.<X}.XXc.A.g.g.V.f.B.s.k.k.M.M.B.B.B.B.A.B.M.B.B.B.B.B.B.B.M.f.",
"B.A.s.B.s.B.A.M.s.B.A.M.s.A.f.B.V.s.B.x.f.s.B.B.B.x.x.x.C.k.x.c.|.].-X7X{.n.g.V.V.s.M.k.Z.l.M.M.B.B.f.B.s.B.B.B.B.B.B.A.s.A.A.s.",
"B.B.B.B.B.B.M.f.B.B.B.B.B.B.B.B.B.B.B.M.B.A.B.B.V.s.V.s.C.A.A.b.&XT.& * 6Xj.F.f.B.B.B.C.Z.C.s.f.B.B.B.B.B.B.A.B.A.B.B.B.B.B.B.B.",
"B.M.B.B.M.A.B.s.B.A.B.B.A.B.B.B.f.B.x.f.k.B.x.B.V.g.B.p.B.B.A..X4X$ 6 + ( &X.Xf.x.f.B.x.m.C.B.N.f.B.B.M.s.A.f.M.M.f.M.f.B.B.C.B.",
"f.A.B.s.B.B.B.A.f.M.B.B.M.f.s.A.M.A.C.x.f.A.M.f.f.p.V.B.B.f.d.oXwX> w 0 # #X|.n.x.x.B.B.k.A.V.f.M.B.B.A.B.B.B.B.A.M.A.B.B.B.B.B.",
"B.B.B.A.f.M.B.B.M.B.B.s.B.s.B.B.C.s.x.C.k.x.B.s.g.g.V.B.g.g.F.*Xq.j n v $ 0XoXm.m.x.x.B.x.x.f.f.B.B.B.B.B.B.B.A.s.B.A.B.B.B.B.f.",
"A.M.B.B.s.A.B.s.A.s.B.A.B.A.B.B.M.M.x.x.A.k.x.V.V.g.g.p.V.S.s.@XF R m x y 9X&Xv.m.x.A.B.k.f.f.V.B.B.B.s.A.B.B.B.B.B.s.B.B.s.A.B.",
"s.f.M.B.f.B.B.A.M.A.B.s.B.B.f.M.M.M.x.x.k.A.x.M.f.S.B.g.f.k.n.6XG #.C n 6 9X&X|.x.x.s.M.M.A.B.B.B.B.B.B.B.B.B.B.s.A.B.B.A.M.A.s.",
"B.A.B.B.M.A.B.B.f.B.B.A.A.M.B.B.M.M.B.f.A.k.x.f.f.V.p.S.x.F.c.#X9 *.@.T : wX&X.Xx.V.M.M.C.s.C.s.B.B.B.B.s.A.A.s.B.B.B.B.M.f.B.B.",
"A.B.A.s.B.B.B.B.M.A.B.B.B.B.B.B.M.N.V.x.x.k.x.x.f.f.F.f.F.b.h.4XU *.L x : 9X&Xn.x.f.M.M.M.M.C.C.x.M.B.B.M.B.B.B.B.B.B.B.B.B.B.B.",
"s.B.B.B.B.s.A.B.B.s.B.s.A.B.B.B.M.s.f.x.x.C.A.x.x.f.m.z.+X{.7X& T +.2.T I (.0X@X|.x.M.M.M.C.Z.C.B.A.k.x.x.B.x.B.B.B.M.x.x.B.B.C.",
"B.B.B.B.B.M.f.B.s.B.B.s.B.B.B.A.s.A.x.f.A.A.C.C.V.m.v.+X$X3X~ I #.#.#.E L T I _.6X}.A.M.M.Z.l.C.s.A.b.l.z.x.A.f.N.N.a.A.k.A.M.C.",
"A.B.s.A.B.A.B.B.A.M.B.A.A.B.s.A.Z.k.F.g.p.A.Z.Z.m.v.$X1X_.A U L #.*.+.=.K 2.R 8 L.=X Xs.Z.C.C.k.S.s.z.>X}.+X}.b.f.f.C.A.C.d.V.M.",
"M.A.s.B.A.B.A.s.M.f.B.B.M.B.B.s.A.s.x.f.C.C.M.a.|.-XJ.> e x T @.$.:.$.*.=.K C E 5 Y.oXb.a.M.A.A.m.A.b..X-X6X2X-X|.b.F.z.M.V.V.M.",
"f.M.B.B.s.B.B.B.A.B.B.s.f.B.B.A.M.M.f.m.Z.a.Z.<X-X^.q j R f 4.&.:.;.<.+.#.2.@.f z 6 2X+Xb.A.f.x.k.m.c.&X_ # # / #X+Xh.C.A.p.V.B.",
"s.A.B.B.B.A.M.B.A.s.B.A.B.B.B.B.V.B.m.F.s.A.D.%X9X6 x L 3.,.>.Z :.Z >.:.#.O.4.3.R l } 2Xj.x.f.A.D.OX+XU., I I :  .2X+Xd.B.B.A.x.",
"A.M.f.B.B.B.B.B.B.B.B.B.B.B.B.B.M.M.m.x.M.S.[.2X4 w x 1.&.6.Z >.$.;.;.;.*.&.*.O.3.a F '.;Xc.x.A.l.OX7X* I d R Y 6 3X&X,Xp.f.A.z.",
"f.M.A.M.s.A.f.M.B.B.x.M.B.B.B.B.p.M.F.z.x.l.=XY.5 w l z z L :.>.:.;.6.*.#.&.#.*.&.2.U ` 2X}.k.k.Z.[.7X* c @.L R 9 `.@Xm.B.f.x.D.",
"B.B.B.B.B.B.s.A.B.B.B.B.B.B.B.B.M.s.A.x.m.}.8X* 5 - uXtX8.x &.,.-.*.@.@.#.*.#.#.%.$.J 9 3X%X>XZ.C.OX@XB 9 1.@.1.c + 6Xv.f.V.A.z.",
"B.s.B.B.A.s.B.B.A.B.B.A.B.B.M.B.A.a.M.A.c.&XY.4 4 rXiXuXtXl R *.:.-.#.L #.#.#.#.-.<.@.c  .-XOXZ.C.b.&XW.: n 3.@.x q y.+Xm.x.A.l.",
"B.A.A.B.M.f.B.B.s.B.f.M.B.B.x.B.s.C.A.z..X6X$ 1 ~.iXpXpXtXk R +.%.:.#.#.#.*.*.%.-.$.#.x $ 4X[.b.b.n.].2X..0 n 1.n : y.|.n.A.C.M.",
"M.A.s.B.A.M.s.A.B.s.B.B.B.B.B.k.D.C.a.l.=XW.@ 1 X pXpXpXiXk T #.*.%.*.*.*.*.*.-.-.:.@.E : /.-Xc. Xl.v.oX2XqX[ M z 5 8XoXb.s.N.N.",
"f.B.B.B.B.B.B.B.B.A.B.B.B.B.B.A.a.k.S.>X@X= 4 O X r.aXiXuXv E #.#.%.-.*.:.*.%.:.<.*.&.1.c ^ #X*XoXoX|.*X#XqXQ.l i ! &X|.k.M.V.i.",
"M.A.B.B.B.B.B.B.B.A.B.B.A.s.B.B.A.A.m.}.4X= * o .   pXpX(.z 1.#.#.*.>.,.-.:.-.*.%.:.&.f x 9 qX#X#X8X4X/.qXP.e 0 $ eXj.F.z.D.k.C.",
"B.s.f.M.s.A.B.s.B.s.B.B.B.B.s.A.C.A.b.XXyX4 { O . aXaXpX8 m 1.*.*.*.,.-.;.&.%.*.*.&.&.&.@.U !._...7 D $ A A q + e.].,Xs.S.C.z.D.",
"B.s.B.A.B.A.M.A.B.M.f.s.B.f.B.B.M.A.z.;XP.1 yXpXaXaXpXiXN C C *.*.&.;.&.%.#.#.*.&.*.$.&.@.J H I l r U I G A + H.-X:Xl.Z.a.A.S.B.",
"B.A.B.B.B.B.f.M.B.A.M.A.A.M.B.B.M.s.n.-X4 1 pXaXaXaXpXtXz C &.&.*.&.;.*.&.&.#.&.&.*.:.*.#.2.L a k u q F o.E.0X-XoXc.D.l.C.A.p.B.",
"A.B.s.A.B.B.A.B.B.B.A.B.A.B.M.f.A.A. X2X2 p iXpXpXpXuXb R 3.$.:.;.*.-.*.*.*.#.*.*.4.#.4.L #.P w.9X=X:X+XXXoX X Xx.x.b.A.x.B.B.V.",
"B.B.B.B.A.B.s.B.A.B.s.B.s.s.A.M.s.k.}.6X5 - iXiXiXuXqXc d &.:.%.*.-.:.%.%.-.:.*.&.*.O.*.@.2.@.9.#Xm.M.V.N.M.s.M.x.x.m.x.x.B.B.s.",
"B.B.B.B.M.f.s.B.M.f.f.B.B.B.B.C.C.k.F.].).i V uXuXuXv d 3.&.4.=.*.%.#.:.%.;.*.%.$.*.#.*.#.O.@.I 2Xl.s.N.V.M.s.A.f.f.x.x.x.M.V.s.",
"f.M.s.A.M.B.A.M.A.M.M.B.A.B.B.B.s.A.m.;Xo.e v P.b M d 3.C 3.*.#.*.*.*.%.;.*.;.:.;.*.*.:.&.&.4.j 5Xb.x.f.A.M.C.M.f.f.x.x.x.f.f.f.",
"B.B.B.B.B.B.B.f.s.B.A.s.B.B.A.B.C.A.c.$XF T n m m g 3.&.6.&.K #.+.*.*.&.*.-.&.;.:.*.:.$.*.:.6.x K.OXn.f.f.f.A.M.B.B.x.x.f.B.f.B.",
"A.s.s.A.B.s.A.M.B.B.B.B.B.s.M.f.M.m..X2Xu g 3.C C 3.&.&.;.O.*.*.#.#.*.*.&.*.$.:.:.&.:.,.:.;.$.a | %X.Xx.x.p.C.M.V.B.x.x.B.f.x.f.",
"B.B.B.B.B.A.B.B.B.B.B.B.B.A.f.f.V.z.OX4Xu m C &.2.*.@.6.&.>.$.%.*.*.&.*.:.$.:.*.;.,.;.:.:.:.-.T = -X Xx.x.s.A.C.s.M.x.f.V.f.f.x.",
"B.M.A.B.B.B.f.C.B.f.M.A.s.A.M.s.V.A. X5Xt M M R L O.:.$.%.:.$.&.#.*.*.&.*.*.*.;.&.:.*.:.&.:.&.T 2 8X}.m.m.f.A.M.C.M.f.f.f.f.f.x.",
"f.M.B.f.B.B.B.B.s.B.B.s.B.B.B.V.p.F.h.R.= t N tXJ L =.<.%.%.:.&.$.&.:.&.&.:.$.&.:.*.*.&.*.&.*.J $ 2XoXn.x.A.s.A.M.M.B.B.V.f.f.x.",
"s.A.B.B.A.s.M.A.A.B.B.A.B.B.B.B.V.s.<Xt.uXiXuXtX7.5.+.%.%.%.:.;.*.*.&.%.:.:.*.*.$.*.*.*.*.*.#.U 2 4X*Xn.x.C.C.A.M.M.B.B.f.f.f.x.",
"B.B.B.M.B.B.f.M.B.B.A.B.A.M.A.k.m.b.XXu.pXuXuXtXE L %.<.=.%.-.;.:.;.:.;.*.$.;.*.*.&.&.*.*.#.#.J 2 4XoXn.x.g.A.s.C.M.M.B.B.g.x.x.",
"A.s.B.A.B.B.s.A.B.f.M.B.M.f.s.A.l.XX=XU.iXuX- k a L *.*.+.+.-.&.&.&.;.%.&.*.%.&.&.*.#.&.*.#.+.U 2 4X].v.x.f.x.x.k.C.B.B.B.f.x.x.",
"A.B.M.B.A.B.B.A.B.B.B.B.B.B.s.A.>X{.8X& 0.8 v n R 3.#.*.#.=.;.Z ;.&.&.&.*.*.&.%.*.*.*.*.*.*.*.T 2 eXXXm.f.f.x.x.x.x.B.f.V.g.x.A.",
"s.B.f.A.s.B.f.M.B.s.A.s.M.B.A.k.l.OX0X3 k n m 3.@.@.$.:.<.*.&.@.&.&.*.&.:.&.:.*.%.&.*.*.*.%.%.n 2 8X*Xm.f.f.x.x.x.C.f.f.N.f.A.m.",
"B.B.B.B.A.B.M.A.M.A.B.B.f.B.B.x.D.OX3XA U @.&.C &.&.,.-.<.%.@.3.&.&.&.&.&.;.*.*.&.$.:.%.%.-.*.R 7 5X+Xx.g.S.s.x.x.x.x.B.s.V.M.k.",
"B.B.B.B.s.B.B.s.f.M.A.B.s.A.B.C.s. X3XA E O.:.>.$.&.>.-.-.-.3.@.&.&.&.*.&.&.*.$.*.*.%.:.:.*.;.T ' #X.Xx.p.B.f.A.x.x.f.f.f.B.C.C.",
"A.B.B.A.A.s.B.B.A.M.B.A.M.f.M.x.x.OX4X3 s 4.:.<.-.-.:.,.:.:.&.@.&.&.*.:.:.:.*.*.*.#.*.*.&.&.*.x e.<Xl.k.A.f.f.s.x.B.B.B.A.B.x.A.",
"s.B.B.M.B.B.B.B.B.B.B.B.B.B.B.x.x.oX8XS I d O.%.-.$.&.:.*.&.&.*.*.&.&.%.$.%.%.-.#.*.*.@.2.@.L e R.Z.k.Z.s.V.V.f.V.B.B.B.s.B.A.s.",
"B.B.B.B.s.B.B.B.f.s.B.B.B.B.B.A.x.|.#XX.A U 2.+.:.:.*.*.#.*.*.+.#.#.#.:.*.:.:.-.-.-.:.4.f 5.H y ;Xz.k.D.s.B.V.B.s.M.B.B.B.B.s.B.",
"B.C.f.B.A.B.B.f.M.A.A.s.M.A.s.f.f.,X&X3XA e J #.#.#.*.2.#.+.+.#.*.*.+.#.#.+.%.:.>.$.*.L U U 9 ).XXk.A.k.s.x.p.B.f.f.B.B.B.f.s.V.",
"B.B.B.B.A.M.A.M.B.B.B.B.f.B.B.B.M.k.OX2X..; W n 1.@.L f f 2.*.*.&.*.#.2.2.L #.#.&.C C n I , L.4X}.A.A.s.V.s.M.V.B.B.B.B.B.f.s.V.",
"B.B.B.B.M.f.B.B.B.s.A.B.A.s.B.B.M.C.b.XX2XE.2 q l e I l j j U d J n H Y U r j U c c l i S '.1X&Xb.M.s.s.B.p.A.M.B.M.x.B.V.s.V.s.",
"B.B.B.s.A.B.B.B.A.M.A.s.B.B.B.M.M.M.G.c.*X@X6X/.K. .^ ) } ' ' ' ` ~ ! S S 7 Q Q } J.Y.7X&XXXoXc.A.p.s.V.S.s.V.s.x.x.A.k.f.V.f.p.",
"A.s.B.A.s.B.A.s.M.f.B.B.B.B.B.C.C.C.M.m.x.c. XoX+X%X&X-X#X2X8X4X2X3X4X0X4X4X4X6X-X&XoX Xb.D.s.f.A.B.S.s.B.s.x.m.C.x.C.m.s.B.s.V.",
"B.B.s.A.B.B.M.f.A.s.B.B.B.s.B.M.k.M.C.C.m.C.b.b.b. XOXOXOXOXXX.X.XXXXXOX%X:XXXOX|.b.x.V.x.x.C.C.B.f.s.V.B.B.A.k.x.x.m.C.A.M.f.M.",
"A.B.B.M.B.s.A.M.B.B.f.M.B.A.s.A.V.g.A.k.C.C.x.x.C.k.Z.b.b.b.m.x.C.m.k.b.b. Xb.l.x.x.f.B.M.s.C.k.M.M.f.B.B.B.k.A.C.m.k.A.k.A.s.V.",
"s.B.M.f.A.s.B.A.B.s.B.A.B.B.B.B.V.f.f.x.x.f.V.N.M.B.A.l.b.k.x.x.M.M.M.V.f.x.m.C.x.x.x.x.x.C.C.M.B.B.B.x.x.x.m.C.l.m.C.k.k.f.f.f.",
"B.B.A.B.B.B.B.B.B.A.B.B.B.B.B.B.f.f.f.f.x.f.f.g.V.B.C.m.k.A.x.M.M.M.M.M.M.M.A.C.x.x.x.x.x.x.B.B.x.x.B.B.B.M.s.A.A.k.C.A.A.x.B.C.",
"A.f.B.B.B.B.f.B.B.B.A.B.B.A.s.B.V.f.x.m.m.C.x.A.x.x.x.f.f.f.V.N.M.f.B.k.x.k.m.C.x.x.x.f.f.f.f.f.k.A.f.M.f.M.A.x.k.A.A.k.k.k.B.V.",
"B.M.A.B.B.B.A.s.B.B.s.B.B.B.B.B.f.B.x.x.C.m.k.m.m.x.f.f.s.V.s.M.V.M.A.x.m.A.C.m.x.x.f.f.B.M.f.A.A.s.x.B.f.s.s.B.B.f.k.x.A.f.f.s.",
"f.M.s.B.A.M.s.A.A.s.B.B.B.C.B.A.C.C.M.M.M.C.C.x.s.f.f.V.B.C.Z.l.k.f.M.f.f.M.B.B.s.f.f.B.B.M.f.k.x.C.x.M.M.V.V.M.V.s.B.B.f.M.B.B.",
"M.A.B.B.B.B.B.B.B.B.B.B.B.f.M.f.C.M.M.M.M.M.M.C.B.f.f.f.C.C.l.l.A.s.f.s.V.f.M.V.V.B.M.A.s.C.C.C.x.f.x.B.f.f.s.f.B.f.B.B.B.f.s.V."
};
