/* XPM */
static char *_643294025864[] = {
/* columns rows colors chars-per-pixel */
"64 64 102 2 ",
"   c #AE9D71",
".  c #AFA075",
"X  c #B1A074",
"o  c #B2A175",
"O  c #B0A176",
"+  c #B2A176",
"@  c #B1A277",
"#  c #B3A276",
"$  c #B3A277",
"%  c #B4A377",
"&  c #B0A178",
"*  c #B1A279",
"=  c #B2A378",
"-  c #B2A37A",
";  c #B4A378",
":  c #B3A578",
">  c #B3A479",
",  c #B3A47B",
"<  c #B5A478",
"1  c #B5A479",
"2  c #B6A579",
"3  c #B4A57A",
"4  c #B6A57A",
"5  c #B5A67B",
"6  c #B7A67A",
"7  c #B7A67B",
"8  c #B4A57C",
"9  c #B5A67D",
"0  c #B6A77C",
"q  c #B6A77E",
"w  c #B8A77B",
"e  c #B8A77C",
"r  c #BAA97B",
"t  c #B9A87C",
"y  c #B9A87D",
"u  c #BAA97D",
"i  c #BBAA7E",
"p  c #BDAC80",
"a  c #BEAD81",
"s  c #BFAE82",
"d  c #C0AF83",
"f  c #C1B084",
"g  c #C2B185",
"h  c #C6B587",
"j  c #C9B88C",
"k  c #CBBA8C",
"l  c #CCBB8F",
"z  c #D2C193",
"x  c #D1C094",
"c  c #D3C297",
"v  c #D4C397",
"b  c #D5C498",
"n  c #D9C89C",
"m  c #DAC99D",
"M  c #DBCA9E",
"N  c #DDCC9E",
"B  c #DDCCA0",
"V  c #E0CFA3",
"C  c #E1D0A2",
"Z  c #E1D0A4",
"A  c #E3D2A4",
"S  c #E6D5A7",
"D  c #E5D4A8",
"F  c #E7D6A8",
"G  c #E8D7AB",
"H  c #E9D9A8",
"J  c #E9D8AA",
"K  c #ECDCAB",
"L  c #EAD9AD",
"P  c #EBDAAC",
"I  c #ECDBAD",
"U  c #ECDBAF",
"Y  c #EDDDAC",
"T  c #EFDFAC",
"R  c #EEDEAD",
"E  c #EDDCAE",
"W  c #EEDDAF",
"Q  c #EFDFAE",
"!  c #EDDCB0",
"~  c #EEDDB1",
"^  c #EFDEB0",
"/  c #F0DFB1",
"(  c #F0DFB3",
")  c #F0E0AD",
"_  c #F1E1AE",
"`  c #F0E0AF",
"'  c #F2E2AF",
"]  c #F1E1B0",
"[  c #F2E2B1",
"{  c #F1E0B2",
"}  c #F2E1B3",
"|  c #F3E3B2",
" . c #F4E4B3",
".. c #F1E0B4",
"X. c #F2E1B5",
"o. c #F3E2B4",
"O. c #F3E2B6",
"+. c #F4E3B5",
"@. c #F5E5B4",
"#. c #F5E4B6",
"$. c #F6E5B7",
"%. c #F5E4B8",
/* pixels */
"> > > > > > > > > > > > > > > > = 5 = = = 5 = = 5 5 = = = = 5 5 = = 5 = = = 5 = @ 5 @ 5 @ 5 @ 5 @ 5 @ 5 5 = = = 5 = 5 = = = 5 = ",
"> > > > > > > > > > > > > > > > = 5 = 5 = = 5 = = = = 5 5 = = = = 5 = = 5 = 5 = 5 @ 5 @ 5 @ 5 @ 5 @ 5 @ : = 5 = 5 = : = 5 = 5 = ",
"> > > > > > > > > > > > > > > > = = 5 = 5 5 = = = = = 5 5 = = = = = 5 5 = 5 = = @ 5 @ 5 @ 5 @ 5 : : = = : : : : = : : : : : = : ",
"> > > > > > > > > > > > > > > > 5 = = = = = = 5 5 5 = = = = 5 5 5 = = = = = = 5 5 @ 5 @ 5 @ 5 @ : : = 2 : : : : : : : : : : : : ",
"> > > > > > > > > > > > > > > > = = 5 5 5 = = = = = 5 = = 5 = = = = = 5 5 5 = = @ 5 @ 5 @ 5 @ 5 : : : : : : : : : : : : : : : : ",
"> > > > > > > > > > > > > > > > 5 = = = = = 5 5 = 5 = = = = 5 = 5 5 = = = = = 5 5 @ 5 @ 5 @ 5 @ : : : : : : : = : : : = : : : : ",
"> > > > > > > > > > > > > > > > 5 = = = = 5 % = = = 5 5 5 5 = = = = 5 = = = = 5 @ 5 @ 5 @ 5 @ 5 = 5 = = = = 5 5 = : = 5 = 5 = : ",
"> > > > > > > > > > > > > > > > = = 5 5 = = 5 ; 5 = = = = = = 5 = 5 = = 5 5 = = 5 @ 5 @ 5 @ 5 @ = : = 5 5 = = = = 5 = 5 = = = 5 ",
"5 5 = = = = = = @ > ; > 5 @ @ 0 = 2 2 2 = 2 5 % r 5 2 5 0 0 = . w w % 5 5 5 2 @ w 2 % 5 5 2 @ 2 , , , = , , , 7 0 > , , , , , , ",
"@ @ = @ = 5 5 5 5 = @ @ 5 @ . 5 0 0 0 2 o o 5 w 2 i i u r s v D m V G / o.X.J S V n j w > u r o   , , p 7 7 , @ > > = @ = = , p ",
"r 5 2 2 5 2 > @ w 5 w w w 5 s z M A U o.@.{ ) ^ / Q / / [ { / ~ | / U U E / { { U { { E / o.D c 7 7 ; ; , 7 5 % > w w e e ; & = ",
"  % r w o o u g b m V U X.~ E { %.@.o./ E E { @.%.{ E E { [ X.` / Q { / X./ ) U +.+./ Q / / / ) O.! c p + @ % % > 5 5 5 ; ; e e ",
"F V N V U o.{ E @.X.^ E / { ^ E ~ Q Q ) ) / ) E Q { { @.` ` ` ` { Q ) ) E { / [ Y Y E ) ) E U [ ! ^ X.X./ G N z k h d r d k B G ",
"Q / | | / / / { P { { / / { { X.` ) Q Q ` ) / ) ) ) T E ` ` ` ` { ) { ) ) ) ) K ' { ) @.[ ) ) K ^ { E E / ) / U / ' / | / / / | ",
"Q Q Q Q ) ) Y Y { { ) ) { @.Y H / Q / ) / ) ) / ) ) [ @.` ` ` ` Q ) ) { { ) [ [ ) ) E E ) { [ / [ ' [ ) ' ) ' ) / Q Q ) Q T Q T ",
"{ ) | { ' { ) { ) ) { ) ) E ) @.) ' / ) / ) ) [ { ) E ) Q ` ` Q ) { { ) ) / / ) ) { { ) ) ) ) / T ) ) ' Q T Q ) ' ) ) ' ' ) Q T ",
"Q ) ) / ) / ) / ` ` ` ` ` ` ` ` ` ` ` ` ` ` ` ` ` ` ` ` ` ` ` ` ` ` ` ` ` ` ` ` ` ` ` ` ` ` ` ` ) ) / ) ` ` ` ` ` ` ` ` ` ` ` ` ",
") { ) { / ) / ) ` ` ` ` ` ` ` ` ` ` ` ` ` ` ` ` ` ` ` ` ` ` ` ` ` ` ` ` ` ` ` ` ` ` ` ` ` ` ` ` { ) ) / ` ` ` ` ` ` ` ` ` ` ` ` ",
") { ) ) / ) ) / ` ` ` ` ` ` ` ` ` ` ` ` ` ` ` ` ` ` ` ` ` ` ` ` ` ` ` ` ` ` ` ` ` ` ` ` ` ` ` ` ) / / ) ` ` ` ` ` ` ` ` ` ` ` ` ",
"{ ) ) { ) ' / ) ` ` ` ` ` ` ` ` ` ` ` ` ` ` ` ` ` ` ` ` ` ` ` ` ` ` ` ` ` ` ` ` ` ` ` ` ` ` ` ` / ) ' / ` ` ` ` ` ` ` ` ` ` ` ` ",
"` ` ` ` / / ) / ` ` ` ` ` ` ` ` ` ` ` ` ` ` ` ` ` ` ` ` ` ` ` ` ` ` ` ` ` ` ` ` ` ` ` ` ` ` ` ` ' ) Q Q ` ` ` ` ` ` ` ` ` ` ` ` ",
"` ` ` ` ' ) ) ' ` ` ` ` ` ` ` ` ` ` ` ` ` ` ` ` ` ` ` ` ` ` ` ` ` ` ` ` ` ` ` ` ` ` ` ` ` ` ` ` ) / ' / ` ` ` ` ` ` ` ` ` ` ` ` ",
"` ` ` ` ' / / ) ` ` ` ` ` ` ` ` ` ` ` ` ` ` ` ` ` ` ` ` ` ` ` ` ` ` ` ` ` ` ` ` ` ` ` ` ` ` ` ` / / ) Q ` ` ` ` ` ` ` ` ` ` ` ` ",
"` ` ` Q Q Q ' / ` ` ` ` ` ` ` ` ` ` ` ` ` ` ` ` ` ` ` ` ` ` ` ` ` ` ` ` ` ` ` ` ` ` ` ` ` ` ` ` ' ) / ' ` ` ` ` ` ` ` ` ` ` ` ` ",
"` ` ` ` ` ` ` ` ` ` ` ` ` ` ` ` ` ` ` ` ` ` ` ` ` ` ` ` ` ` ` ` ` ` ` ` ` ` ` ` ` ` ` ` ` ` ` ` ` ` ` ` ` ` ` ` ` ` ` ` ` ` ` ` ",
"` ` ` ` ` ` ` ` ` ` ` ` ` ` ` ` ` ` ` ` ` ` ` ` ` ` ` ` ` ` ` ` ` ` ` ` ` ` ` ` ` ` ` ` ` ` ` ` ` ` ` ` ` ` ` ` ` ` ` ` ` ` ` ` ",
"` ` ` ` ` ` ` ` ` ` ` ` ` ` ` ` ` ` ` ` ` ` ` ` ` ` ` ` ` ` ` ` ` ` ` ` ` ` ` ` ` ` ` ` ` ` ` ` ` ` ` ` ` ` ` ` ` ` ` ` ` ` ` ` ",
"` ` ` ` ` ` ` ` ` ` ` ` ` ` ` ` ` ` ` ` ` ` ` ` ` ` ` ` ` ` ` ` ` ` ` ` ` ` ` ` ` ` ` ` ` ` ` ` ` ` ` ` ` ` ` ` ` ` ` ` ` ` ` ` ",
"` ` ` ` ` ` ` ` ` ` ` ` ` ` ` ` ` ` ` ` ` ` ` ` ` ` ` ` ` ` ` ` ` ` ` ` ` ` ` ` ` ` ` ` ` ` ` ` ` ` ` ` ` ` ` ` ` ` ` ` ` ` ` ` ",
"` ` ` ` ` ` ` ` ` ` ` ` ` ` ` ` ` ` ` ` ` ` ` ` ` ` ` ` ` ` ` ` ` ` ` ` ` ` ` ` ` ` ` ` ` ` ` ` ` ` ` ` ` ` ` ` ` ` ` ` ` ` ` ` ",
"` ` ` ` ` ` ` ` ` ` ` ` ` ` ` ` ` ` ` ` ` ` ` ` ` ` ` ` ` ` ` ` ` ` ` ` ` ` ` ` ` ` ` ` ` ` ` ` ` ` ` ` ` ` ` ` ` ` ` ` ` ` ` ` ",
"` ` ` ` ` ` ` ` ` ` ` ` ` ` ` ` ` ` ` ` ` ` ` ` ` ` ` ` ` ` ` ` ` ` ` ` ` ` ` ` ` ` ` ` ` ` ` ` ` ` ` ` ` ` ` ` ` ` ` ` ` ` ` ` ",
"` ` ` ` ` ` ` ` ` ` ` ` ` ` ` ` ` ` ` ` ` ` ` ` ` ` ` ` ` ` ` ` ` ` ` ` ` ` ` ` ` ` ` ` ` ` ` ` ` ` ` ` ` ` ` ` ` ` ` ` ` ` ` ` ",
"` ` ` ` ` ` ` ` ` ` ` ` ` ` ` ` ` ` ` ` ` ` ` ` ` ` ` ` ` ` ` ` ` ` ` ` ` ` ` ` ` ` ` ` ` ` ` ` ` ` ` ` ` ` ` ` ` ` ` ` ` ` ` ` ",
"` ` ` ` ` ` ` ` ` ` ` ` ` ` ` ` ` ` ` ` ` ` ` ` ` ` ` ` ` ` ` ` ` ` ` ` ` ` ` ` ` ` ` ` ` ` ` ` ` ` ` ` ` ` ` ` ` ` ` ` ` ` ` ` ",
"` ` ` ` ` ` ` ` ` ` ` ` ` ` ` ` ` ` ` ` ` ` ` ` ` ` ` ` ` ` ` ` ` ` ` ` ` ` ` ` ` ` ` ` ` ` ` ` ` ` ` ` ` ` ` ` ` ` ` ` ` ` ` ` ",
"` ` ` ` ` ` ` ` ` ` ` ` ` ` ` ` ` ` ` ` ` ` ` ` ` ` ` ` ` ` ` ` ` ` ` ` ` ` ` ` ` ` ` ` ` ` ` ` ` ` ` ` ` ` ` ` ` ` ` ` ` ` ` ` ",
"` ` ` ` ` ` ` ` ` ` ` ` ` ` ` ` ` ` ` ` ` ` ` ` ` ` ` ` ` ` ` ` ` ` ` ` ` ` ` ` ` ` ` ` ` ` ` ` ` ` ` ` ` ` ` ` ` ` ` ` ` ` ` ` ",
"` ` ` ` ` ` ` ` ` ` ` ` ` ` ` ` ` ` ` ` ` ` ` ` ` ` ` ` ` ` ` ` ` ` ` ` ` ` ` ` ` ` ` ` ` ` ` ` ` ` ` ` ` ` ` ` ` ` ` ` ` ` ` ` ",
"` ` ` ` ` ` ` ` ` ` ` ` ` ` ` ` ` ` ` ` ` ` ` ` ` ` ` ` ` ` ` ` ` ` ` ` ` ` ` ` ` ` ` ` ` ` ` ` ` ` ` ` ` ` ` ` ` ` ` ` ` ` ` ` ",
"` ` ` ` ` ` ` ` ` ` ` ` ` ` ` ` ` ` ` ` ` ` ` ` ` ` ` ` ` ` ` ` ` ` ` ` ` ` ` ` ` ` ` ` ` ` ` ` ` ` ` ` ` ` ` ` ` ` ` ` ` ` ` ` ",
"` ` ` ` ` ` ` ` ` ` ` ` ` ` ` ` ` ` ` ` ` ` ` ` ` ` ` ` ` ` ` ` ` ` ` ` ` ` ` ` ` ` ` ` ` ` ` ` ` ` ` ` ` ` ` ` ` ` ` ` ` ` ` ` ",
"` ` ` ` ` ` ` ` ` ` ` ` ` ` ` ` ` ` ` ` ` ` ` ` ` ` ` ` ` ` ` ` ` ` ` ` ` ` ` ` ` ` ` ` ` ` ` ` ` ` ` ` ` ` ` ` ` ` ` ` ` ` ` ` ",
"` ` ` ` ` ` ` ` ` ` ` ` ` ` ` ` ` ` ` ` ` ` ` ` ` ` ` ` ` ` ` ` ` ` ` ` ` ` ` ` ` ` ` ` ` ` ` ` ` ` ` ` ` ` ` ` ` ` ` ` ` ` ` ` ",
"` ` ` ` ` ` ` ` ` ` ` ` ` ` ` ` ` ` ` ` ` ` ` ` ` ` ` ` ` ` ` ` ` ` ` ` ` ` ` ` ` ` ` ` ` ` ` ` ` ` ` ` ` ` ` ` ` ` ` ` ` ` ` ` ",
"` ` ` ` ` ` ` ` ` ` ` ` ` ` ` ` ` ` ` ` ` ` ` ` ` ` ` ` ` ` ` ` ` ` ` ` ` ` ` ` ` ` ` ` ` ` ` ` ` ` ` ` ` ` ` ` ` ` ` ` ` ` ` ` ",
"` ` ` ` ` ` ` ` ` ` ` ` ` ` ` ` ` ` ` ` ` ` ` ` ` ` ` ` ` ` ` ` ` ` ` ` ` ` ` ` ` ` ` ` ` ` ` ` ` ` ` ` ` ` ` ` ` ` ` ` ` ` ` ` ",
"` ` ` ` ` ` ` ` ` ` ` ` ` ` ` ` ` ` ` ` ` ` ` ` ` ` ` ` ` ` ` ` ` ` ` ` ` ` ` ` ` ` ` ` ` ` ` ` ` ` ` ` ` ` ` ` ` ` ` ` ` ` ` ` ",
"` ` ` ` ` ` ` ` ` ` ` ` ` ` ` ` ` ` ` ` ` ` ` ` ` ` ` ` ` ` ` ` ` ` ` ` ` ` ` ` ` ` ` ` ` ` ` ` ` ` ` ` ` ` ` ` ` ` ` ` ` ` ` ` ",
"` ` ` ` ` ` ` ` ` ` ` ` ` ` ` ` ` ` ` ` ` ` ` ` ` ` ` ` ` ` ` ` ` ` ` ` ` ` ` ` ` ` ` ` ` ` ` ` ` ` ` ` ` ` ` ` ` ` ` ` ` ` ` ` ",
"` ` ` ` ` ` ` ` ` ` ` ` ` ` ` ` ` ` ` ` ` ` ` ` ` ` ` ` ` ` ` ` ` ` ` ` ` ` ` ` ` ` ` ` ` ` ` ` ` ` ` ` ` ` ` ` ` ` ` ` ` ` ` ` ",
"` ` ` ` ` ` ` ` ` ` ` ` ` ` ` ` ` ` ` ` ` ` ` ` ` ` ` ` ` ` ` ` ` ` ` ` ` ` ` ` ` ` ` ` ` ` ` ` ` ` ` ` ` ` ` ` ` ` ` ` ` ` ` ` ",
"` ` ` ` ` ` ` ` ` ` ` ` ` ` ` ` ` ` ` ` ` ` ` ` ` ` ` ` ` ` ` ` ` ` ` ` ` ` ` ` ` ` ` ` ` ` ` ` ` ` ` ` ` ` ` ` ` ` ` ` ` ` ` ` ",
"` ` ` ` ` ` ` ` ` ` ` ` ` ` ` ` ` ` ` ` ` ` ` ` ` ` ` ` ` ` ` ` ` ` ` ` ` ` ` ` ` ` ` ` ` ` ` ` ` ` ` ` ` ` ` ` ` ` ` ` ` ` ` ` ",
"` ` ` ` ` ` ` ` ` ` ` ` ` ` ` ` ` ` ` ` ` ` ` ` ` ` ` ` ` ` ` ` ` ` ` ` ` ` ` ` ` ` ` ` ` ` ` ` ` ` ` ` ` ` ` ` ` ` ` ` ` ` ` ` ",
"` ` ` ` ` ` ` ` ` ` ` ` ` ` ` ` ` ` ` ` ` ` ` ` ` ` ` ` ` ` ` ` ` ` ` ` ` ` ` ` ` ` ` ` ` ` ` ` ` ` ` ` ` ` ` ` ` ` ` ` ` ` ` ` ",
"` ` ` ` ` ` ` ` ` ` ` ` ` ` ` ` ` ` ` ` ` ` ` ` ` ` ` ` ` ` ` ` ` ` ` ` ` ` ` ` ` ` ` ` ` ` ` ` ` ` ` ` ` ` ` ` ` ` ` ` ` ` ` ` ",
"` ` ` ` ` ` ` ` ` ` ` ` ` ` ` ` ` ` ` ` ` ` ` ` ` ` ` ` ` ` ` ` ` ` ` ` ` ` ` ` ` ` ` ` ` ` ` ` ` ` ` ` ` ` ` ` ` ` ` ` ` ` ` ` ",
"` ` ` ` ` ` ` ` ` ` ` ` ` ` ` ` ` ` ` ` ` ` ` ` ` ` ` ` ` ` ` ` ` ` ` ` ` ` ` ` ` ` ` ` ` ` ` ` ` ` ` ` ` ` ` ` ` ` ` ` ` ` ` ` ",
"` ` ` ` ` ` ` ` ` ` ` ` ` ` ` ` ` ` ` ` ` ` ` ` ` ` ` ` ` ` ` ` ` ` ` ` ` ` ` ` ` ` ` ` ` ` ` ` ` ` ` ` ` ` ` ` ` ` ` ` ` ` ` ` ",
"` ` ` ` ` ` ` ` ` ` ` ` ` ` ` ` ` ` ` ` ` ` ` ` ` ` ` ` ` ` ` ` ` ` ` ` ` ` ` ` ` ` ` ` ` ` ` ` ` ` ` ` ` ` ` ` ` ` ` ` ` ` ` ` ",
"` ` ` ` ` ` ` ` ` ` ` ` ` ` ` ` ` ` ` ` ` ` ` ` ` ` ` ` ` ` ` ` ` ` ` ` ` ` ` ` ` ` ` ` ` ` ` ` ` ` ` ` ` ` ` ` ` ` ` ` ` ` ` ` ",
"` ` ` ` ` ` ` ` ` ` ` ` ` ` ` ` ` ` ` ` ` ` ` ` ` ` ` ` ` ` ` ` ` ` ` ` ` ` ` ` ` ` ` ` ` ` ` ` ` ` ` ` ` ` ` ` ` ` ` ` ` ` ` ` ",
"` ` ` ` ` ` ` ` ` ` ` ` ` ` ` ` ` ` ` ` ` ` ` ` ` ` ` ` ` ` ` ` ` ` ` ` ` ` ` ` ` ` ` ` ` ` ` ` ` ` ` ` ` ` ` ` ` ` ` ` ` ` ` ` "
};
