/* XPM */
static char *_643294017611[] = {
/* columns rows colors chars-per-pixel */
"64 64 132 2 ",
"   c #AD9F72",
".  c #AEA073",
"X  c #AFA174",
"o  c #B2A173",
"O  c #B1A074",
"+  c #B2A175",
"@  c #B0A275",
"#  c #B3A274",
"$  c #B0A176",
"%  c #B1A376",
"&  c #B1A277",
"*  c #B3A276",
"=  c #B4A375",
"-  c #B4A377",
";  c #B3A576",
":  c #B2A477",
">  c #B5A476",
",  c #B6A577",
"<  c #B3A578",
"1  c #B3A479",
"2  c #B3A47B",
"3  c #B5A478",
"4  c #B6A579",
"5  c #B5A778",
"6  c #B4A679",
"7  c #B7A678",
"8  c #B4A57A",
"9  c #B5A77A",
"0  c #B7A67A",
"q  c #B8A779",
"w  c #B8A77B",
"e  c #B6A87B",
"r  c #B7A97C",
"t  c #B7A87D",
"y  c #B9A87A",
"u  c #BAA97B",
"i  c #B9A87C",
"p  c #BAA97D",
"a  c #B8AA7D",
"s  c #BBAA7E",
"d  c #BCAB7D",
"f  c #BDAC7E",
"g  c #BDAC80",
"h  c #BFAE82",
"j  c #C0AF81",
"k  c #C1B082",
"l  c #C2B183",
"z  c #C1B386",
"x  c #C4B387",
"c  c #C6B587",
"v  c #C7B786",
"b  c #C7B688",
"n  c #C7B68A",
"m  c #CBBA8C",
"M  c #CDBD8C",
"N  c #CEBE8D",
"B  c #CEBD8F",
"V  c #CCBE91",
"C  c #CFC192",
"Z  c #D2C291",
"A  c #D2C193",
"S  c #D6C695",
"D  c #D6C597",
"F  c #D5C498",
"G  c #D8C79B",
"H  c #D7C99C",
"J  c #D9C998",
"K  c #DAC99B",
"L  c #DBCB9A",
"P  c #DCCC9B",
"I  c #DBCA9C",
"U  c #DCCB9D",
"Y  c #DCCB9F",
"T  c #DDCD9C",
"R  c #DECE9D",
"E  c #DDCC9E",
"W  c #DECD9F",
"Q  c #DFCF9E",
"!  c #E0D09F",
"~  c #DECDA1",
"^  c #DFCEA0",
"/  c #DFD1A2",
"(  c #E0CFA1",
")  c #E0CFA3",
"_  c #E1D1A0",
"`  c #E2D2A1",
"'  c #E2D1A3",
"]  c #E4D3A5",
"[  c #E7D7A6",
"{  c #E8D8A7",
"}  c #E9D9A8",
"|  c #EADAA9",
" . c #E9D8AA",
".. c #EAD9AB",
"X. c #EBDBAA",
"o. c #ECDCA9",
"O. c #EDDDAA",
"+. c #ECDCAB",
"@. c #EEDEAB",
"#. c #E9DBAC",
"$. c #ECDBAD",
"%. c #EADCAF",
"&. c #EDDDAC",
"*. c #EFDFAC",
"=. c #EEDEAD",
"-. c #EDDCAE",
";. c #EEDDAF",
":. c #ECDEAF",
">. c #EFDFAE",
",. c #EDDFB0",
"<. c #EFDEB0",
"1. c #F0DFB1",
"2. c #F0E0AD",
"3. c #F1E1AE",
"4. c #F0E0AF",
"5. c #F2E2AF",
"6. c #EEE0B1",
"7. c #EFE1B2",
"8. c #EEE0B3",
"9. c #F1E1B0",
"0. c #F3E3B0",
"q. c #F2E2B1",
"w. c #F1E0B2",
"e. c #F2E1B3",
"r. c #F0E2B3",
"t. c #F3E3B2",
"y. c #F4E4B1",
"u. c #F1E3B4",
"i. c #F3E2B4",
"p. c #F4E3B5",
"a. c #F2E4B5",
"s. c #F5E4B6",
/* pixels */
"1 1 1 1 1 1 1 1 1 1 2 2 2 2 2 2 1 1 1 1 1 1 1 1 1 1 1 1 1 1 1 1 1 1 1 1 1 1 1 1 1 1 1 1 1 1 1 1 1 1 1 1 1 1 1 1 1 1 1 1 1 1 1 1 ",
"1 1 1 1 1 1 1 1 1 1 2 1 2 2 2 2 1 1 1 1 1 1 1 1 1 1 1 1 1 1 1 1 1 1 1 1 1 1 1 1 1 1 1 1 1 1 1 1 1 1 1 1 1 1 1 1 1 1 1 1 1 1 1 1 ",
"1 1 1 1 1 1 1 1 1 1 1 1 1 1 1 1 2 2 2 2 2 2 2 2 2 2 2 2 2 2 2 2 2 2 2 2 2 2 2 2 2 2 2 2 2 2 2 2 1 1 1 1 1 1 1 1 1 1 1 1 1 1 1 1 ",
"1 1 1 1 1 1 1 1 1 1 1 1 1 1 1 1 2 2 2 2 2 2 2 2 2 2 2 2 2 2 2 2 2 2 2 2 2 2 2 2 2 2 2 2 2 2 2 2 1 1 1 1 1 1 1 1 1 1 1 1 1 1 1 1 ",
"1 1 1 1 1 1 1 1 1 1 1 1 1 1 1 1 2 2 2 2 2 2 2 2 2 2 2 2 2 2 2 2 2 2 2 2 2 2 2 2 2 2 2 2 2 2 2 2 1 1 1 1 1 1 1 1 1 1 1 1 1 1 1 1 ",
"1 1 1 1 1 1 1 1 1 1 1 1 1 1 1 1 2 1 2 2 2 2 2 2 2 2 2 1 2 2 2 1 2 2 2 1 2 2 2 2 2 1 2 2 2 2 2 2 1 1 1 1 1 1 1 1 1 1 1 1 1 1 1 1 ",
"1 1 1 1 1 1 1 1 1 1 1 1 1 1 1 1 1 1 1 8 8 & & 8 1 1 1 1 1 1 1 1 1 1 1 1 1 1 1 1 1 1 1 1 8 1 3 & 1 1 1 1 1 1 1 1 1 1 1 1 1 1 1 1 ",
"1 1 1 1 1 1 1 1 1 1 1 1 1 1 1 1 8 : 1 : 8 8 3 - 1 1 1 1 1 1 1 1 1 6 1 : 1 6 1 1 1 1 1 1 1 1 & 3 1 1 1 1 1 1 1 1 1 1 1 1 1 1 1 1 ",
"1 1 1 1 1 1 1 1 $ t X e : e : e $ , 8 o + q f u f j b B F K U U ~ E ' E G V x f i 8 - # - , q q 3 3 - + - - 3 q 8 , 3 3 3 3 3 3 ",
"1 1 1 1 1 1 1 1 8 & e : . : 5 : b Z Q } -.t.1.>.<.1.<.t.1.>.1.>.t.7.1.7.t.<.1.>.$.[ ' P Z b f - - 3 q q 3 3 $ $ 8 - 3 , 3 3 3 3 ",
"1 2 1 1 1 1 1 1 t . e t e t C 7.*.5.>.@.+.@.>.@.1.>.*.@.1.5.t.5.t.5.*.*.*.*.*.@.t.5.t.5.t.5.>.+.} ) G m j f i q , , , q , , , , ",
"2 2 1 1 1 1 1 1 : t . . C 7.r.:.} 5.5.:.>.>.5.@.y.5.5.5.@.@.@.@.{ @.*.5.5.5.t.t.>.@.@.@.@.>.5.5.-.-.1.1.p.1.} ] E ( E E E E ~ E ",
"2 2 1 1 1 1 1 1 6 6 X H #.7.#.7.t.*.*.*.#.*.<.t.@.*.*.<.>.>.t.t.y.t.<.7.*.*.*.<.5.5.t.>.t.>.>.1.t.>.>.*.<.*.*.*.*.t.:.t.t.5.>.t.",
"2 2 1 1 1 1 1 1 t 1 h #.7.7.a.a.<.t.t.<.t.t.<.t.5.*.<.t.t.1.>.>.5.t.t.1.<.*.t.t.>.>.>.1.>.t.>.t.>.>.*.>.t.t.w.a.<.*.5.<.>.>.*.*.",
"2 2 1 1 1 1 1 1 X 6 / 7.7.7.7.#.<.1.<.1.*.<.<.<.1.1.<.t.1.t.1.1.*.1.1.w.1.<.<.<.1.1.1.1.1.1.1.1.t.t.1.t.t.*.t.>.t.*.t.*.7.t.1.t.",
"2 2 1 1 1 1 1 6 6 6 7.#.a.#.:.a.<.<.1.w.w.1.1.1.w.<.<.<.1.1.1.1.<.w.w.w.1.1.t.w.1.>.1.1.1.1.1.1.*.>.>.>.<.*.*.7.*.<.<.*.*.*.<.*.",
"1 1 2 2 2 2 1 1 - b 5.>.>.>.1.1.>.>.t.>.>.>.>.>.t.>.>.>.>.>.t.>.5.7.t.<.*.5.*.t.*.5.5.7.7.*.*.5.*.1.>.5.>.t.*.*.<.t.<.5.*.*.<.7.",
"1 1 2 2 2 2 1 6 , N 5.>.>.t.1.1.>.t.>.>.>.t.>.t.>.>.>.t.>.t.>.>.*.<.*.*.<.7.<.<.7.<.*.<.>.5.<.7.1.>.1.>.7.*.<.5.<.*.*.t.<.t.*.5.",
"1 1 2 2 2 2 1 1 - J >.@.t.>.1.1.>.>.>.>.t.>.>.>.t.>.t.>.>.>.>.>.<.5.<.5.5.*.5.*.>.t.t.*.t.*.*.<.t.<.5.*.<.5.<.*.7.<.5.>.*.t.<.5.",
"1 1 2 2 2 1 1 6 - Q >.@.t.>.1.1.>.t.>.t.>.>.>.t.>.>.>.>.>.t.>.t.7.*.*.t.>.7.<.*.<.*.<.*.5.<.t.<.*.*.5.1.*.5.7.t.5.*.*.7.<.>.7.*.",
"1 1 2 2 2 2 1 1 - Q >.>.5.:.w.<.t.>.t.>.>.>.>.>.t.>.>.>.t.>.t.>.>.<.5.*.<.5.*.t.5.t.*.<.>.t.*.*.<.7.<.t.*.<.*.<.<.*.<.*.5.t.*.<.",
"1 1 2 2 2 2 1 6 - P >.5.+.<.p.<.>.>.>.>.>.t.>.t.>.>.>.t.>.>.>.>.t.*.t.<.*.5.7.>.*.<.5.7.7.*.<.5.*.5.*.5.5.7.5.<.5.5.7.t.*.<.5.7.",
"1 1 2 2 2 2 1 : 8 T *.t.@.t.<.<.>.>.t.>.t.>.>.>.t.>.t.>.>.>.t.>.5.<.*.<.<.7.*.5.t.>.*.<.<.5.<.*.<.7.>.<.*.*.7.*.*.7.*.<.t.>.*.<.",
"1 1 2 2 2 1 1 6 8 E *.5.+.t.$.w.>.t.>.>.>.>.>.t.>.>.>.>.>.t.>.>.*.*.5.7.*.t.<.<.*.7.*.5.*.5.7.t.5.*.t.*.<.5.>.t.t.>.5.<.*.7.*.5.",
"1 1 2 2 2 2 1 < 1 P r.*.5.<.<.t.>.>.>.>.t.>.>.>.>.>.>.>.t.>.>.>.7.>.<.5.*.t.*.<.*.<.5.t.*.<.*.<.<.*.*.t.t.<.<.*.*.<.7.>.t.5.*.<.",
"1 1 2 2 2 2 1 6 1 _ 5.*.t.<.<.<.>.t.>.t.>.>.>.t.>.t.>.t.>.>.>.t.*.t.*.5.7.>.*.5.t.>.*.<.5.7.5.<.t.5.<.>.*.*.5.t.*.5.*.5.*.<.*.t.",
"1 1 2 2 2 2 1 1 , } r.*.t.*.1.1.t.>.>.>.t.>.t.>.t.>.>.>.t.>.t.>.<.<.t.7.*.5.<.t.*.7.5.7.*.*.7.*.*.<.*.7.<.7.7.>.<.<.7.<.*.5.<.7.",
"1 1 2 2 2 1 1 6 8 5.5.o.t.1.1.1.>.>.>.t.>.>.>.>.>.>.>.t.>.>.>.>.5.*.*.<.<.7.<.*.5.<.*.<.<.5.>.t.5.7.5.<.*.5.*.5.t.*.5.*.7.<.*.5.",
"1 1 2 2 2 2 1 6 $ y.>.@.5.>.1.1.>.>.t.>.>.>.t.>.>.>.t.>.>.>.t.>.<.*.*.t.5.>.t.*.<.5.*.*.5.<.>.7.*.*.7.>.*.<.7.<.<.*.*.5.>.<.5.*.",
"1 1 2 2 2 2 6 X - t.5.>.1.>.1.1.>.t.>.>.>.t.>.>.>.t.>.>.>.t.>.>.t.5.<.>.*.7.5.<.*.t.<.t.*.*.t.*.<.5.*.t.t.<.5.*.7.t.<.<.t.*.t.<.",
"1 1 2 2 2 2 1 6 , >.5.>.*.>.*.1.>.>.>.>.>.>.>.>.>.>.>.>.>.>.>.>.*.<.*.7.5.7.*.<.7.>.*.5.<.t.<.5.<.*.<.5.5.*.>.7.5.*.t.*.5.<.*.<.",
"1 1 2 2 2 2 1 1 8 >.t.5.*.1.<.<.>.t.>.t.>.t.>.t.>.t.>.t.>.t.>.t.5.7.5.<.*.<.*.t.*.5.<.7.<.*.*.5.7.t.<.*.<.*.t.*.5.<.>.7.*.*.5.7.",
"1 1 2 2 2 1 8 : 8 $.*.t.*.<.<.w.>.7.<.*.t.>.5.<.5.<.>.7.*.5.t.>.*.<.<.7.5.5.*.7.*.<.7.<.5.*.5.*.<.7.>.t.<.5.*.*.<.7.<.t.*.5.*.<.",
"1 1 2 2 2 1 1 8 8 *.t.5.*.t.<.w.t.*.5.5.*.7.*.*.*.*.t.*.<.<.*.7.*.5.*.t.*.<.t.>.t.<.5.*.>.7.7.<.5.*.<.*.*.t.<.t.*.5.*.5.<.7.*.5.",
"1 1 2 2 2 2 1 : - t.<.5.<.7.1.1.*.<.<.7.<.5.7.5.<.t.<.5.t.*.5.*.7.*.<.<.*.t.*.<.5.*.>.7.t.5.*.*.7.<.5.*.7.>.*.5.<.7.>.<.*.5.7.>.",
"1 1 2 2 2 2 1 1 - t.*.@.t.*.1.1.*.5.*.t.<.*.<.*.<.*.*.5.7.<.<.*.>.t.5.*.<.<.*.5.<.*.t.*.*.<.<.t.5.*.t.<.*.5.<.7.5.*.t.*.<.<.*.t.",
"1 1 2 2 2 2 1 1 - >.5.+.t.*.1.<.<.<.7.5.*.<.5.t.7.<.5.*.<.t.*.5.*.t.*.5.7.<.5.*.<.7.5.5.7.<.<.*.*.<.<.7.5.*.*.<.7.*.*.5.t.7.5.*.",
"1 1 2 2 2 2 1 1 - { >.@.t.*.1.1.t.*.<.*.t.>.*.<.5.*.>.7.*.5.<.7.<.>.7.<.5.*.>.7.*.t.*.<.5.*.t.5.*.5.*.t.5.<.t.<.>.5.<.7.*.<.5.<.",
"1 1 2 2 2 2 1 8 8 ! t.@.1.>.1.1.<.*.5.*.*.7.5.7.t.<.t.*.*.<.*.5.5.*.5.*.t.<.t.*.*.<.t.>.*.<.*.<.7.*.<.<.*.t.*.*.t.*.*.<.5.<.*.7.",
"1 1 2 2 1 1 1 , - T t.@.t.t.<.1.5.t.>.7.5.<.*.<.*.*.5.<.t.>.7.<.t.<.7.<.*.*.5.<.5.<.*.7.*.5.t.>.>.t.5.*.7.>.<.5.5.<.t.<.*.*.t.>.",
"1 1 2 2 2 2 1 1 , Q 5.5.*.t.$.<.*.<.*.<.5.t.*.<.*.<.7.<.5.*.5.*.*.5.*.<.*.7.>.<.5.t.*.<.5.*.<.7.<.*.*.5.7.<.<.*.*.<.*.<.5.t.*.<.",
"1 1 2 2 2 2 1 1 - ! >.5.*.t.<.1.*.t.t.>.*.<.5.7.t.<.5.*.>.7.7.<.<.7.*.5.5.<.t.*.*.<.5.7.7.<.5.*.7.t.<.<.5.*.t.5.*.t.t.>.*.<.5.7.",
"1 1 2 2 2 2 1 6 - ' 5.@.*.t.-.t.<.*.<.7.t.>.*.<.5.*.>.7.t.5.*.*.*.5.7.>.5.*.t.<.t.>.*.<.t.*.<.*.5.*.t.*.*.<.*.<.<.*.<.7.t.>.*.<.",
"1 1 2 2 2 1 1 : $ ' *.@.1.t.<.1.7.5.5.*.*.7.*.5.<.*.t.*.*.<.<.t.<.<.*.t.7.<.*.*.*.7.*.5.<.*.5.t.5.<.>.7.*.5.t.>.7.5.5.*.*.7.*.5.",
"1 1 2 2 2 2 1 6 - E 5.@.t.*.1.1.*.5.*.t.<.<.t.*.<.7.5.5.7.<.<.*.t.*.5.*.<.t.<.5.<.5.>.t.*.<.7.>.*.t.*.<.5.*.<.7.*.5.*.t.<.<.t.*.",
"1 1 2 2 2 2 1 1 - S >.@.1.<.1.<.<.7.<.<.5.*.7.<.*.t.*.<.5.*.t.5.7.<.<.*.<.*.*.t.<.*.7.*.*.5.*.5.7.>.*.5.7.<.5.*.<.7.<.<.5.*.7.<.",
"1 1 2 2 2 1 1 6 8 M *.*.t.*.<.t.5.*.5.*.>.7.5.*.*.<.t.>.*.<.*.<.5.5.*.t.7.<.5.>.t.7.5.5.<.<.7.<.*.5.<.t.t.*.<.*.5.*.5.*.>.7.5.*.",
"1 1 2 2 2 1 1 1 - c 7.t.<.t.1.w.>.7.<.*.t.*.5.<.5.<.*.7.*.5.t.>.*.<.7.>.5.*.*.7.*.<.*.<.t.*.5.*.<.7.<.*.<.*.5.t.>.7.<.*.t.*.5.<.",
"1 1 1 1 1 1 1 1 8 l 1.t.*.5.*.<.7.>.t.5.*.<.*.<.5.t.*.<.5.*.<.7.*.5.5.7.7.*.*.5.*.t.*.5.<.*.7.*.5.>.t.*.5.*.<.<.7.5.t.*.<.*.<.5.",
"1 1 1 1 1 1 1 1 8 h 1.w.<.1.*.t.*.5.*.<.*.t.t.>.*.<.5.7.7.<.5.*.7.<.*.<.>.5.<.7.<.>.7.<.5.t.>.5.*.7.5.<.<.*.t.*.<.*.<.*.7.5.7.*.",
"1 1 1 1 1 1 1 1 , h 1.w.*.*.7.t.*.<.*.t.<.*.<.7.t.>.*.<.t.*.<.*.>.t.t.*.t.*.*.<.5.*.5.*.*.<.*.<.5.7.*.<.>.t.<.*.5.>.t.5.<.*.>.t.",
"1 1 1 1 1 1 1 1 : i *.1.<.t.1.*.5.7.<.<.7.5.5.*.*.7.*.5.<.*.5.t.<.*.<.*.5.<.t.<.t.<.7.<.*.t.5.7.*.<.*.t.7.*.5.5.*.7.*.<.t.5.<.*.",
"1 1 1 1 1 1 1 1 8 i <.w.*.t.7.t.>.t.*.*.t.>.5.<.<.5.>.t.*.<.7.>.5.t.*.<.>.t.*.*.*.5.*.<.5.*.<.<.<.5.7.5.*.<.<.7.>.7.<.*.*.5.*.<.",
"1 1 1 1 1 1 1 1 q 2 <.w.*.w.*.*.7.*.<.5.*.7.*.*.<.*.7.*.*.5.*.5.*.<.5.7.7.*.<.5.<.7.*.5.<.*.t.*.7.*.<.*.*.5.*.t.t.*.5.5.<.7.*.5.",
"1 1 1 1 1 1 1 1 3 3 <.1.*.7.<.t.<.5.<.*.<.5.7.5.t.7.5.5.<.<.7.<.t.>.*.<.<.5.<.*.*.5.7.>.>.t.<.*.>.<.5.t.7.*.<.<.*.<.<.7.*.5.7.>.",
"1 1 1 1 1 1 1 1 i 3 <.1.*.t.*.*.*.5.7.t.<.*.<.*.*.<.*.<.t.*.5.*.*.7.*.5.*.5.7.t.<.<.*.t.7.*.5.5.t.*.*.<.>.t.5.*.*.5.*.t.<.<.*.t.",
"1 1 1 1 1 1 1 1 3 3 p.<.1.*.-.5.<.5.*.*.<.7.<.t.t.<.<.*.*.t.5.<.<.5.>.t.*.*.<.t.<.t.*.5.*.<.<.7.7.<.<.*.5.7.t.<.<.t.<.5.*.*.<.7.",
"1 1 1 1 1 1 1 1 3 - -.1.1.5.*.>.*.t.<.t.*.5.*.5.*.*.5.t.<.<.*.*.<.*.7.*.<.5.<.*.*.5.<.7.*.5.*.t.5.*.t.5.*.<.*.*.<.*.*.t.<.t.*.5.",
"1 1 1 1 1 1 1 1 3 3 ( 1.*.1.*.1.7.>.*.5.<.7.>.<.<.7.7.>.7.5.>.t.t.7.5.5.7.*.7.5.*.<.*.5.7.*.<.<.*.<.*.<.<.5.<.5.7.<.5.>.*.t.<.5.",
"1 1 1 1 1 1 1 1 3 3 U p.<.t.*.t.*.5.<.7.5.*.t.*.*.5.*.5.<.*.7.*.*.<.*.<.>.5.<.*.t.>.7.<.>.t.5.*.*.5.t.>.7.*.*.t.5.*.*.7.<.>.7.*.",
"1 1 1 1 1 1 1 1 3 i U s.*.t.*.t.5.*.<.<.*.5.t.>.<.7.>.t.<.7.5.5.7.<.<.*.t.5.*.<.t.*.<.*.*.t.5.<.7.*.<.5.*.<.5.>.<.*.<.*.5.t.*.<.",
"1 1 1 1 1 1 1 1 8 q E w.*.<.*.7.<.*.t.*.<.<.*.7.5.*.<.*.*.t.*.<.5.*.t.5.*.<.*.t.<.*.7.5.<.<.*.*.>.t.<.*.5.7.*.7.5.5.7.t.*.<.5.7.",
"1 1 1 1 1 1 3 & 8 q ~ t.*.7.*.<.>.t.<.*.t.*.5.*.7.<.5.*.*.<.t.>.*.<.*.<.*.5.<.7.<.5.7.*.7.5.>.t.<.*.t.*.*.<.5.<.*.7.*.<.t.>.*.<.",
"1 1 1 1 8 2 & 3 3 - ~ -.t.t.*.<.7.*.5.5.7.<.<.*.5.*.t.<.5.<.*.7.*.5.t.>.7.<.*.5.*.t.>.5.<.*.7.*.5.5.7.<.t.<.*.*.t.>.5.<.*.7.*.5."
};
