/* XPM */
static char *_643294045077[] = {
/* columns rows colors chars-per-pixel */
"64 64 127 2 ",
"   c #AD9F72",
".  c #AEA073",
"X  c #AFA174",
"o  c #B2A173",
"O  c #B1A074",
"+  c #B2A175",
"@  c #B0A275",
"#  c #B0A176",
"$  c #B1A376",
"%  c #B1A277",
"&  c #B3A276",
"*  c #B4A375",
"=  c #B4A377",
"-  c #B3A576",
";  c #B2A477",
":  c #B5A476",
">  c #B6A577",
",  c #B3A578",
"<  c #B3A479",
"1  c #B3A47B",
"2  c #B5A478",
"3  c #B6A579",
"4  c #B4A679",
"5  c #B4A57A",
"6  c #B5A77A",
"7  c #B7A67A",
"8  c #B3A47D",
"9  c #B8A77B",
"0  c #B6A87B",
"q  c #B7A97C",
"w  c #B7A87D",
"e  c #B9A87A",
"r  c #BAA97B",
"t  c #B9A87C",
"y  c #BAA97D",
"u  c #B8AA7D",
"i  c #BBAA7E",
"p  c #BCAB7D",
"a  c #BCAB7F",
"s  c #BDAC7E",
"d  c #BDAC80",
"f  c #BFAE82",
"g  c #C0AF83",
"h  c #C2B183",
"j  c #C1B084",
"k  c #C1B386",
"l  c #C4B387",
"z  c #C6B589",
"x  c #C7B688",
"c  c #CBBA8C",
"v  c #CDBC90",
"b  c #CEBD91",
"n  c #CCBE91",
"m  c #CFC192",
"M  c #D2C193",
"N  c #D5C496",
"B  c #D6C597",
"V  c #D6C599",
"C  c #D8C79B",
"Z  c #D7C99C",
"A  c #D9C89C",
"S  c #DAC99D",
"D  c #DBCA9C",
"F  c #DCCB9D",
"G  c #DCCB9F",
"H  c #DDCC9E",
"J  c #DECD9F",
"K  c #DFCF9E",
"L  c #DDCCA0",
"P  c #DECDA1",
"I  c #DFCEA0",
"U  c #DFCEA2",
"Y  c #DFD1A2",
"T  c #E0CFA1",
"R  c #E0CFA3",
"E  c #E2D1A3",
"W  c #E1D0A4",
"Q  c #E2D1A5",
"!  c #E4D3A5",
"~  c #E7D6A8",
"^  c #E8D7A9",
"/  c #EBDBA8",
"(  c #E9D8AA",
")  c #EAD9AB",
"_  c #ECDCAB",
"`  c #EEDEAB",
"'  c #E9D8AC",
"]  c #EAD9AD",
"[  c #E9DBAC",
"{  c #ECDBAD",
"}  c #EADCAF",
"|  c #EDDDAC",
" . c #EFDFAC",
".. c #EEDEAD",
"X. c #EDDCAE",
"o. c #EEDDAF",
"O. c #ECDEAF",
"+. c #EFDFAE",
"@. c #EDDCB0",
"#. c #EEDDB1",
"$. c #EDDFB0",
"%. c #EFDEB0",
"&. c #F0DFB1",
"*. c #F0DFB3",
"=. c #F0E0AD",
"-. c #F1E1AE",
";. c #F0E0AF",
":. c #F2E2AF",
">. c #EEE0B1",
",. c #EFE1B2",
"<. c #EEE0B3",
"1. c #F1E1B0",
"2. c #F3E3B0",
"3. c #F2E2B1",
"4. c #F1E0B2",
"5. c #F2E1B3",
"6. c #F0E2B3",
"7. c #F3E3B2",
"8. c #F4E4B1",
"9. c #F1E0B4",
"0. c #F2E1B5",
"q. c #F1E3B4",
"w. c #F3E2B4",
"e. c #F3E2B6",
"r. c #F4E3B5",
"t. c #F2E4B5",
"y. c #F5E4B6",
/* pixels */
"< < < < < < < < < < < < < < < < < < ; ; ; 0 ; ; ; ; ; 0 < 4 ; 4 < < < < < < < < < < < < < < < < 8 < 8 < 8 < < < < < < < < < < < ",
"< < < < < < < < < < < < < < < < < < 0 ; ; ; 0 ; 0 ; ; ; 4 < 4 ; < < < < < < < < < < < < < < < < < 8 < 8 < 8 < < < < < < < < < < ",
"< < < < < < < < < < < < < < < < < < < < < < < < < < < < < < < < < < 8 < 8 < 8 < 8 < 8 < 8 < 8 < < < < < < < < < < < < < < < < < ",
"< < < < < < < < < < < < < < < < < < < < < < < < < < < < < < < < < 8 < 8 < 8 < 8 < 8 < 8 < 8 < 8 < < < < < < < < < < < < < < < < ",
"< < < < < < < < < < < < < < < < 8 < 8 < 8 < 8 < < < 8 < 8 < 8 < < 8 < 8 8 < 8 < 8 < 8 < < 8 < 8 < < < < < < < < < < < < < < < < ",
"< < < < < < < < < < < < < < < < < 8 < 8 < 8 < 8 < 8 < 8 < 8 < 8 8 < 8 < < 8 < 8 < < < 8 8 < 8 < < < < < < < < < < < < < < < < < ",
"< < < < < < < < < < < < < < < < 8 < < 8 8 < < < 8 < 8 < 8 < 8 < < < < < < < < < < < < < < < < < < < < < < < < < < < < < < < < < ",
"< < < < < < < < < < < < < < < < < < < < < < < < < < < < < < < < < 4 < < < 4 < < 7 ; < < < < < < < < < < < < < < < < < < < < < < ",
"7 7 : 7 7 7 : < 7 7 O = = = 2 2 7 7 7 ; O 7 0 r p l b V I T T J H H A N c x l s p r 7 o o : 7 O < , 6 < 4 X 0 X < < < < < < < < ",
"O O 7 : O O 7 : O O = 7 7 7 = = : p x M D E ~ ( %.5.5.5.%.&.&.5.>.+.5.>.5.:.%.+.+.%.5.+./ J M x , 6 4 X , 6 , 8 < < < < < < < < ",
"7 : : 7 7 : 7 : 9 r s h c B E ( { +.5.7.5.5.:.5.+.+.+.+.%.+.:.5.8.:.:.+.:._ :.=.:.:.+./ ( :.:.+.,.m 0 6 6 6 X 4 < < < < < < 8 < ",
"J J J J J J I I ! ( +.w.5.%.+._ +.:.:._ _ +.:.:.:.5.7.7.5.+._ _ ` ` _ ` _ :.:.5._ _ :.+.:.:.+.( >.,.<.m X X q , < < < < < < < 8 ",
":.+.5.:.+.5.:.+._ +.:.+.+.+.+.5.+.+.:.:.:.:.:.:.+.` ` ` :.:.:.:.:.5.+.+.+.+._ +.:.:.+.+._ +.:.;.,.>.,.[ Z X , 4 < < < < < < 8 < ",
"+.+.+.+.+.+.+.+.7.7.5.5.+.+.+.+.:.:.:.+.` +.` ` :.:.` :._ ;.:.=.+.+.:.5.:.5.;.;.:.+.+.5.>.:.5.&.,.,.,.>.>.f , 6 < < < < < < < 8 ",
"%.:.:.>.5.:.+.:.+.:.:.+.:.:.5.:.:.+.+.+.+.+.:.7.+.+.+.+.:.>.+.+.>.%.&.5.5.>.&.&.%.%.%.%.+.&.&.%.[ ,.,.>.>.Y < X < < < < < < 8 < ",
"+.:.+.+.+.+.+.:.>.+.+.%.+.+.+.+.+.+.:.>.:.:.+._ 7.5.+.:.:.:.5.5.5.:.&.&.%.%.&.5.%.%.w.5.&.&.%.+.,.>.>.,.{ ,.0 6 < < < < < < < < ",
"5.+.+.:.+.+.>.:.;.;.;.;.;.;.;.;.;.;.;.;.;.;.;.;.;.;.;.;.;.;.;.;.;.;.;.;.;.;.;.;.;.;.;.;.;.;.;.;.>.7.+.+.:.&.z 2 ; 8 ; 8 8 8 ; < ",
":.+.+.5.+.:.:.+.;.;.;.;.;.;.;.;.;.;.;.;.;.;.;.;.;.;.;.;.;.;.;.;.;.;.;.;.;.;.;.;.;.;.;.;.;.;.;.;.+.+.:.,.+.&.b 2 8 ; 8 8 ; 2 < < ",
"+.+.+.+.%.+.+.>.;.;.;.;.;.;.;.;.;.;.;.;.;.;.;.;.;.;.;.;.;.;.;.;.;.;.;.;.;.;.;.;.;.;.;.;.;.;.;.;.7.+.+.7.+.+.C 2 8 8 8 8 < < < < ",
"+.5.:.+.:.:.+.:.;.;.;.;.;.;.;.;.;.;.;.;.;.;.;.;.;.;.;.;.;.;.;.;.;.;.;.;.;.;.;.;.;.;.;.;.;.;.;.;.+.+.+.7.+.%.I ; 2 8 8 8 < < < < ",
";.;.;.;.+.+.;.;.;.;.;.;.;.;.;.;.;.;.;.;.;.;.;.;.;.;.;.;.;.;.;.;.;.;.;.;.;.;.;.;.;.;.;.;.;.;.;.;.+.7.+.+.+.+.I ; 8 < 8 8 8 < < < ",
";.;.;.;.>.:.;.;.;.;.;.;.;.;.;.;.;.;.;.;.;.;.;.;.;.;.;.;.;.;.;.;.;.;.;.;.;.;.;.;.;.;.;.;.;.;.;.;.+.7.+._ 7.+.H ; < 8 8 8 < < < < ",
";.;.;.;.;.;.;.;.;.;.;.;.;.;.;.;.;.;.;.;.;.;.;.;.;.;.;.;.;.;.;.;.;.;.;.;.;.;.;.;.;.;.;.;.;.;.;.;.+.+.+._ 7.+.H 7 8 < 8 8 < < < 4 ",
";.;.;.;.;.;.;.;.;.;.;.;.;.;.;.;.;.;.;.;.;.;.;.;.;.;.;.;.;.;.;.;.;.;.;.;.;.;.;.;.;.;.;.;.;.;.;.;.7._ 7.+.7.+.L 7 < 8 8 8 < < < < ",
";.;.;.;.;.;.;.;.;.;.;.;.;.;.;.;.;.;.;.;.;.;.;.;.;.;.;.;.;.;.;.;.;.;.;.;.;.;.;.;.;.;.;.;.;.;.;.;.5.+.:.:.+.5.L 2 8 < 8 8 8 < < 4 ",
";.;.;.;.;.;.;.;.;.;.;.;.;.;.;.;.;.;.;.;.;.;.;.;.;.;.;.;.;.;.;.;.;.;.;.;.;.;.;.;.;.;.;.;.;.;.;.;.+.+.+.7.+.5.R ; < 8 8 8 < < < < ",
";.;.;.;.;.;.;.;.;.;.;.;.;.;.;.;.;.;.;.;.;.;.;.;.;.;.;.;.;.;.;.;.;.;.;.;.;.;.;.;.;.;.;.;.;.;.;.;.+.+.+.:._ 5.] 7 8 < 8 8 < < < 4 ",
";.;.;.;.;.;.;.;.;.;.;.;.;.;.;.;.;.;.;.;.;.;.;.;.;.;.;.;.;.;.;.;.;.;.;.;.;.;.;.;.;.;.;.;.;.;.;.;.+.5.+.5._ :.%.7 < 8 8 8 < < < < ",
";.;.;.;.;.;.;.;.;.;.;.;.;.;.;.;.;.;.;.;.;.;.;.;.;.;.;.;.;.;.;.;.;.;.;.;.;.;.;.;.;.;.;.;.+.:.:.+.+.5.+.:.+.+.t.7 8 < 8 8 8 < < 4 ",
";.;.;.;.;.;.;.;.;.;.;.;.;.;.;.;.;.;.;.;.;.;.;.;.;.;.;.;.;.;.;.;.;.;.;.;.;.;.;.;.;.;.;.;.:.>.+.:.:.+.+.+.:.+.w.O < 8 8 8 < < < < ",
";.;.;.;.;.;.;.;.;.;.;.;.;.;.;.;.;.;.;.;.;.;.;.;.;.;.;.;.;.;.;.;.;.;.;.;.;.;.;.;.:.+.%.+.+.>.+.>.+.+.+.+.5.+.>.< 8 < 8 8 < < < 4 ",
";.;.;.;.;.;.;.;.;.;.;.;.;.;.;.;.;.;.;.;.;.;.;.;.;.;.;.;.;.;.;.;.;.;.;.;.;.;.;.;.>.+.:.:.+.:.:.+.+.+.+.+.5.5.%.0 < 8 8 8 < < < < ",
";.;.;.;.;.;.;.;.;.;.;.;.;.;.;.;.;.;.;.;.;.;.;.;.;.;.;.;.;.;.;.;.;.;.;.;.;.;.;.;.;.;.;.;.;.;.;.;.5.+.+.+.7.5.+.7 ; 8 8 8 ; 8 ; 7 ",
";.;.;.;.;.;.;.;.;.;.;.;.;.;.;.;.;.;.;.;.;.;.;.;.;.;.;.;.;.;.;.;.;.;.;.;.;.;.;.;.;.;.;.;.;.;.;.;.:.+.+.+.5.+.%.7 8 ; 8 8 8 ; ; ; ",
";.;.;.;.;.;.;.;.;.;.;.;.;.;.;.;.;.;.;.;.;.;.;.;.;.;.;.;.;.;.;.;.;.;.;.;.;.;.;.;.;.;.;.;.;.;.;.;.:.+.+.:.+.+.y.O 8 8 8 8 8 < ; < ",
";.;.;.;.;.;.;.;.;.;.;.;.;.;.;.;.;.;.;.;.;.;.;.;.;.;.;.;.;.;.;.;.;.;.;.;.;.;.;.;.;.;.;.;.;.;.;.;.+.+.+.5.+.5.e.7 ; 8 8 8 8 < < < ",
";.;.;.;.;.;.;.;.;.;.;.;.;.;.;.;.;.;.;.;.;.;.;.;.;.;.;.;.;.;.;.;.;.;.;.;.;.;.;.;.;.;.;.;.;.;.;.;.+.5.+.7._ +.>.O 8 < 8 8 < < < < ",
";.;.;.;.;.;.;.;.;.;.;.;.;.;.;.;.;.;.;.;.;.;.;.;.;.;.;.;.;.;.;.;.;.;.;.;.;.;.;.;.;.;.;.;.;.;.;.;.+.+.+.:._ 5.] O < 8 8 8 8 < 7 ; ",
";.;.;.;.;.;.;.;.;.;.;.;.;.;.;.;.;.;.;.;.;.;.;.;.;.;.;.;.;.;.;.;.;.;.;.;.;.;.;.;.;.;.;.;.;.;.;.;.:.+.+.5.+.:.E 7 8 < 8 8 < < < ; ",
";.;.;.;.;.;.;.;.;.;.;.;.;.;.;.;.;.;.;.;.;.;.;.;.;.;.;.;.;.;.;.;.;.;.;.;.;.;.;.;.;.;.;.;.;.;.;.;.5.+.5.:.+.7.H < < 8 8 8 < < < < ",
";.;.;.;.;.;.;.;.;.;.;.;.;.;.;.;.;.;.;.;.;.;.;.;.;.;.;.;.;.;.;.;.;.;.;.;.;.;.;.;.;.;.;.;.;.;.;.;.:._ 5.+.5.5.I 2 8 < 8 8 8 < < < ",
";.;.;.;.;.;.;.;.;.;.;.;.;.;.;.;.;.;.;.;.;.;.;.;.;.;.;.;.;.;.;.;.;.;.;.;.;.;.;.;.;.;.;.;.;.;.;.;.5._ :.+.:.&.R ; < 8 8 8 < < < < ",
";.;.;.;.;.;.;.;.;.;.;.;.;.;.;.;.;.;.;.;.;.;.;.;.;.;.;.;.;.;.;.;.;.;.;.;.;.;.;.;.;.;.;.;.;.;.;.;.+.+.5.:.+.+.! ; 8 < 8 8 < < < < ",
";.;.;.;.;.;.;.;.;.;.;.;.;.;.;.;.;.;.;.;.;.;.;.;.;.;.;.;.;.;.;.;.;.;.;.;.;.;.;.;.;.;.;.;.;.;.;.;.5.+.+.+.+.+.! O < 8 8 8 < < < 4 ",
";.;.;.;.;.;.;.;.;.;.;.;.;.;.;.;.;.;.;.;.;.;.;.;.;.;.;.;.;.;.;.;.;.;.;.;.;.;.;.;.;.;.;.;.;.;.;.;.+.+.+.7.+.+.Y O 8 < 8 8 8 < < < ",
";.;.;.;.;.;.;.;.;.;.;.;.;.;.;.;.;.;.;.;.;.;.;.;.;.;.;.;.;.;.;.;.;.;.;.;.;.;.;.;.;.;.;.;.;.;.;.;.:.+.+.:.+.+.V 7 < 8 8 8 < < < 4 ",
";.;.;.;.;.;.;.;.;.;.;.;.;.;.;.;.;.;.;.;.;.;.;.;.;.;.;.;.;.;.;.;.;.;.;.;.;.;.;.;.;.;.;.;.;.;.;.;.5.+.+.5.+.+.c < 8 < 8 8 < < < < ",
";.;.;.;.;.;.;.;.;.;.;.;.;.;.;.;.;.;.;.;.;.;.;.;.;.;.;.;.;.;.;.;.;.;.;.;.;.;.;.;.;.;.;.;.;.;.;.;.7.+.+.:.5.5.x < < 8 < 8 < < < 4 ",
";.;.;.;.;.;.;.;.;.;.;.;.;.;.;.;.;.;.;.;.;.;.;.;.;.;.;.;.;.;.;.;.;.;.;.;.;.;.;.;.;.;.;.;.;.;.;.;.+.+.+.+.&.&.g 2 ; 2 2 ; 8 8 ; ; ",
";.;.;.;.;.;.;.;.;.;.;.;.;.;.;.;.;.;.;.;.;.;.;.;.;.;.;.;.;.;.;.;.;.;.;.;.;.;.;.;.;.;.;.;.;.;.;.;.+.:.5.+.w.&.g 2 ; 8 ; 8 ; 2 2 8 ",
";.;.;.;.;.;.;.;.;.;.;.;.;.;.;.;.;.;.;.;.;.;.;.;.;.;.;.;.;.;.;.;.;.;.;.;.;.;.;.;.;.;.;.;.;.;.;.;.+.7.:.+.&.&.f O ; ; ; ; ; 8 ; ; ",
";.;.;.;.;.;.;.;.;.;.;.;.;.;.;.;.;.;.;.;.;.;.;.;.;.;.;.;.;.;.;.;.;.;.;.;.;.;.;.;.;.;.;.;.;.;.;.;.7.+.+.+.*.%.p 2 8 2 8 2 2 ; 2 8 ",
";.;.;.;.;.;.;.;.;.;.;.;.;.;.;.;.;.;.;.;.;.;.;.;.;.;.;.;.;.;.;.;.;.;.;.;.;.;.;.;.;.;.;.;.;.;.;.;.+.+.7.+.>.+.t 2 ; 2 ; 8 ; 2 8 ; ",
";.;.;.;.;.;.;.;.;.;.;.;.;.;.;.;.;.;.;.;.;.;.;.;.;.;.;.;.;.;.;.;.;.;.;.;.;.;.;.;.;.;.;.;.;.;.;.;.7.+.7._ 5.%.7 2 ; 8 ; 2 8 ; 8 ; ",
";.;.;.;.;.;.;.;.;.;.;.;.;.;.;.;.;.;.;.;.;.;.;.;.;.;.;.;.;.;.;.;.;.;.;.;.;.;.;.;.;.;.;.;.;.;.;.;.+.+.7.+.5.%.; 7 8 2 8 ; 8 ; 2 ; ",
";.;.;.;.;.;.;.;.;.;.;.;.;.;.;.;.;.;.;.;.;.;.;.;.;.;.;.;.;.;.;.;.;.;.;.;.;.;.;.;.;.;.;.;.;.;.;.;.+.+.7.+.5.+.2 7 8 ; ; 2 ; 2 8 ; ",
";.;.;.;.;.;.;.;.;.;.;.;.;.;.;.;.;.;.;.;.;.;.;.;.;.;.;.;.;.;.;.;.;.;.;.;.;.;.;.;.;.;.;.;.;.;.;.;.;._ +.:.&.r.= 2 ; 2 2 ; 8 ; 8 ; ",
";.;.;.;.;.;.;.;.;.;.;.;.;.;.;.;.;.;.;.;.;.;.;.;.;.;.;.;.;.;.;.;.;.;.;.;.;.;.;.;.;.;.;.;.;.;.;.;.;.+.;.:.&.X.= 2 8 ; 8 ; ; 2 8 2 ",
";.;.;.;.;.;.;.;.;.;.;.;.;.;.;.;.;.;.;.;.;.;.;.;.;.;.;.;.;.;.;.;.;.;.;.;.;.;.;.;.;.;.;.;.;.;.;.;.;.;.5.;.&.T 2 2 ; ; ; ; 8 ; ; ; ",
";.;.;.;.;.;.;.;.;.;.;.;.;.;.;.;.;.;.;.;.;.;.;.;.;.;.;.;.;.;.;.;.;.;.;.;.;.;.;.;.;.;.;.;.;.;.;.;.;.+.&.+.r.H 2 2 2 8 8 2 2 ; 2 8 ",
";.;.;.;.;.;.;.;.;.;.;.;.;.;.;.;.;.;.;.;.;.;.;.;.;.;.;.;.;.;.;.;.;.;.;.;.;.;.;.;.;.;.;.;.;.+.+.:.5.:.:.+.r.H 9 2 ; 8 8 ; ; 2 ; 8 ",
";.;.;.;.;.;.;.;.;.;.;.;.;.;.;.;.;.;.;.;.;.;.;.;.;.;.;.;.;.;.;.;.;.;.;.;.;.;.;.;.;.;.;.;.;.:.>.%.5._ ;._ r.H 9 2 ; 2 ; 2 8 ; 2 ; ",
";.;.;.;.;.;.;.;.;.;.;.;.;.;.;.;.;.;.;.;.;.;.;.;.;.;.;.;.;.;.;.;.;.;.;.;.;.;.;.;.;.;.;.;.;.;.:.+.:.+.:.+.*.T 2 7 8 2 8 ; ; ; 8 ; ",
";.;.;.;.;.;.;.;.;.;.;.;.;.;.;.;.;.;.;.;.;.;.;.;.;.;.;.;.;.;.;.;.;.;.;.;.;.;.;.;.;.;.;.;.;.;.+.+.+.+.5.+.@.T ; 7 ; ; ; 2 8 2 8 ; "
};
