/* XPM */
static char *_643294180978[] = {
/* columns rows colors chars-per-pixel */
"64 64 152 2 ",
"   c #0A0603",
".  c #0D0C05",
"X  c #09070A",
"o  c #0D0D0C",
"O  c #060C0C",
"+  c #100700",
"@  c #140E02",
"#  c #190F00",
"$  c #110E0C",
"%  c #0E100D",
"&  c #161104",
"*  c #1A1302",
"=  c #1E1804",
"-  c #13110D",
";  c #19140C",
":  c #1A180C",
">  c #0E0E11",
",  c #110F11",
"<  c #0E1114",
"1  c #0F121A",
"2  c #121213",
"3  c #191614",
"4  c #191816",
"5  c #141519",
"6  c #19171C",
"7  c #1A1A1A",
"8  c #211602",
"9  c #231A03",
"0  c #241C0B",
"q  c #2B1F09",
"w  c #2C240E",
"e  c #2B2213",
"r  c #352A16",
"t  c #352D18",
"y  c #3A321D",
"u  c #1D2122",
"i  c #232426",
"p  c #2C2B27",
"a  c #242829",
"s  c #2C2C2D",
"d  c #343120",
"f  c #3E3721",
"g  c #333333",
"h  c #37363B",
"j  c #37383A",
"k  c #3F3E3C",
"l  c #423721",
"z  c #443C25",
"x  c #403F3B",
"c  c #47412B",
"v  c #4E472B",
"b  c #4F482E",
"n  c #50452F",
"m  c #514932",
"M  c #524B39",
"N  c #5A4F39",
"B  c #5A523F",
"V  c #444447",
"C  c #4B4A48",
"Z  c #524D53",
"A  c #565654",
"S  c #585954",
"D  c #625743",
"F  c #645A44",
"G  c #695F44",
"H  c #655D48",
"J  c #6A5F49",
"K  c #75664E",
"L  c #766B55",
"P  c #7D775D",
"I  c #646464",
"U  c #68696B",
"Y  c #7C7C7D",
"T  c #80755F",
"R  c #837A62",
"E  c #837A69",
"W  c #8A7F69",
"Q  c #8D836B",
"!  c #81817F",
"~  c #9B9176",
"^  c #9F957A",
"/  c #A4997D",
"(  c #838182",
")  c #88878C",
"_  c #8A8A8B",
"`  c #939292",
"'  c #9A9B9F",
"]  c #A59B82",
"[  c #A89E84",
"{  c #A49E88",
"}  c #AAA286",
"|  c #ADA48B",
" . c #B0A68B",
".. c #B3A88C",
"X. c #B6AC91",
"o. c #B9AF96",
"O. c #BAB095",
"+. c #BDB29A",
"@. c #B2B6B7",
"#. c #BEBAB9",
"$. c #C0B393",
"%. c #C6B997",
"&. c #C0B69B",
"*. c #C3B99D",
"=. c #C1B6A2",
"-. c #CABEA4",
";. c #C0BEBF",
":. c #CFC1A4",
">. c #D0C2A7",
",. c #D2C2A8",
"<. c #D3C9AB",
"1. c #D8CFAE",
"2. c #D7CDB4",
"3. c #DACDB2",
"4. c #DFD5BA",
"5. c #EADBA7",
"6. c #E6D9AE",
"7. c #EDDDAC",
"8. c #F1DFAE",
"9. c #E2D7B5",
"0. c #E3D9B3",
"q. c #ECDDB3",
"w. c #E0D6BB",
"e. c #E5DBBB",
"r. c #EBDEBB",
"t. c #F1DFB2",
"y. c #EEE1AD",
"u. c #F0E0AF",
"i. c #EEE0B3",
"p. c #EDE1BC",
"a. c #F2E2B2",
"s. c #F8E3B4",
"d. c #F2E3BB",
"f. c #CBCDCC",
"g. c #D2CDD1",
"h. c #D5D4D5",
"j. c gray86",
"k. c #E5DDC1",
"l. c #EBDEC1",
"z. c #E7E0C4",
"x. c #ECE2C3",
"c. c #EFE4C8",
"v. c #F1E3C1",
"b. c #DCDBE0",
"n. c #E4E4E5",
"m. c #EAE9E7",
"M. c #EAEAEC",
"N. c #EDEEF1",
"B. c #F1EFF0",
"V. c #F2F2F3",
"C. c #F9F9F6",
"Z. c #FDFEFE",
/* pixels */
"u.u.u.u.u.u.u.u.u.u.u.u.u.u.u.u.7.a.7.u.u.u.u.u.8.7.a.7.7.u.u.u.u.a.a.7.a.u.u.u.i.u.u.u.u.u.u.u.u.y.a.7.u.u.u.u.u.u.u.u.u.u.u.u.",
"u.u.u.u.u.i.u.u.u.u.u.u.u.u.u.u.a.y.a.u.u.u.u.u.y.a.y.a.a.u.u.u.u.7.7.a.u.u.u.u.8.y.u.u.u.u.u.u.u.8.7.a.u.u.8.i.u.u.u.u.u.u.u.u.",
"a.u.u.u.y.8.8.y.u.u.u.u.u.u.u.u.y.8.u.u.u.u.u.u.u.u.u.u.u.u.u.u.u.u.a.y.u.u.u.u.7.a.u.u.u.u.u.u.u.u.a.u.u.u.u.u.u.u.u.u.u.u.u.u.",
"7.u.u.u.a.7.a.u.u.u.u.u.u.u.i.8.a.u.u.u.u.u.u.u.8.u.u.u.u.u.u.u.u.u.y.8.y.u.u.u.a.8.y.u.u.u.u.u.u.u.y.u.u.u.u.u.u.u.u.u.u.t.y.u.",
"u.u.a.y.8.y.u.u.u.u.u.u.u.u.u.u.u.u.u.u.u.u.u.u.i.u.u.u.u.u.u.u.u.u.u.u.8.a.7.a.u.u.u.u.i.8.u.u.u.u.u.u.u.u.u.u.u.u.u.u.u.u.u.u.",
"u.u.u.u.7.a.u.u.u.u.u.u.u.u.u.u.u.7.a.7.u.u.u.t.u.u.u.u.u.u.u.u.u.u.u.i.a.7.u.y.u.u.u.u.u.u.u.u.a.8.u.u.u.u.u.u.u.u.u.u.u.u.u.u.",
"u.7.u.u.a.u.u.u.u.u.u.u.u.u.u.u.y.a.a.y.u.u.8.y.u.u.u.u.u.u.u.u.u.u.u.8.u.u.u.u.u.u.u.u.u.u.u.u.7.8.i.u.u.u.u.u.u.u.u.u.u.u.u.u.",
"u.a.u.u.7.a.u.u.u.u.u.u.u.u.u.u.8.a.7.u.u.u.y.a.u.u.u.u.u.u.u.u.u.u.u.u.u.u.u.u.u.u.u.u.u.u.u.u.a.y.u.u.u.u.u.u.u.u.u.u.u.u.u.u.",
"7.a.u.u.u.u.u.u.u.y.u.u.u.u.u.u.7.u.u.u.a.y.u.u.u.u.u.u.u.u.u.u.u.u.u.u.u.u.u.a.7.a.y.u.u.u.u.u.y.8.7.a.8.y.a.8.u.u.u.u.u.y.8.y.",
"u.u.u.u.u.u.y.u.u.t.u.u.u.u.u.u.a.u.u.u.y.8.u.7.u.u.u.u.u.u.u.u.u.u.u.u.u.u.y.8.a.7.u.u.u.u.u.u.a.y.a.8.y.a.7.y.a.u.u.u.u.a.7.a.",
"u.u.u.u.u.u.u.u.u.u.u.u.u.u.u.u.u.u.7.a.a.7.a.a.u.u.u.u.u.u.u.u.u.u.u.u.u.u.a.7.u.u.u.u.u.u.u.u.7.a.u.y.a.7.u.u.7.u.u.7.7.a.a.7.",
"u.u.u.u.u.u.u.u.u.u.u.u.u.u.u.u.u.u.u.u.7.a.y.8.u.u.u.u.u.u.u.u.u.u.u.u.u.a.7.a.u.u.u.u.u.u.u.u.a.7.u.a.7.a.u.a.u.u.u.a.u.8.y.a.",
"a.u.u.u.u.u.u.u.u.u.u.u.u.u.u.u.u.u.u.u.u.u.u.u.u.u.u.u.u.u.u.u.u.u.7.u.u.u.8.y.u.u.u.u.u.u.u.u.u.y.8.a.8.y.a.7.u.u.t.y.u.y.8.y.",
"y.8.i.u.u.u.u.u.u.u.u.u.a.7.u.u.u.u.u.u.u.u.u.u.u.u.u.u.u.u.u.u.u.u.a.u.u.u.y.a.u.u.u.u.u.u.u.u.u.u.a.7.y.a.7.a.u.u.u.8.u.a.7.a.",
"u.u.u.u.u.u.u.u.u.a.u.u.u.u.u.a.8.u.u.u.u.u.u.u.u.u.u.u.u.u.u.u.u.u.u.u.a.u.u.u.u.8.i.u.u.u.u.u.7.a.y.8.u.u.7.a.u.u.a.y.7.a.a.7.",
"u.u.u.u.u.u.u.u.u.7.u.u.8.8.8.q.a.8.8.8.u.s.u.u.u.u.u.u.u.u.u.u.u.u.u.u.7.u.u.u.u.u.u.u.u.u.u.u.a.7.a.y.u.u.u.7.a.y.u.u.u.8.y.a.",
"y.y.y.y.u.u.u.y.8.8.u.7.t.t.t.t.t.t.i.i.q.a.i.i.q.7.a.u.u.7.u.u.y.u.a.u.7.u.u.a.8.u.u.u.u.u.u.u.7.y.y.u.8.6.t.8.7.7.y.y.u.u.a.t.",
"y.y.y.y.u.u.8.y.8.8.8.8.t.t.t.t.a.q.q.a.a.q.a.q.q.a.a.7.u.u.u.5.8.u.a.u.a.a.7.7.s.8.8.u.8.5.u.8.y.y.y.u.s.8.t.t.t.7.y.y.y.u.t.8.",
"t.y.t.y.u.u.y.y.u.u.u.u.t.t.t.8.t.u.8.u.8.y.t.t.t.8.8.8.u.8.y.u.7.u.a.y.u.a.a.q.u.u.u.u.u.s.8.5.y.u.y.u.8.6.8.s.8.8.7.y.y.u.t.q.",
"t.t.t.t.8.8.8.8.u.u.u.a.u.u.s.8.8.u.8.u.8.8.8.8.8.7.8.t.u.u.u.8.u.y.t.7.7.i.i.a.8.8.s.u.u.u.7.d.5.u.u.u.s.8.8.8.8.8.7.y.y.y.t.u.",
"t.t.t.t.t.t.t.t.y.i.y.7.y.y.y.y.8.8.8.8.8.8.8.8.a.s.7.7.7.a.i.5.a.i.i.i.q.i.q.q.a.q.q.q.7.q.d.q.s.a.t.t.t.t.t.t.8.u.y.y.y.y.y.y.",
"t.t.t.t.t.t.t.t.8.u.y.y.y.y.y.y.8.u.8.u.8.u.8.u.8.a.q.t.d.i.i.d.q.q.e.p.p.r.p.q.r.d.r.q.d.d.i.q.q.q.r.t.t.t.t.t.8.u.y.y.y.y.y.y.",
"t.t.t.q.t.t.t.q.8.u.u.y.y.y.y.y.8.8.8.8.t.t.t.t.d.r.p.p.p.p.p.p.x.r.x.x.l.c.c.l.k.v.k.c.c.w.r.v.v.e.x.r.v.t.t.s.t.t.u.y.y.y.u.u.",
"a.t.t.t.t.8.t.a.u.u.y.y.u.y.7.y.u.y.t.t.r.t.d.r.x.k.x.4.+.} P c 9 = & & # # @ # * * * 0 t F R m y y J ] -.v.l.l.r.q.q.y.y.y.u.u.",
"a.y.7.y.y.u.u.u.u.8.s.8.8.8.u.8.8.p.r.p.x.k.w.] H w & * @ * & * & & & & & & & $ # ; # * # ; & & & . & * # q K >.r.l.p.q.i.a.a.7.",
"y.y.i.y.8.y.8.5.8.8.8.5.7.t.s.q.i.x.k.| c = * = & . : & . : . % - - - - % - - - 2 , , - - $ - $ % 2 : : ; * + 8 r [ r.p.d.6.u.u.",
"y.y.y.y.u.u.s.u.s.t.8.s.q.r.r.r.} d & & & & - & - 4 % . - 5 o 5 < % 2 2 , , , 5 , , , 2 $ - , 2 5 O % % . @ & & # * l -.r.d.a.8.",
"y.y.y.y.u.u.y.7.q.t.t.v.r.3.K * . - & - . - . - % . % 2 5 > o > 1 2 1 2 5 5 , , 1 , 5 , 2 2 2 2 < 5 2 < o : - - $ ; # 8 ..r.7.a.",
"y.y.q.u.u.8.7.7.q.d.0.e.F @ * * : % - % - . 5 2 2 5 5 5 > > 3 2 2 % 1 2 1 , 5 > < 2 , , 2 2 2 2 O < < 5 % 2 - 2 5 $ $ # 9 >.q.t.",
"u.5.t.a.7.7.i.d.r.e.} & * @ - - % 2 % 2 2 7 o 2 1 2 > , 5 5 2 o < < 2 < , , 1 2 2 < 2 < < 2 o < 5 2 - O 2 2 7 O , , , ; @ l x.0.",
"s.t.t.t.7.t.d.r.9.v @ * - - > 2 5 % 5 2 < < 5 o 2 2 2 2 , $ $ 3 2 % - < < - , 2 > 2 2 % - - 2 - 2 - 2 % 5 h V 5 1 1 6   0 # 3.r.",
"t.8.t.t.q.d.r.<.w & & - 2 2 1 1 % 2 % % % o 2 2 > $ 5 $ o , , 2 - 2 < $ 2 2 % - - < - - 2 % - - $ - - : 4 Z.Z.1 1 > 5 , # #  .x.",
"7.s.7.a.q.p.e.f * - 2 , 2 , - - $ 3 2 $ 4 o o 2 2 - < - 2 - - 2 2 2 , , 5 $ o 5 < 5 o - 2 2 5 > 5 $ , x Z.C.Z.- < < , $ # # { l.",
"s.7.a.5.p.p.<.= @ 2 , 1 , 2 $ - - o 2 - . 7 2 $ % o 2 2 o o > 2 5 > , , , , , $ > 2 2 2 O 4 o 6 Z g.Z.Z.C.Z.Z.- 3 2 $ $ 8 * o.k.",
"7.5.i.a.i.p.~ # - - 1 , , 2 - - 2 $ , 2 2 > o , 2 2 > 2 2 5 2 > X o 4 3 X o 4 2 5 <   3 j Y n.Z.Z.Z.C.Z.C.Z.U 2 > , $ ; + 8 k.l.",
"u.s.a.a.6.p.~ @ * - , , 5 , < 2 , , , 5 X 5 $ 5 2 2 2 , 1 2 2 2 3 5 o , 3 $ $ 4 c ` j.Z.C.Z.C.Z.Z.Z.Z.Z.C.U 1 2 5 > 4 @ # G l.r.",
"5.u.u.7.a.r./ * @ - $ 5 2 1 < 2 5 2 $ , 3 < < 2 2 X 5 u 5 2 5 2 o - g A ! f.Z.C.Z.Z.Z.C.Z.C.Z.Z.Z.Z.C.f.u 1 O 2 > 2 -   w 1.6.i.",
"s.a.u.t.d.d.%.# * - $ , < 2 5 1 5 o $ , 2 2 4 g ` h.M.j.M.M.n.M.Z.Z.Z.Z.Z.Z.Z.Z.Z.C.Z.Z.Z.Z.Z.Z.C.@.a < < 7 2 2 2 - & e O.r.i.i.",
"7.7.y.a.t.6.d.8 * @ - - < < < < . 5 $ 2 % - I Z.Z.Z.Z.Z.Z.Z.Z.Z.Z.Z.Z.Z.Z.Z.Z.Z.Z.Z.Z.Z.Z.Z.N.Y i > < % . % o - $ # e o.p.d.i.y.",
"i.y.8.a.7.a.r.$.* * & - 2 < < < 2 - % - - - C.Z.Z.Z.Z.Z.Z.Z.Z.Z.Z.Z.Z.Z.Z.Z.Z.Z.Z.Z.Z.V.' a 2 2 > , 5 - 2 - - * * D 2.z.p.i.y.y.",
"y.y.u.u.t.t.r.p.} & = & % % 2 2 % 3 % . 2 o Z.Z.Z.Z.Z.Z.Z.Z.Z.Z.Z.Z.Z.Z.Z.Z.Z.Z.j.) h 5 2 2 2 2 - $ 3 o & & & c o.x.r.r.d.q.8.7.",
"y.i.u.u.t.t.a.r.p.+.= & . : & . - o 4 4 o 2 ( Z.Z.Z.Z.Z.Z.Z.Z.Z.Z.Z.Z.Z.h._ V u , , $ 5 - - 2 $ ; @ @ * * v ..4.x.d.6.d.s.5.s.u.",
"7.t.8.u.t.t.t.q.p.p.z.P = * & : @ - $ 2 3 2 2 C #.m.B.B.m.h.;._ I S a . % - - 3 $ 3 $ $ - - 3 . @ 0 r W 3.e.d.q.a.7.7.a.a.7.s.7.",
"a.y.8.t.t.t.t.a.y.p.p.z.z.} y = ; ; @ @ @ @ ; : ; @ - - - ; $ $ . @ @ ; & & ; @ * @ * @ & * = M Q -.e.r.v.p.p.a.7.a.a.7.7.8.a.7.",
"8.8.8.8.8.8.8.t.u.y.i.i.r.r.v.l.+.E f 9 = @ @ # & & @ * ; # ; @ * * & * @ & = @ # e b R / +.c.e.l.r.v.r.q.q.7.7.s.u.u.y.a.a.7.a.",
"8.8.t.8.8.8.t.t.y.u.a.y.q.d.q.r.c.c.x.x.w.*.X.[ ] Q T F N F D L Q ~ ~ }  ./ ..3.x.e.e.r.r.r.q.d.t.d.q.t.d.q.t.s.y.5.y.u.s.y.7.q.",
"8.u.8.8.8.8.8.8.u.y.y.u.7.t.q.t.p.0.p.q.p.i.r.r.p.e.e.r.r.e.e.p.e.x.r.r.p.v.v.r.d.r.i.q.i.a.7.7.u.8.7.t.a.8.s.8.u.s.a.y.6.y.i.i.",
"8.8.8.8.8.8.8.8.u.u.5.u.7.a.a.8.q.a.i.i.i.i.q.i.i.i.i.p.i.i.i.i.i.i.q.p.q.q.q.q.7.d.a.8.a.7.a.u.y.u.u.t.8.u.u.u.u.u.y.y.i.y.y.i.",
"s.u.u.u.8.u.u.u.u.u.u.u.u.u.u.u.7.y.a.7.a.q.t.i.i.y.i.i.i.i.7.i.y.i.i.i.t.t.q.a.t.t.u.u.u.u.u.u.u.u.u.u.u.u.u.u.u.u.u.u.u.u.u.y.",
"8.8.u.u.u.u.u.u.u.u.u.u.u.u.u.u.a.u.7.a.u.y.u.u.u.u.y.8.u.u.a.y.8.u.u.u.u.u.u.u.u.u.u.u.8.u.u.y.u.u.u.u.u.u.u.u.u.u.u.u.u.u.u.u.",
"u.u.u.u.u.8.u.u.u.u.u.u.u.u.u.u.u.u.u.u.u.u.u.u.u.u.u.u.u.u.u.u.u.u.u.u.u.u.u.u.u.y.u.u.i.u.y.8.u.u.u.u.u.u.u.u.u.u.u.u.u.u.u.u.",
"u.u.u.u.u.u.u.u.u.u.u.u.u.u.u.u.u.u.u.u.u.u.u.u.u.u.u.u.u.u.u.u.u.u.u.u.u.u.u.u.u.u.u.u.u.u.a.u.u.u.u.u.u.u.u.u.u.u.u.u.u.u.u.u.",
"u.u.u.u.u.u.u.u.u.u.u.u.u.u.u.u.u.u.u.u.u.u.u.u.u.u.u.8.i.u.u.u.u.7.u.u.u.u.u.7.u.u.u.u.7.u.u.u.u.u.u.u.u.u.u.u.u.u.u.u.u.u.u.u.",
"u.u.u.u.u.u.u.u.u.u.u.u.u.u.u.u.u.u.u.u.u.u.u.u.u.u.u.u.u.u.u.u.u.a.u.u.u.7.u.a.u.u.u.u.a.u.u.u.u.u.u.u.u.u.u.u.u.u.u.u.u.u.u.u.",
"u.u.u.u.u.u.u.u.u.u.u.u.u.u.u.u.u.u.u.u.u.u.u.u.u.u.u.u.u.u.u.u.t.y.u.u.u.a.u.u.u.u.u.u.u.u.a.u.u.u.u.u.u.u.u.u.u.u.u.u.u.u.u.u.",
"u.u.u.u.u.u.u.u.u.u.u.u.u.u.u.u.u.u.u.u.u.u.u.u.u.u.u.u.u.u.u.u.y.8.y.a.u.u.u.u.u.u.u.u.u.u.7.u.u.u.u.u.u.u.u.u.u.u.u.u.u.u.u.u.",
"7.a.u.u.a.y.a.u.u.u.u.u.u.a.7.u.u.u.u.y.a.7.i.u.8.y.a.7.8.y.a.7.u.a.u.u.a.u.u.u.u.u.u.u.u.u.u.u.u.u.a.u.a.7.u.u.u.u.u.u.u.u.u.u.",
"a.8.y.u.7.8.y.u.u.u.y.8.u.u.u.u.u.u.u.8.7.a.8.u.a.a.7.a.a.a.7.a.u.7.u.u.u.u.u.u.u.u.u.u.u.u.u.u.u.u.7.u.8.a.y.u.u.u.u.u.u.u.u.u.",
"7.a.u.u.a.7.u.u.u.u.u.u.u.u.u.u.u.u.u.u.a.u.u.u.7.u.8.y.7.u.8.y.u.u.u.u.u.u.u.u.u.u.u.u.u.u.u.u.u.a.u.u.y.u.u.u.u.u.u.u.7.a.u.u.",
"u.y.u.u.u.a.u.u.u.u.u.u.u.7.a.u.u.u.u.u.y.u.u.u.u.u.y.a.u.u.y.a.u.u.a.7.y.u.u.u.u.u.u.u.u.u.u.u.8.y.u.u.7.a.u.u.u.u.u.u.u.y.8.u.",
"u.u.u.u.u.u.u.7.u.7.u.t.u.a.y.8.7.a.7.u.u.u.y.8.a.y.t.u.7.u.u.u.7.a.u.u.8.a.y.8.i.u.u.u.7.a.u.u.y.a.7.a.y.8.y.u.y.a.u.u.u.a.7.u.",
"u.u.u.u.u.u.u.a.u.a.y.y.u.u.u.u.a.y.a.u.u.7.a.a.y.8.u.u.a.8.u.u.a.y.8.u.a.7.u.i.8.u.u.u.a.8.y.u.a.7.u.u.a.u.t.u.8.u.u.u.u.u.u.u.",
"u.u.u.u.a.7.y.8.u.u.y.8.u.u.u.a.y.8.u.u.u.a.a.7.u.u.u.u.u.y.a.u.7.u.u.u.u.u.u.u.u.u.u.u.7.a.u.u.u.u.u.u.u.u.y.a.y.a.7.u.8.y.u.u.",
"u.u.u.u.u.u.u.a.u.u.a.u.u.u.u.7.a.u.u.u.u.7.y.u.u.u.u.u.u.u.u.u.u.u.u.u.u.u.u.u.u.u.u.u.u.y.u.u.u.u.u.u.7.a.8.7.a.7.a.u.u.u.u.a."
};
